<?xml version="1.0" encoding="UTF-8" standalone="no"?>
<!-- Created with Inkscape (http://www.inkscape.org/) -->

<svg
   width="210mm"
   height="297mm"
   viewBox="0 0 210 297"
   version="1.1"
   id="svg1"
   xml:space="preserve"
   sodipodi:docname="wzor.svg"
   inkscape:version="1.3 (0e150ed6c4, 2023-07-21)"
   xmlns:inkscape="http://www.inkscape.org/namespaces/inkscape"
   xmlns:sodipodi="http://sodipodi.sourceforge.net/DTD/sodipodi-0.dtd"
   xmlns="http://www.w3.org/2000/svg"
   xmlns:svg="http://www.w3.org/2000/svg"><sodipodi:namedview
     id="namedview1"
     pagecolor="#ffffff"
     bordercolor="#000000"
     borderopacity="0.25"
     inkscape:showpageshadow="2"
     inkscape:pageopacity="0.0"
     inkscape:pagecheckerboard="0"
     inkscape:deskcolor="#d1d1d1"
     inkscape:document-units="mm"
     inkscape:zoom="0.37282197"
     inkscape:cx="1205.6693"
     inkscape:cy="1044.7346"
     inkscape:window-width="1662"
     inkscape:window-height="1033"
     inkscape:window-x="235"
     inkscape:window-y="6"
     inkscape:window-maximized="0"
     inkscape:current-layer="layer1-4-5" /><defs
     id="defs1" /><g
     inkscape:label="Warstwa 1"
     inkscape:groupmode="layer"
     id="layer1"><g
       inkscape:label="Warstwa 1"
       id="layer1-4"
       transform="translate(4.0047418,-19.301403)"><path
         style="display:inline;fill:#e9c6af;stroke-width:0.203917"
         d="m 326.3809,306.70815 1.3083,-53.45419 2.28943,-44.73696 10.28305,0.10157 16.56178,-0.14396 5.66634,0.66932 8.51515,14.72141 0.90993,17.65677 -2.81899,14.14166 -3.08582,14.14166 -7.05109,9.28197 -7.39607,15.25115 2.62951,23.75604 -17.34159,0.0192 -8.51162,-0.13367 -2.8687,-0.23487 z"
         id="path10"
         sodipodi:nodetypes="ccccccccccccccccc" /><path
         style="display:inline;fill:#deaa87;stroke-width:0.203133"
         d="m 307.92036,294.22021 -5.48619,-16.08011 -6.97424,-6.53204 -6.51848,-16.82399 -0.12842,-15.1095 0.12842,-7.75355 3.01309,-8.57052 4.74762,-14.57462 3.22774,-0.1406 29.7217,-0.20551 0.45457,0.10883 -0.12176,7.36752 -2.30095,61.05323 -0.68892,15.43665 -1.16567,25.50785 -2.55354,0.0108 -3.67644,0.0303 -15.34321,0.0896 z"
         id="path11"
         sodipodi:nodetypes="ccccccccccccccccccc" /><path
         style="fill:#cccccc;stroke-width:0.206295"
         d="m 300.42142,297.75667 19.94977,0.59099 6.86708,20.61921 -0.20883,19.66883 -49.60249,0.96214 z"
         id="path12"
         sodipodi:nodetypes="cccccc" /><path
         style="fill:#ececec;stroke-width:0.206295"
         d="m 337.25695,297.42549 21.36494,0.11584 15.05502,41.47601 -47.66841,-0.0843 -0.18209,-23.28234 z"
         id="path12-3"
         sodipodi:nodetypes="cccccc" /><rect
         style="fill:#000000;stroke-width:0.290894"
         id="rect12"
         width="4.6698699"
         height="14.192745"
         x="346.2395"
         y="228.78006" /><rect
         style="fill:#000000;stroke-width:0.238723"
         id="rect13"
         width="5.7372684"
         height="12.165227"
         x="306.74573"
         y="230.11433" /><path
         style="fill:#000000;stroke-width:0.264583"
         d="m 305.32699,272.34473 16.03875,9.15152"
         id="path14" /><rect
         style="fill:#000000;stroke-width:0.264583"
         id="rect15"
         width="21.081125"
         height="3.0687716"
         x="317.68658"
         y="267.60672" /><rect
         style="fill:#000000;stroke-width:0.264583"
         id="rect16"
         width="21.322109"
         height="3.0190597"
         x="300.04364"
         y="223.28502" /><rect
         style="fill:#000000;stroke-width:0.264583"
         id="rect17"
         width="22.454258"
         height="3.2077508"
         x="337.0271"
         y="221.58679" /><path
         style="fill:#a05a2c;stroke-width:0.264583"
         d="m 397.09245,236.00966 12.58274,-1.8699 -0.70772,-19.18577 -14.50513,2.52909 -8.3692,9.94481 -5.86905,103.65531 -1.45513,12.86286 6.64144,0.1014 z"
         id="path1"
         sodipodi:nodetypes="ccccccccc" /><path
         style="fill:#ba4b00;fill-opacity:1;stroke-width:0.264583"
         d="m 311.91082,505.87326 16.59728,-1.8699 -0.70772,-17.93123 -4.97636,-0.1717 -2.30844,9.28751 -8.29762,-1.16151 1.16854,-12.0028 -6.99547,-3.96781 -2.88122,13.80722 -6.69654,-1.57835 0.34188,-14.13423 -6.53614,-6.23824 -2.75476,25.87377 12.75402,6.68441 -5.57581,98.47635 -1.45513,12.86286 6.64144,0.1014 z"
         id="path1-1"
         sodipodi:nodetypes="cccccccccccccccccc" /><path
         style="fill:#e6e6e6;stroke-width:0.494887"
         d="m 364.14848,203.77091 -27.25846,-3.57041 -41.34782,3.77278 -2.1863,5.82122 53.96336,-0.30567 18.00089,-0.50018 z"
         id="path18-8-3"
         sodipodi:nodetypes="ccccccc" /><path
         style="fill:#a05a2c;stroke-width:0.264583"
         d="m 235.47152,339.18929 13.60933,0.26685"
         id="path3" /><path
         style="fill:#a05a2c;stroke-width:0.198528"
         d="m 255.56094,339.76066 11.86192,-1.3942 -4.11671,-58.51827 19.63494,-1.46622 -1.63306,-13.68912 -19.43252,1.66547 -0.66143,-13.32677 -13.03598,0.83256 0.63443,12.90409 -16.78754,1.49655 1.09328,14.14802 17.54324,-1.54482 z"
         id="path4"
         sodipodi:nodetypes="ccccccccccccc" /><path
         style="fill:#b3b3b3;stroke-width:0.499584"
         d="m 327.49599,288.89343 0.37901,-16.62851 -17.5433,-0.61714 -21.06752,-16.30414 3.65119,21.26899 12.70356,10.96156 z"
         id="path18"
         sodipodi:nodetypes="ccccccc" /><path
         style="fill:#cccccc;stroke-width:0.510472"
         d="m 326.82895,289.12703 0.83348,-16.91001 19.98082,-0.85057 22.15548,-19.03482 -4.97834,25.54412 -11.77584,10.87619 z"
         id="path18-6"
         sodipodi:nodetypes="ccccccc" /><path
         style="fill:#b3b3b3;stroke-width:0.198962"
         d="m 327.58805,258.75574 0.68618,4.61669 -12.37785,0.9167 -10.05259,4.56725 -7.47968,-1.13282 16.58308,-8.12592 z"
         id="path18-8"
         sodipodi:nodetypes="ccccccc" /><path
         style="fill:#cccccc;stroke-width:0.236036"
         d="m 327.53307,258.75681 0.0549,4.71696 24.40375,6.98002 6.02598,0.0874 6.1218,-3.34791 -14.5288,-5.9928 z"
         id="path18-6-7"
         sodipodi:nodetypes="ccccccc" /></g><g
       inkscape:label="Warstwa 1"
       id="layer1-4-5"
       transform="translate(-219.9045,28.683068)"><path
         style="display:inline;fill:#f6b283;fill-opacity:1;stroke-width:0.203917"
         d="m 591.62595,23.033856 1.3083,-53.454188 2.28943,-44.736962 10.28305,0.10157 16.56178,-0.143962 5.66634,0.669324 8.51515,14.72141 0.90993,17.65677 -2.81899,14.14166 -3.08582,14.141658 -7.05109,9.2819695 -7.39607,15.2511505 2.62951,23.75604 -17.34159,0.0192 -8.51162,-0.13367 -2.8687,-0.23487 z"
         id="path10-77"
         sodipodi:nodetypes="ccccccccccccccccc" /><path
         style="display:inline;fill:#e2a175;fill-opacity:1;stroke-width:0.203133"
         d="m 573.16541,10.545916 -5.48619,-16.0801105 -6.97424,-6.5320395 -6.51848,-16.823988 -0.12842,-15.1095 0.12842,-7.75355 3.01309,-8.57052 4.74762,-14.574628 3.22774,-0.140594 29.7217,-0.205511 0.45457,0.108832 -0.12176,7.367522 -2.30095,61.0532265 -0.68892,15.43665 -1.16567,25.5078505 -2.55354,0.0108 -3.67644,0.0303 -15.34321,0.0896 z"
         id="path11-7"
         sodipodi:nodetypes="ccccccccccccccccccc" /><path
         style="fill:#660505;fill-opacity:1;stroke-width:0.206295"
         d="m 565.66647,14.082376 19.94977,0.59099 6.86708,20.61921 -0.20883,19.66883 -49.60249,0.96214 z"
         id="path12-37"
         sodipodi:nodetypes="cccccc" /><path
         style="fill:#7a2727;fill-opacity:1;stroke-width:0.206295"
         d="m 602.502,13.751196 21.36494,0.11584 15.05502,41.47601 -47.66841,-0.0843 -0.18209,-23.28234 z"
         id="path12-3-08"
         sodipodi:nodetypes="cccccc" /><rect
         style="fill:#000000;stroke-width:0.290894"
         id="rect12-7"
         width="4.6698699"
         height="14.192745"
         x="611.48456"
         y="-54.894234" /><rect
         style="fill:#000000;stroke-width:0.238723"
         id="rect13-3"
         width="5.7372684"
         height="12.165227"
         x="571.99078"
         y="-53.559967" /><path
         style="fill:#000000;stroke-width:0.264583"
         d="m 570.57204,-11.329564 16.03875,9.1515195"
         id="path14-4" /><rect
         style="fill:#000000;stroke-width:0.264583"
         id="rect15-8"
         width="21.081125"
         height="3.0687716"
         x="582.93164"
         y="-16.067581" /><rect
         style="fill:#000000;stroke-width:0.264583"
         id="rect16-02"
         width="21.322109"
         height="3.0190597"
         x="565.2887"
         y="-60.389282" /><rect
         style="fill:#000000;stroke-width:0.264583"
         id="rect17-7"
         width="22.454258"
         height="3.2077508"
         x="602.27216"
         y="-62.087502" /><path
         style="fill:#e6e6e6;stroke-width:0.494887"
         d="m 629.39353,-79.903381 -27.25846,-3.570411 -41.34782,3.772775 -2.1863,5.821218 53.96336,-0.305662 18.00089,-0.500181 z"
         id="path18-8-3-5"
         sodipodi:nodetypes="ccccccc" /><path
         style="fill:#a05a2c;stroke-width:0.264583"
         d="m 13.342485,216.4151 13.609336,0.26685"
         id="path3-6" /><path
         style="fill:#b3b3b3;stroke-width:0.499584"
         d="m 591.32169,13.735266 1.79836,-25.14464 -17.5433,-0.61714 -21.06752,-16.304138 3.47377,30.1399575 12.70356,10.9615605 z"
         id="path18-99"
         sodipodi:nodetypes="ccccccc" /><path
         style="fill:#cccccc;stroke-width:0.510472"
         d="m 591.36432,13.791446 1.54316,-25.24872 19.98082,-0.85057 22.15548,-19.034818 -5.68802,33.8828275 -11.77584,10.8761905 z"
         id="path18-6-6"
         sodipodi:nodetypes="ccccccc" /><path
         style="fill:#b3b3b3;stroke-width:0.198962"
         d="m 592.8331,-24.918552 0.68618,4.61669 -12.37785,0.9167 -10.0526,4.56725 -7.47967,-1.13282 16.58308,-8.12592 z"
         id="path18-8-2"
         sodipodi:nodetypes="ccccccc" /><path
         style="fill:#cccccc;stroke-width:0.236036"
         d="m 592.77812,-24.917482 0.0549,4.71696 24.40375,6.980018 6.02598,0.0874 6.1218,-3.347908 -14.5288,-5.9928 z"
         id="path18-6-7-2"
         sodipodi:nodetypes="ccccccc" /><path
         style="display:inline;fill:#f6b283;fill-opacity:1;stroke-width:0.203917"
         d="m 712.44675,492.82447 1.3083,-53.45419 2.28943,-44.73696 10.28305,0.10157 16.56178,-0.14396 5.66634,0.66932 8.51515,14.72141 0.90993,17.65677 -2.81899,14.14166 -3.08582,14.14166 -15.08017,14.04924 -1.62517,11.98933 4.88769,22.25059 -17.34159,0.0192 -8.51162,-0.13367 -2.8687,-0.23487 z"
         id="path10-77-2"
         sodipodi:nodetypes="ccccccccccccccccc" /><path
         style="display:inline;fill:#e2a175;fill-opacity:1;stroke-width:0.203133"
         d="m 693.98621,480.33653 0.0338,-9.30557 -12.99605,-10.29567 -6.01666,-19.8349 -0.12842,-15.1095 0.12842,-7.75355 3.01309,-8.57052 4.74762,-14.57463 3.22774,-0.14059 29.7217,-0.20551 0.45457,0.10883 -0.12176,7.36752 -2.30095,61.05323 -0.68892,15.43665 -1.16567,25.50785 -2.55354,0.0108 -3.67644,0.0303 -15.34321,0.0896 z"
         id="path11-7-8"
         sodipodi:nodetypes="ccccccccccccccccccc" /><path
         style="fill:#660505;fill-opacity:1;stroke-width:0.206295"
         d="m 686.48727,483.87299 19.94977,0.59099 6.86708,20.61921 -0.20883,19.66883 -49.60249,0.96214 z"
         id="path12-37-9"
         sodipodi:nodetypes="cccccc" /><path
         style="fill:#7a2727;fill-opacity:1;stroke-width:0.206295"
         d="m 723.3228,483.54181 21.36494,0.11584 15.05502,41.47601 -47.66841,-0.0843 -0.18209,-23.28234 z"
         id="path12-3-08-0"
         sodipodi:nodetypes="cccccc" /><rect
         style="fill:#000000;stroke-width:0.290894"
         id="rect12-7-7"
         width="4.6698699"
         height="14.192745"
         x="732.30536"
         y="414.89639" /><rect
         style="fill:#000000;stroke-width:0.238723"
         id="rect13-3-1"
         width="5.7372684"
         height="12.165227"
         x="692.81158"
         y="416.23065" /><path
         style="fill:#000000;stroke-width:0.264583"
         d="m 691.39284,458.46105 16.03875,9.15152"
         id="path14-4-7" /><rect
         style="fill:#000000;stroke-width:0.264583"
         id="rect15-8-9"
         width="21.081125"
         height="3.0687716"
         x="703.75244"
         y="453.72302" /><rect
         style="fill:#000000;stroke-width:0.264583"
         id="rect16-02-8"
         width="21.322109"
         height="3.0190597"
         x="686.1095"
         y="409.40134" /><rect
         style="fill:#000000;stroke-width:0.264583"
         id="rect17-7-9"
         width="22.454258"
         height="3.2077508"
         x="723.09296"
         y="407.70312" /><path
         style="fill:#e6e6e6;stroke-width:0.494887"
         d="m 750.21433,389.88723 -27.25846,-3.57041 -41.34782,3.77278 -2.1863,5.82121 53.96336,-0.30566 18.00089,-0.50018 z"
         id="path18-8-3-5-8"
         sodipodi:nodetypes="ccccccc" /><path
         style="fill:#b3b3b3;stroke-width:0.198962"
         d="m 713.6539,444.87206 0.68618,4.61669 -12.37785,0.9167 -10.0526,4.56725 -7.47967,-1.13282 16.58308,-8.12592 z"
         id="path18-8-2-5"
         sodipodi:nodetypes="ccccccc" /><path
         style="fill:#cccccc;stroke-width:0.236036"
         d="m 713.59892,444.87313 0.0549,4.71696 24.40375,6.98002 6.02598,0.0874 6.1218,-3.34791 -14.5288,-5.9928 z"
         id="path18-6-7-2-9"
         sodipodi:nodetypes="ccccccc" /><path
         style="display:inline;fill:#f7bc93;fill-opacity:1;stroke-width:0.211394"
         d="m 757.65714,170.16267 1.38285,-54.34831 2.41993,-45.48527 10.86913,0.103269 17.5057,-0.14637 5.9893,0.680519 3.98228,14.967653 1.96543,18.955749 1.03487,13.37457 -3.26169,14.3782 -15.93966,15.81487 -1.71779,10.65924 5.16626,22.62278 -18.32996,0.0195 -8.99674,-0.1359 -3.0322,-0.2388 z"
         id="path10-77-2-5"
         sodipodi:nodetypes="ccccccccccccccccc" /><path
         style="display:inline;fill:#e2a175;fill-opacity:1;stroke-width:0.216865"
         d="m 737.19632,157.24712 0.0376,-9.54641 -14.43885,-10.56213 -6.68462,-20.34824 2.86824,-12.48964 0.64448,-8.456032 2.34397,-10.799602 2.76561,-15.453649 3.58607,-0.144233 33.02135,-0.21083 0.50503,0.111649 -0.13528,7.558199 -2.55639,62.633338 -0.76541,15.83616 -1.29508,26.16801 -2.83703,0.0111 -4.08459,0.0311 -17.04658,0.0919 z"
         id="path11-7-8-8"
         sodipodi:nodetypes="ccccccccccccccccccc" /><path
         style="fill:#312222;fill-opacity:1;stroke-width:0.220272"
         d="m 728.66843,159.98261 22.74458,0.59099 7.8291,20.61921 -0.23808,19.66883 -46.2611,0.25246 z"
         id="path12-37-9-0"
         sodipodi:nodetypes="cccccc" /><path
         style="fill:#493333;fill-opacity:1;stroke-width:0.220272"
         d="m 770.66433,159.65143 24.358,0.11584 10.77702,41.47601 -47.95929,-0.0843 -0.2076,-23.28234 z"
         id="path12-3-08-0-1"
         sodipodi:nodetypes="cccccc" /><rect
         style="fill:#000000;stroke-width:0.290894"
         id="rect12-7-7-0"
         width="4.6698699"
         height="14.192745"
         x="778.00708"
         y="91.006004" /><rect
         style="fill:#000000;stroke-width:0.238723"
         id="rect13-3-1-7"
         width="5.7372684"
         height="12.165227"
         x="738.51331"
         y="92.340271" /><path
         style="fill:#000000;stroke-width:0.264583"
         d="m 737.09459,134.57067 16.03875,9.15152"
         id="path14-4-7-1" /><rect
         style="fill:#000000;stroke-width:0.264583"
         id="rect15-8-9-3"
         width="21.081125"
         height="3.0687716"
         x="749.45416"
         y="129.83266" /><rect
         style="fill:#000000;stroke-width:0.264583"
         id="rect16-02-8-2"
         width="21.322109"
         height="3.0190597"
         x="719.81683"
         y="-160.37991"
         transform="rotate(18.954859)" /><rect
         style="fill:#000000;stroke-width:0.264583"
         id="rect17-7-9-5"
         width="22.454258"
         height="3.2077508"
         x="692.64203"
         y="345.23654"
         transform="rotate(-19.983057)" /><path
         style="fill:#686868;fill-opacity:1;stroke-width:0.494887"
         d="m 795.91609,65.996853 -27.25847,-3.570411 -41.34782,3.772775 -2.1863,5.821218 53.96336,-0.305662 18.0009,-0.500181 z"
         id="path18-8-3-5-8-0"
         sodipodi:nodetypes="ccccccc" /><path
         style="fill:#9c2b1a;fill-opacity:1;stroke-width:0.362812"
         d="m 361.23607,50.030848 -20.68493,-3.374286 -31.64475,1.345934 -1.83731,4.026115 41.16501,1.492376 13.7433,0.217669 z"
         id="path18-8-3-5-8-0-3"
         sodipodi:nodetypes="ccccccc" /><path
         style="fill:#686868;fill-opacity:1;stroke-width:0.198962"
         d="m 759.35566,120.98168 0.68617,4.61669 -12.37785,0.9167 -10.0526,4.56725 -7.47967,-1.13282 16.58308,-8.12592 z"
         id="path18-8-2-5-8"
         sodipodi:nodetypes="ccccccc" /><path
         style="fill:#797979;fill-opacity:1;stroke-width:0.236036"
         d="m 759.30068,120.98275 0.0549,4.71696 24.40375,6.98002 6.02598,0.0874 6.1218,-3.34791 -14.52879,-5.9928 z"
         id="path18-6-7-2-9-3"
         sodipodi:nodetypes="ccccccc" /><path
         style="fill:#724f4f;fill-opacity:1;stroke:none;stroke-width:2.319;stroke-linecap:round;stroke-linejoin:round;stroke-miterlimit:10.1;stroke-dasharray:none;stroke-opacity:1;paint-order:fill markers stroke"
         d="m 819.3621,146.48427 2.25818,13.04726 -6.02181,13.54908 5.26908,4.26545 8.02909,-12.04363 v -12.04362 z"
         id="path7" /><path
         style="fill:#642e2e;fill-opacity:1;stroke:none;stroke-width:2.319;stroke-linecap:round;stroke-linejoin:round;stroke-miterlimit:10.1;stroke-dasharray:none;stroke-opacity:1;paint-order:fill markers stroke"
         d="m 816.97847,173.45697 -4.39091,-3.26182 -1.63091,2.38364 11.2909,8.40545 2.00727,-2.88546 z"
         id="path8" /><path
         style="fill:#642e2e;fill-opacity:1;stroke:none;stroke-width:2.319;stroke-linecap:round;stroke-linejoin:round;stroke-miterlimit:10.1;stroke-dasharray:none;stroke-opacity:1;paint-order:fill markers stroke"
         d="m 811.33302,181.23514 4.3909,-6.39817 2.50909,1.75636 -4.51636,6.02181 z"
         id="path9" /><path
         style="fill:#5b3f3f;fill-opacity:1;stroke:none;stroke-width:2.319;stroke-linecap:round;stroke-linejoin:round;stroke-miterlimit:10.1;stroke-dasharray:none;stroke-opacity:1;paint-order:fill markers stroke"
         d="m 817.48028,173.70788 7.02545,-11.79272 1.38,1.12909 -6.89999,11.2909 z"
         id="path13" /><path
         style="display:inline;fill:#f7bc93;fill-opacity:1;stroke-width:0.217702"
         d="m 328.11347,151.99282 1.45354,-54.837625 2.5436,-45.89479 11.42466,0.104198 15.56172,1.626507 6.65025,1.751162 8.7508,12.973379 4.2045,17.404064 1.12611,16.281855 -3.69714,19.29276 -20.74366,9.39795 -1.80559,10.75521 5.43031,22.82646 -19.26682,0.0197 -9.45656,-0.13712 -3.18718,-0.24095 z"
         id="path10-77-2-1"
         sodipodi:nodetypes="ccccccccccccccccc" /><path
         style="display:inline;fill:#e2a175;fill-opacity:1;stroke-width:0.216865"
         d="m 307.60348,139.18168 0.0376,-9.54641 -17.69328,-7.65515 -3.43019,-23.255215 3.05088,-15.145707 2.62654,-9.373573 2.99276,-8.437492 c 0,0 11.17207,-13.737222 11.34464,-14.031548 l 25.2149,-0.565669 0.50503,0.111649 -0.13528,7.558199 -2.55639,62.633336 -0.76541,15.83616 -1.29508,26.16801 -2.83703,0.0111 -4.08459,0.0311 -17.04658,0.0919 z"
         id="path11-7-8-1"
         sodipodi:nodetypes="cccccccccccccccccc" /><path
         style="fill:#246c27;fill-opacity:1;stroke-width:0.220272"
         d="m 299.07559,141.91717 22.74458,0.59099 7.8291,20.61921 -0.23808,19.66883 -46.2611,0.25246 z"
         id="path12-37-9-6"
         sodipodi:nodetypes="cccccc" /><path
         style="fill:#850b00;fill-opacity:1;stroke-width:0.220272"
         d="m 341.07149,141.58599 24.358,0.11584 10.77702,41.47601 -47.95929,-0.0843 -0.2076,-23.28234 z"
         id="path12-3-08-0-3"
         sodipodi:nodetypes="cccccc" /><rect
         style="fill:#000000;stroke-width:0.290894"
         id="rect12-7-7-7"
         width="4.6698699"
         height="14.192745"
         x="348.41428"
         y="72.940567" /><rect
         style="fill:#000000;stroke-width:0.238723"
         id="rect13-3-1-5"
         width="5.7372684"
         height="12.165227"
         x="308.9205"
         y="74.274826" /><path
         style="fill:#000000;stroke-width:0.264583"
         d="m 307.50175,116.50523 16.03875,9.15152"
         id="path14-4-7-4" /><rect
         style="fill:#000000;stroke-width:0.264583"
         id="rect15-8-9-0"
         width="21.081125"
         height="3.0687716"
         x="319.86136"
         y="111.76722" /><rect
         style="fill:#000000;stroke-width:0.264583"
         id="rect16-02-8-8"
         width="21.322109"
         height="3.0190597"
         x="308.73401"
         y="23.692533"
         transform="rotate(7.9170401)" /><rect
         style="fill:#000000;stroke-width:0.264583"
         id="rect17-7-9-1"
         width="22.454258"
         height="3.2077508"
         x="328.96463"
         y="106.12825"
         transform="rotate(-6.6926056)" /><path
         style="fill:#363636;fill-opacity:1;stroke-width:0.198962"
         d="m 329.76281,102.91624 0.68618,4.6167 -11.13591,0.73928 0.47016,-4.86891 z"
         id="path18-8-2-5-1"
         sodipodi:nodetypes="ccccc" /><path
         style="fill:#515151;fill-opacity:1;stroke-width:0.236036"
         d="m 329.70783,102.91731 0.0549,4.71697 12.33923,2.18969 0.28027,-5.70492 z"
         id="path18-6-7-2-9-5"
         sodipodi:nodetypes="ccccc" /><path
         style="fill:#515151;fill-opacity:1;stroke:none;stroke-width:2.319;stroke-linecap:round;stroke-linejoin:round;stroke-miterlimit:10.1;stroke-dasharray:none;stroke-opacity:1;paint-order:fill markers stroke"
         d="m 351.63165,130.39315 -9.78545,0.50181 -5.7709,3.51273 -2.50909,4.76727 1.00364,5.26908 2.25818,0.25091 -1.25455,-4.26545 1.75636,-4.26545 5.26909,-1.50545 3.76363,0.25091 -2.76,1.50545 -1.25454,2.76 1.25454,1.50545 2.76,-4.01454 3.01091,-0.50182 2.00727,2.50909 -0.75273,-4.01454 1.00364,-2.25818 1.50545,-0.75273 z"
         id="path15" /><path
         style="fill:#333333;fill-opacity:1;stroke:none;stroke-width:2.319;stroke-linecap:round;stroke-linejoin:round;stroke-miterlimit:10.1;stroke-dasharray:none;stroke-opacity:1;paint-order:fill markers stroke"
         d="m 347.11529,130.76951 -3.38727,2.38363 -1.88182,2.38364 v 3.0109 l 1.25455,-2.75999 2.38363,-1.50546 v 2.63455 l 1.50545,2.75999 0.87819,-6.27272 5.39454,1.00364 z"
         id="path16" /><path
         style="fill:#333333;fill-opacity:1;stroke:none;stroke-width:2.319;stroke-linecap:round;stroke-linejoin:round;stroke-miterlimit:10.1;stroke-dasharray:none;stroke-opacity:1;paint-order:fill markers stroke"
         d="m 332.74321,131.74838 -2.12903,4.74597 0.17742,4.08064 0.17741,6.74194 1.10887,-5.5 1.37501,-1.95161 3.37096,-0.17742 -2.30645,-1.95161 3.72581,-3.19355 -2.88306,-0.0887 -2.43952,1.90726 1.77419,-5.72178 z"
         id="path17"
         sodipodi:nodetypes="ccccccccccccc" /><path
         style="fill:#9c2b1a;fill-opacity:1;stroke-width:0.362812"
         d="m 763.46178,228.59229 -20.68493,-3.37429 -31.64475,1.34594 -1.83731,4.02611 41.16501,1.49238 13.7433,0.21767 z"
         id="path18-8-3-5-8-0-3-0"
         sodipodi:nodetypes="ccccccc" /><path
         style="display:inline;fill:#f7bc93;fill-opacity:1;stroke-width:0.217702"
         d="m 730.33918,330.55426 1.45354,-54.83763 2.5436,-45.89479 11.42466,0.1042 15.56172,1.62651 6.65025,1.75116 8.7508,12.97338 4.2045,17.40406 1.12611,16.28186 -3.69714,19.29276 -20.74366,9.39795 -1.80559,10.75521 5.43031,22.82646 -19.26682,0.0197 -9.45656,-0.13712 -3.18718,-0.24095 z"
         id="path10-77-2-1-8"
         sodipodi:nodetypes="ccccccccccccccccc" /><path
         style="display:inline;fill:#e2a175;fill-opacity:1;stroke-width:0.216865"
         d="m 709.82919,317.74312 0.0376,-9.54641 -17.69328,-7.65515 -3.43019,-23.25522 3.05088,-15.1457 2.62654,-9.37358 2.99276,-8.43749 c 0,0 11.17207,-13.73722 11.34464,-14.03155 l 25.2149,-0.56566 0.50503,0.11164 -0.13528,7.5582 -2.55639,62.63334 -0.76541,15.83616 -1.29508,26.16801 -2.83703,0.0111 -4.08459,0.0311 -17.04658,0.0919 z"
         id="path11-7-8-1-8"
         sodipodi:nodetypes="cccccccccccccccccc" /><path
         style="fill:#246c27;fill-opacity:1;stroke-width:0.220272"
         d="m 701.3013,320.47861 22.74458,0.59099 7.8291,20.61921 -0.23808,19.66883 -46.2611,0.25246 z"
         id="path12-37-9-6-2"
         sodipodi:nodetypes="cccccc" /><path
         style="fill:#850b00;fill-opacity:1;stroke-width:0.220272"
         d="m 743.2972,320.14743 24.358,0.11584 10.77702,41.47601 -47.95929,-0.0843 -0.2076,-23.28234 z"
         id="path12-3-08-0-3-5"
         sodipodi:nodetypes="cccccc" /><rect
         style="fill:#000000;stroke-width:0.290894"
         id="rect12-7-7-7-2"
         width="4.6698699"
         height="14.192745"
         x="750.64001"
         y="251.50201" /><rect
         style="fill:#000000;stroke-width:0.238723"
         id="rect13-3-1-5-8"
         width="5.7372684"
         height="12.165227"
         x="711.14624"
         y="252.83627" /><path
         style="fill:#000000;stroke-width:0.264583"
         d="m 709.72746,295.06667 16.03875,9.15152"
         id="path14-4-7-4-1" /><rect
         style="fill:#000000;stroke-width:0.264583"
         id="rect15-8-9-0-2"
         width="21.081125"
         height="3.0687716"
         x="722.0871"
         y="290.32867" /><rect
         style="fill:#000000;stroke-width:0.264583"
         id="rect16-02-8-8-3"
         width="21.322109"
         height="3.0190597"
         x="731.72076"
         y="145.14983"
         transform="rotate(7.9170401)" /><rect
         style="fill:#000000;stroke-width:0.264583"
         id="rect17-7-9-1-5"
         width="22.454258"
         height="3.2077508"
         x="707.63947"
         y="330.34933"
         transform="rotate(-6.6926056)" /><path
         style="fill:#363636;fill-opacity:1;stroke-width:0.198962"
         d="m 731.98852,281.47768 0.68618,4.6167 -11.13591,0.73928 0.47016,-4.86891 z"
         id="path18-8-2-5-1-3"
         sodipodi:nodetypes="ccccc" /><path
         style="fill:#515151;fill-opacity:1;stroke-width:0.236036"
         d="m 731.93354,281.47875 0.0549,4.71697 12.33923,2.18969 0.28027,-5.70492 z"
         id="path18-6-7-2-9-5-9"
         sodipodi:nodetypes="ccccc" /><path
         style="fill:#515151;fill-opacity:1;stroke:none;stroke-width:2.319;stroke-linecap:round;stroke-linejoin:round;stroke-miterlimit:10.1;stroke-dasharray:none;stroke-opacity:1;paint-order:fill markers stroke"
         d="m 753.85736,308.95459 -9.78545,0.50181 -5.7709,3.51273 -2.50909,4.76727 1.00364,5.26908 2.25818,0.25091 -1.25455,-4.26545 1.75636,-4.26545 5.26909,-1.50545 3.76363,0.25091 -2.76,1.50545 -1.25454,2.76 1.25454,1.50545 2.76,-4.01454 3.01091,-0.50182 2.00727,2.50909 -0.75273,-4.01454 1.00364,-2.25818 1.50545,-0.75273 z"
         id="path15-2" /><path
         style="fill:#333333;fill-opacity:1;stroke:none;stroke-width:2.319;stroke-linecap:round;stroke-linejoin:round;stroke-miterlimit:10.1;stroke-dasharray:none;stroke-opacity:1;paint-order:fill markers stroke"
         d="m 749.341,309.33095 -3.38727,2.38363 -1.88182,2.38364 v 3.0109 l 1.25455,-2.75999 2.38363,-1.50546 v 2.63455 l 1.50545,2.75999 0.87819,-6.27272 5.39454,1.00364 z"
         id="path16-1" /><path
         style="fill:#333333;fill-opacity:1;stroke:none;stroke-width:2.319;stroke-linecap:round;stroke-linejoin:round;stroke-miterlimit:10.1;stroke-dasharray:none;stroke-opacity:1;paint-order:fill markers stroke"
         d="m 734.96892,310.30982 -2.12903,4.74597 0.17742,4.08064 0.17741,6.74194 1.10887,-5.5 1.37501,-1.95161 3.37096,-0.17742 -2.30645,-1.95161 3.72581,-3.19355 -2.88306,-0.0887 -2.43952,1.90726 1.77419,-5.72178 z"
         id="path17-2"
         sodipodi:nodetypes="ccccccccccccc" /></g><g
       inkscape:label="Warstwa 1"
       id="layer1-8"
       transform="translate(-355.72964,-2.4968306)"><path
         style="display:inline;fill:#c8beb7;stroke-width:0.203917"
         d="m 108.22926,155.3145 1.3083,-53.45419 2.28943,-44.736962 10.28305,0.10157 16.56178,-0.143962 8.60169,0.0022 4.24555,16.322514 4.24555,16.322513 -0.15049,14.141667 -0.15048,14.14166 -1.33507,10.86017 -14.57976,14.07322 -3.50803,23.75604 -17.34159,0.0192 -8.51162,-0.13367 -2.8687,-0.23487 z"
         id="path10-9"
         sodipodi:nodetypes="ccccccccccccccccc" /><path
         style="display:inline;fill:#917c6f;stroke-width:0.203133"
         d="m 83.364333,142.02601 -12.982503,-11.91549 -0.0013,-1.34303 c -7.94e-4,-0.73866 -0.297087,-9.7567 -0.658421,-20.04008 C 69.360778,98.444025 69.062821,89.243108 69.059987,88.280919 l -0.0052,-1.749432 4.747619,-14.574633 4.74762,-14.574632 3.227739,-0.140594 c 10.075839,-0.438883 28.222855,-0.564363 29.721695,-0.205511 l 0.45457,0.108832 -0.12176,7.367522 c -0.16334,9.882889 -1.00337,32.172185 -2.30095,61.053229 -0.25668,5.71298 -0.56669,12.65948 -0.68892,15.43665 l -1.16567,25.50785 -2.55354,0.0108 -3.67644,0.0303 -15.343211,0.0896 z"
         id="path11-5"
         sodipodi:nodetypes="cccsccccsscsssccccc" /><path
         style="fill:#4d4d4d;stroke-width:0.206295"
         d="m 82.269782,146.36302 19.949768,0.59099 6.86708,20.61921 -0.20883,19.66883 -49.602493,0.96214 z"
         id="path12-7"
         sodipodi:nodetypes="cccccc" /><path
         style="fill:#808080;stroke-width:0.206295"
         d="m 119.10531,146.03184 21.36494,0.11584 15.05502,41.47601 -47.66841,-0.0843 -0.18209,-23.28234 z"
         id="path12-3-9"
         sodipodi:nodetypes="cccccc" /><rect
         style="fill:#000000;stroke-width:0.320343"
         id="rect12-2"
         width="4.6698699"
         height="17.211805"
         x="128.08786"
         y="77.386414" /><rect
         style="fill:#000000;stroke-width:0.347321"
         id="rect13-0"
         width="5.7372684"
         height="25.750996"
         x="88.594109"
         y="78.720665" /><path
         style="fill:#000000;stroke-width:0.264583"
         d="M 87.175349,120.95108 103.2141,130.1026"
         id="path14-0" /><rect
         style="fill:#000000;stroke-width:0.264583"
         id="rect15-3"
         width="21.081125"
         height="3.0687716"
         x="98.193985"
         y="124.60401" /><rect
         style="fill:#000000;stroke-width:0.264583"
         id="rect16-0"
         width="21.322109"
         height="3.0190597"
         x="81.891998"
         y="71.891357" /><rect
         style="fill:#000000;stroke-width:0.264583"
         id="rect17-8"
         width="22.454258"
         height="3.2077508"
         x="118.87548"
         y="70.193138" /><path
         style="fill:#b3b3b3;stroke-width:0.543294"
         d="m 107.932,148.89202 0.66852,-19.44467 -17.675881,-0.91239 -20.933333,-12.44417 -0.481209,15.19275 16.007605,12.19906 z"
         id="path18-9"
         sodipodi:nodetypes="ccccccc" /><path
         style="fill:#cccccc;stroke-width:0.543294"
         d="m 107.71675,149.21046 0.57623,-19.50658 23.58415,-0.93476 23.73958,-16.62431 -1.45767,17.9768 -13.9025,12.63088 z"
         id="path18-6-3"
         sodipodi:nodetypes="ccccccc" /><path
         style="fill:#b3b3b3;stroke-width:0.236036"
         d="m 109.73226,116.96782 0.82419,5.40949 -14.86747,1.07412 -12.074545,5.35155 -10.506594,-2.26537 21.441032,-8.58332 z"
         id="path18-8-4"
         sodipodi:nodetypes="ccccccc" /><path
         style="fill:#cccccc;stroke-width:0.236036"
         d="m 109.57943,116.87454 0.76244,5.42456 23.93202,6.36677 6.02598,0.0874 11.12523,-3.34791 -19.53223,-5.9928 z"
         id="path18-6-7-3"
         sodipodi:nodetypes="ccccccc" /><path
         style="fill:#b3b3b3;stroke-width:0.43442"
         d="M 146.72271,54.845508 119.9197,52.047535 79.262767,55.004092 77.112999,59.565924 130.17468,59.32639 147.8748,58.93442 Z"
         id="path18-8-3-7"
         sodipodi:nodetypes="ccccccc" /></g><g
       inkscape:label="Warstwa 1"
       id="layer1-9"
       transform="translate(5.6147241,27.412809)"><path
         style="display:inline;fill:#e9c6af;stroke-width:0.203917"
         d="m -115.8473,311.9678 1.3083,-53.45419 2.28943,-44.73697 10.28305,0.10157 16.561777,-0.14396 5.66634,0.66933 4.5124,16.32251 4.91268,16.05566 -0.15049,14.14167 -0.15048,14.14166 -8.91903,12.21732 -4.99443,12.3158 -3.50803,23.75604 -17.341587,0.0192 -8.51162,-0.13367 -2.8687,-0.23487 z"
         id="path10-7"
         sodipodi:nodetypes="ccccccccccccccccc" /><path
         style="display:inline;fill:#deaa87;stroke-width:0.203133"
         d="m -140.71223,298.67931 -7.88784,-14.74586 -2.17095,-6.53204 -4.38368,-17.89139 0.13843,-14.5758 0.66212,-7.75355 4.08049,-8.57052 4.74762,-14.57463 3.22774,-0.1406 29.7217,-0.20551 0.45457,0.10884 -0.12176,7.36752 -2.30095,61.05323 -0.68892,15.43665 -1.16567,25.50785 -2.55354,0.0108 -3.67644,0.0303 -15.34321,0.0896 z"
         id="path11-58"
         sodipodi:nodetypes="ccccccccccccccccccc" /><path
         style="fill:#6c5d53;stroke-width:0.206295"
         d="m -141.80678,303.01632 19.94977,0.59099 6.86708,20.61921 -0.20883,19.66883 -49.60249,0.96214 z"
         id="path12-6"
         sodipodi:nodetypes="cccccc" /><path
         style="fill:#917c6f;stroke-width:0.206295"
         d="m -104.97125,302.68514 21.364937,0.11584 15.05502,41.47601 -47.668407,-0.0843 -0.18209,-23.28234 z"
         id="path12-3-0"
         sodipodi:nodetypes="cccccc" /><rect
         style="fill:#000000;stroke-width:0.290894"
         id="rect12-5"
         width="4.6698699"
         height="14.192745"
         x="-95.988701"
         y="234.03972" /><rect
         style="fill:#000000;stroke-width:0.238723"
         id="rect13-5"
         width="5.7372684"
         height="12.165227"
         x="-135.48247"
         y="235.37396" /><path
         style="fill:#000000;stroke-width:0.264583"
         d="m -136.90121,277.60438 16.03875,9.15152"
         id="path14-6" /><rect
         style="fill:#000000;stroke-width:0.264583"
         id="rect15-4"
         width="21.081125"
         height="3.0687716"
         x="-124.27478"
         y="278.06992" /><rect
         style="fill:#000000;stroke-width:0.264583"
         id="rect16-6"
         width="21.322109"
         height="3.0190597"
         x="-142.18457"
         y="228.54466" /><rect
         style="fill:#000000;stroke-width:0.264583"
         id="rect17-2"
         width="22.454258"
         height="3.2077508"
         x="-105.2011"
         y="226.84644" /><path
         style="fill:#a05a2c;stroke-width:0.43442"
         d="m -69.218863,213.8586 4.23049,-5.12622 -46.150057,-7.67354 -2.15998,14.26492 32.334817,1.81489 13.72007,5.27443 14.65404,6.47526 -8.31469,-7.51487 z"
         id="path18-8-3-0"
         sodipodi:nodetypes="ccccccccc" /><path
         style="fill:#784421;stroke-width:0.43442"
         d="m -110.93086,201.16778 -24.8649,3.1994 -0.18417,3.79699 -13.20386,2.28747 -6.87418,7.49937 9.07023,-5.14295 -14.95107,10.95353 14.9361,-5.05745 33.91187,-3.27143 z"
         id="path18-8-3-1"
         sodipodi:nodetypes="cccccccccc" /><path
         style="fill:#130c07;fill-opacity:1;stroke-width:0.94641;stroke-linecap:round;stroke-linejoin:round;stroke-miterlimit:10.1;paint-order:fill markers stroke"
         d="m -155.33196,427.54748 -9.78545,113.58144 51.15228,-0.13878 3.22182,-120.75624 -39.31957,0.94766 z"
         id="path5"
         sodipodi:nodetypes="cccccc" /><path
         style="fill:#814920;fill-opacity:1;stroke-width:0.826996;stroke-linecap:round;stroke-linejoin:round;stroke-miterlimit:10.1;paint-order:fill markers stroke"
         d="m -65.782598,427.16226 7.45638,113.81716 -38.97738,-0.13907 -2.45498,-121.00685 29.961,0.94962 z"
         id="path5-5"
         sodipodi:nodetypes="cccccc" /><path
         style="fill:none;fill-opacity:1;stroke:#d8d836;stroke-width:2.319;stroke-linecap:round;stroke-linejoin:round;stroke-miterlimit:10.1;stroke-dasharray:none;stroke-opacity:1;paint-order:fill markers stroke"
         id="path6-8"
         sodipodi:type="arc"
         sodipodi:cx="-68.618843"
         sodipodi:cy="470.95798"
         sodipodi:rx="2.5090885"
         sodipodi:ry="6.8999934"
         sodipodi:start="0"
         sodipodi:end="6.2669335"
         sodipodi:open="true"
         sodipodi:arc-type="arc"
         d="m -66.109755,470.95798 a 2.5090885,6.8999934 0 0 1 -2.498894,6.89993 2.5090885,6.8999934 0 0 1 -2.5192,-6.84386 2.5090885,6.8999934 0 0 1 2.478424,-6.95555 2.5090885,6.8999934 0 0 1 2.539339,6.78734" /><path
         style="display:inline;fill:#dca47f;fill-opacity:1;stroke-width:0.203917"
         d="m -113.43523,515.50416 1.30831,-53.45419 2.28943,-44.73698 10.283042,0.10157 16.56178,-0.14396 5.66634,0.66933 4.5124,16.32251 4.91268,16.05567 -0.15049,14.14167 -0.15048,14.14166 -8.91903,12.21732 -4.99443,12.3158 -3.50803,23.75604 -17.341592,0.0192 -8.51161,-0.13367 -2.86871,-0.23487 z"
         id="path10-7-2"
         sodipodi:nodetypes="ccccccccccccccccc" /><path
         style="fill:none;fill-opacity:1;stroke:#d8d836;stroke-width:2.319;stroke-linecap:round;stroke-linejoin:round;stroke-miterlimit:10.1;stroke-dasharray:none;stroke-opacity:1;paint-order:fill markers stroke"
         id="path6"
         sodipodi:type="arc"
         sodipodi:cx="-151.06651"
         sodipodi:cy="471.50171"
         sodipodi:rx="2.5090885"
         sodipodi:ry="6.8999934"
         sodipodi:start="0"
         sodipodi:end="6.2669335"
         sodipodi:open="true"
         sodipodi:arc-type="arc"
         d="m -148.55742,471.50171 a 2.5090885,6.8999934 0 0 1 -2.4989,6.89994 2.5090885,6.8999934 0 0 1 -2.5192,-6.84387 2.5090885,6.8999934 0 0 1 2.47842,-6.95555 2.5090885,6.8999934 0 0 1 2.53934,6.78735" /><path
         style="display:inline;fill:#d49264;fill-opacity:1;stroke-width:0.203133"
         d="m -138.30016,502.21567 -7.88784,-14.74586 -2.17095,-6.53204 -4.38368,-17.89139 0.13843,-14.5758 0.66212,-7.75356 4.08049,-8.57052 4.74762,-14.57463 3.22774,-0.1406 29.72171,-0.20551 0.45457,0.10884 -0.12176,7.36752 -2.30095,61.05324 -0.68893,15.43665 -1.16567,25.50785 -2.55354,0.0108 -3.67644,0.0303 -15.34321,0.0896 z"
         id="path11-58-23"
         sodipodi:nodetypes="ccccccccccccccccccc" /><path
         style="fill:#848c12;fill-opacity:1;stroke-width:0.206295"
         d="m -139.39471,506.55268 19.94977,0.59099 6.86708,20.61921 -0.20883,19.66883 -49.60249,0.96214 z"
         id="path12-6-1"
         sodipodi:nodetypes="cccccc" /><path
         style="fill:#d8d836;fill-opacity:1;stroke-width:0.206295"
         d="m -102.55918,506.2215 21.364942,0.11584 15.05502,41.47601 -47.668412,-0.0843 -0.18209,-23.28234 z"
         id="path12-3-0-2"
         sodipodi:nodetypes="cccccc" /><rect
         style="fill:#000000;stroke-width:0.290894"
         id="rect12-5-9"
         width="4.6698699"
         height="14.192745"
         x="-93.576622"
         y="437.57605" /><rect
         style="fill:#000000;stroke-width:0.238723"
         id="rect13-5-4"
         width="5.7372684"
         height="12.165227"
         x="-133.07039"
         y="438.91031" /><path
         style="fill:#000000;stroke-width:0.264583"
         d="m -134.48914,481.14074 16.03875,9.15152"
         id="path14-6-8" /><rect
         style="fill:#000000;stroke-width:0.264583"
         id="rect15-4-1"
         width="21.081125"
         height="3.0687716"
         x="-121.8627"
         y="481.60626" /><rect
         style="fill:#000000;stroke-width:0.264583"
         id="rect16-6-4"
         width="21.322109"
         height="3.0190597"
         x="-139.77249"
         y="432.08099" /><rect
         style="fill:#000000;stroke-width:0.264583"
         id="rect17-2-8"
         width="22.454258"
         height="3.2077508"
         x="-102.78902"
         y="430.38278" /><path
         style="fill:#5e351a;fill-opacity:1;stroke-width:0.43442"
         d="m -68.312238,421.6604 -12.58041,-10.14439 -27.833702,-6.92082 -2.15998,14.26492 32.334812,1.81489 z"
         id="path18-8-3-0-3"
         sodipodi:nodetypes="cccccc" /><path
         style="fill:#392010;fill-opacity:1;stroke-width:0.43442"
         d="m -108.51878,404.70413 -27.17136,2.84456 -3.37772,5.74861 -5.50781,3.04711 -6.41314,5.39427 40.31005,-2.76962 z"
         id="path18-8-3-1-2"
         sodipodi:nodetypes="ccccccc" /><path
         style="fill:#5c341a;fill-opacity:1;stroke-width:0.818999;stroke-linecap:round;stroke-linejoin:round;stroke-miterlimit:10.1;paint-order:fill markers stroke"
         d="m 13.898475,337.56225 -9.7854453,85.0581 51.1522783,-0.10393 3.221816,-90.43112 -39.319563,0.70968 z"
         id="path5-4"
         sodipodi:nodetypes="cccccc" /><path
         style="fill:#cc7944;fill-opacity:1;stroke-width:0.71492;stroke-linecap:round;stroke-linejoin:round;stroke-miterlimit:10.1;paint-order:fill markers stroke"
         d="m 103.44785,337.16184 7.45638,85.0581 -38.977386,-0.10393 -2.45498,-90.43111 29.960995,0.70968 z"
         id="path5-5-6"
         sodipodi:nodetypes="cccccc" /><path
         style="display:inline;fill:#e9c6af;stroke-width:0.203917"
         d="m 55.795213,427.35556 1.308301,-53.45419 2.28943,-44.73697 10.28305,0.10156 16.56178,-0.14396 5.666335,0.66933 4.5124,16.32252 4.912681,16.05566 -0.15049,14.14167 -0.15048,14.14166 -8.919021,12.21732 -4.994435,12.3158 -3.50803,23.75604 -17.34159,0.0192 -8.51162,-0.13367 -2.868701,-0.23487 z"
         id="path10-7-2-2"
         sodipodi:nodetypes="ccccccccccccccccc" /><path
         style="display:inline;fill:#deaa87;stroke-width:0.203133"
         d="m 30.930283,414.06707 -7.88784,-14.74586 -2.17095,-6.53204 -4.38368,-17.89139 0.13843,-14.5758 0.66212,-7.75356 4.08049,-8.57052 4.74762,-14.57463 3.22774,-0.1406 29.721701,-0.20551 0.45457,0.10884 -0.12176,7.36752 -2.30095,61.05324 -0.688921,15.43665 -1.16567,25.50785 -2.55354,0.0108 -3.67644,0.0303 -15.34321,0.0896 z"
         id="path11-58-23-3"
         sodipodi:nodetypes="ccccccccccccccccccc" /><path
         style="fill:#782678;fill-opacity:1;stroke-width:0.206295"
         d="m 29.835733,418.40408 19.94977,0.59099 6.86708,20.61921 -0.20883,19.66883 -49.6024903,0.96214 z"
         id="path12-6-1-7"
         sodipodi:nodetypes="cccccc" /><path
         style="fill:#c549c5;fill-opacity:1;stroke-width:0.206295"
         d="m 66.671264,418.0729 21.36494,0.11584 15.055026,41.47601 -47.668417,-0.0843 -0.18209,-23.28234 z"
         id="path12-3-0-2-9"
         sodipodi:nodetypes="cccccc" /><rect
         style="fill:#000000;stroke-width:0.290894"
         id="rect12-5-9-6"
         width="4.6698699"
         height="14.192745"
         x="75.653809"
         y="349.42746" /><rect
         style="fill:#000000;stroke-width:0.238723"
         id="rect13-5-4-7"
         width="5.7372684"
         height="12.165227"
         x="36.160049"
         y="350.76172" /><path
         style="fill:#000000;stroke-width:0.264583"
         d="m 34.741303,392.99214 16.03875,9.15152"
         id="path14-6-8-6" /><rect
         style="fill:#000000;stroke-width:0.264583"
         id="rect15-4-1-9"
         width="21.081125"
         height="3.0687716"
         x="47.367737"
         y="393.45767" /><rect
         style="fill:#000000;stroke-width:0.264583"
         id="rect16-6-4-2"
         width="21.322109"
         height="3.0190597"
         x="29.457947"
         y="343.9324" /><rect
         style="fill:#000000;stroke-width:0.264583"
         id="rect17-2-8-7"
         width="22.454258"
         height="3.2077508"
         x="66.441406"
         y="342.23419" /><path
         style="fill:#a05a2c;stroke-width:0.43442"
         d="m 100.91821,333.51181 -12.580416,-10.1444 -27.83371,-6.92082 -2.15998,14.26493 32.334815,1.81489 z"
         id="path18-8-3-0-3-1"
         sodipodi:nodetypes="cccccc" /><path
         style="fill:#784421;stroke-width:0.43442"
         d="m 60.711654,316.55554 -27.171353,2.84456 -3.377718,5.7486 -5.50781,3.04711 -6.413146,5.39427 40.310047,-2.76961 z"
         id="path18-8-3-1-2-6"
         sodipodi:nodetypes="ccccccc" /><path
         style="display:inline;fill:#e9ba95;fill-opacity:1;stroke-width:0.179537"
         d="m -256.53977,363.02087 1.14414,-47.38164 2.00218,-39.65471 8.99282,0.09 14.48375,-0.12761 4.95538,0.59329 3.94622,14.46823 4.29628,14.23169 -0.13161,12.53513 -0.13159,12.53513 -7.79994,10.82939 -4.36778,10.91669 -3.06787,21.05729 -15.16573,0.017 -7.44365,-0.11848 -2.50877,-0.20819 z"
         id="path10-7-6"
         sodipodi:nodetypes="ccccccccccccccccc" /><path
         style="display:inline;fill:#d69d76;fill-opacity:1;stroke-width:0.178847"
         d="m -278.28486,351.24199 -6.89814,-13.07068 -1.89856,-5.78999 -3.83365,-15.85887 0.12106,-12.91995 0.57904,-6.87272 3.5685,-7.59688 4.15193,-12.91891 2.82275,-0.12463 25.99248,-0.18216 0.39753,0.0965 -0.10648,6.53055 -2.01225,54.1174 -0.60248,13.683 -1.01941,22.61008 -2.23314,0.01 -3.21515,0.0269 -13.41808,0.0794 z"
         id="path11-58-2"
         sodipodi:nodetypes="ccccccccccccccccccc" /><path
         style="fill:#535068;fill-opacity:1;stroke-width:0.206295"
         d="m -282.71246,348.16077 19.94977,0.59099 6.86708,20.61921 -0.20883,19.66883 -49.60249,0.96214 z"
         id="path12-6-9"
         sodipodi:nodetypes="cccccc" /><path
         style="fill:#746f91;fill-opacity:1;stroke-width:0.206295"
         d="m -245.87693,347.82959 21.36495,0.11584 15.05502,41.47601 -47.66842,-0.0843 -0.18209,-23.28234 z"
         id="path12-3-0-4"
         sodipodi:nodetypes="cccccc" /><rect
         style="fill:#000000;stroke-width:0.256116"
         id="rect12-5-5"
         width="4.0839353"
         height="12.580407"
         x="-239.17285"
         y="293.94565" /><rect
         style="fill:#000000;stroke-width:0.210182"
         id="rect13-5-8"
         width="5.0174055"
         height="10.783221"
         x="-273.71127"
         y="295.12833" /><path
         style="fill:#000000;stroke-width:0.23295"
         d="m -274.95202,332.56124 14.02635,8.11188"
         id="path14-6-4" /><rect
         style="fill:#000000;stroke-width:0.23295"
         id="rect15-4-9"
         width="18.436049"
         height="2.72015"
         x="-263.90985"
         y="332.97388" /><rect
         style="fill:#000000;stroke-width:0.23295"
         id="rect16-6-3"
         width="18.646795"
         height="2.6760855"
         x="-279.57248"
         y="289.07483" /><rect
         style="fill:#000000;stroke-width:0.23295"
         id="rect17-2-6"
         width="19.636892"
         height="2.8433406"
         x="-247.22935"
         y="287.56955" /><path
         style="fill:#a05a2c;stroke-width:0.382482"
         d="m -226.18464,273.3883 1.17627,-1.7638 -28.07164,-3.68814 -1.23068,9.41952 23.23091,1.0527 6.07406,0.33835 4.36744,2.06997 -1.78576,-4.65952 z"
         id="path18-8-3-0-7"
         sodipodi:nodetypes="ccccccccc" /><path
         style="fill:#784421;stroke-width:0.382482"
         d="m -252.78877,267.92173 -10.77371,0.27828 -7.7313,2.03121 -6.71976,1.02679 -7.1088,4.64577 2.55622,6.1e-4 -6.16319,6.3731 15.03689,-4.1493 19.56325,-0.67574 z"
         id="path18-8-3-1-1"
         sodipodi:nodetypes="cccccccccc" /></g><g
       inkscape:label="Warstwa 1"
       id="layer1-8-5"
       transform="translate(132.946,402.98177)"><path
         style="fill:#9f9f37;fill-opacity:1;stroke-width:0.865819;stroke-linecap:round;stroke-linejoin:round;stroke-miterlimit:10.1;paint-order:fill markers stroke"
         d="m 147.86498,60.99369 -7.85166,-38.639963 -23.555,-25.0908846 13.45999,39.1417806 -0.56082,24.589067 z"
         id="path2-8" /><path
         style="display:inline;fill:#2e2d2c;fill-opacity:1;stroke-width:0.203917"
         d="m 108.22926,155.3145 1.3083,-53.45419 2.28943,-44.736962 10.28305,0.10157 16.56178,-0.143962 8.60169,0.0022 4.24555,16.322514 4.24555,16.322513 -0.15049,14.141667 -0.15048,14.14166 -1.33507,10.86017 -14.57976,14.07322 -3.50803,23.75604 -17.34159,0.0192 -8.51162,-0.13367 -2.8687,-0.23487 z"
         id="path10-9-5"
         sodipodi:nodetypes="ccccccccccccccccc" /><path
         style="fill:#9f9f37;fill-opacity:1;stroke-width:0.818999;stroke-linecap:round;stroke-linejoin:round;stroke-miterlimit:10.1;paint-order:fill markers stroke"
         d="M 78.670821,59.115519 85.69627,20.475556 106.77261,-4.6153295 94.728989,34.526452 95.230806,59.115519 Z"
         id="path2" /><path
         style="display:inline;fill:#161311;fill-opacity:1;stroke-width:0.203133"
         d="m 83.364333,142.02601 -12.982503,-11.91549 -0.0013,-1.34303 c -7.94e-4,-0.73866 -0.297087,-9.7567 -0.658421,-20.04008 C 69.360778,98.444025 69.062821,89.243108 69.059987,88.280919 l -0.0052,-1.749432 4.747619,-14.574633 4.74762,-14.574632 3.227739,-0.140594 c 10.075839,-0.438883 28.222855,-0.564363 29.721695,-0.205511 l 0.45457,0.108832 -0.12176,7.367522 c -0.16334,9.882889 -1.00337,32.172185 -2.30095,61.053229 -0.25668,5.71298 -0.56669,12.65948 -0.68892,15.43665 l -1.16567,25.50785 -2.55354,0.0108 -3.67644,0.0303 -15.343211,0.0896 z"
         id="path11-5-5"
         sodipodi:nodetypes="cccsccccsscsssccccc" /><path
         style="fill:#3b3b3b;fill-opacity:1;stroke-width:0.206295"
         d="m 82.269782,146.36302 19.949768,0.59099 6.86708,20.61921 -0.20883,19.66883 -49.602493,0.96214 z"
         id="path12-7-2"
         sodipodi:nodetypes="cccccc" /><path
         style="fill:#656565;fill-opacity:1;stroke-width:0.206295"
         d="m 119.10531,146.03184 21.36494,0.11584 15.05502,41.47601 -47.66841,-0.0843 -0.18209,-23.28234 z"
         id="path12-3-9-7"
         sodipodi:nodetypes="cccccc" /><rect
         style="fill:#cdcd18;fill-opacity:1;stroke-width:0.320343"
         id="rect12-2-7"
         width="4.6698699"
         height="17.211805"
         x="128.08786"
         y="77.386414" /><rect
         style="fill:#cdcd18;fill-opacity:1;stroke-width:0.347321"
         id="rect13-0-3"
         width="5.7372684"
         height="25.750996"
         x="88.594109"
         y="78.720665" /><path
         style="fill:#000000;stroke-width:0.264583"
         d="M 87.175349,120.95108 103.2141,130.1026"
         id="path14-0-5" /><rect
         style="fill:#000000;stroke-width:0.264583"
         id="rect15-3-6"
         width="21.081125"
         height="3.0687716"
         x="98.193985"
         y="124.60401" /><rect
         style="fill:#c0c0c0;fill-opacity:1;stroke-width:0.264583"
         id="rect16-0-4"
         width="21.322109"
         height="3.0190597"
         x="81.891998"
         y="71.891357" /><rect
         style="fill:#c0c0c0;fill-opacity:1;stroke-width:0.264583"
         id="rect17-8-9"
         width="22.454258"
         height="3.2077508"
         x="118.87548"
         y="70.193138" /></g></g></svg>
