<?xml version='1.0' encoding='utf-8'?>
<svg xmlns="http://www.w3.org/2000/svg" width="100%" height="100%" viewBox="0 0 2481 3508" version="1.1" style="fill-rule:evenodd;clip-rule:evenodd;stroke-linecap:round;stroke-linejoin:round;stroke-miterlimit:1.5;"> <path d="M597,2838L632,2788L642,2634C642,2634 651,2585 672,2556C683.412,2540.24 744.424,2489.2 747,2443C762,2174 771,1724 771,1724C771,1724 783.993,1685.82 833,1684C887,1682 919,1684 919,1684L919,1428C919,1428 840.568,1374.04 902,1295C963.432,1215.96 987.754,1234.62 1004,1194C1014,1169 1031.49,1134.51 1049,1117C1074,1092 1145,1088 1155,996C1158.49,963.914 1154.1,924.418 1155,904C1155.62,889.834 1161.49,894.494 1162,889C1163.17,876.333 1162,828 1162,828L1178,784L1178,638C1178,638 1141,621 1115,577C1113.86,575.075 1057,577 1057,577C1057,577 1047,607 1029,601C1000.46,591.487 970.986,541.66 975,524C980,502 1007,462 1029,459C1045.84,456.703 1049,478 1049,478C1049,478 1109.71,478.958 1110,478C1122,438 1169,414 1169,414L1169,353C1150.42,341.522 1139.92,330.665 1158,315C1158,315 1199,281 1221,281C1243,281 1285,305 1294,322C1305.99,344.653 1269,347 1268.95,353C1268.8,373.027 1268.95,406 1268.95,406C1268.95,406 1323,437 1341,474C1341.44,474.899 1392,474 1392,474C1392,474 1399,451 1423,452C1439.71,452.696 1478.35,499.988 1479,524C1480,561 1445.03,593 1428,593C1406,593 1400,572 1400,572C1400,572 1337.16,571.012 1337,572C1330,616 1280,638 1280,638L1280,784L1302,828C1302,828 1306.51,895.126 1307,896C1308.56,898.804 1311.37,903.371 1313,912C1316.6,931.071 1315,964 1321,996C1327.32,1029.72 1332.34,1061.55 1375,1087C1432,1121 1440.37,1106.75 1468,1179C1481,1213 1516.07,1244.75 1540,1261C1563.93,1277.25 1581.63,1293.59 1589,1324C1597,1357 1596.23,1364.32 1584,1391C1573,1415 1554.96,1416.86 1556,1445C1559,1526 1561,1661 1561,1661C1561,1661 1605.01,1659.83 1632,1661C1655,1662 1667.96,1670.96 1681,1684C1688.09,1691.09 1706.73,1712.65 1708,1741C1716,1920 1733,2456 1733,2456C1733,2456 1755.87,2483.64 1795,2539C1836,2597 1839.11,2619.86 1853,2731C1855,2747 1882.09,2732 1910,2832L1903,3248L1681,3263L1681,3308L846,3322L846,3296L597,3308L597,2838Z" style="stroke:black;stroke-width:0.83px;"/> </svg>