<?xml version="1.0" encoding="UTF-8" standalone="no"?>
<svg
   viewBox="0 0 1181 575"
   version="1.1"
   id="svg6"
   sodipodi:docname="graveyard-294031.svg"
   xml:space="preserve"
   inkscape:version="1.3 (0e150ed6c4, 2023-07-21)"
   xmlns:inkscape="http://www.inkscape.org/namespaces/inkscape"
   xmlns:sodipodi="http://sodipodi.sourceforge.net/DTD/sodipodi-0.dtd"
   xmlns="http://www.w3.org/2000/svg"
   xmlns:svg="http://www.w3.org/2000/svg"><sodipodi:namedview
     id="namedview6"
     pagecolor="#ffffff"
     bordercolor="#000000"
     borderopacity="0.25"
     inkscape:showpageshadow="2"
     inkscape:pageopacity="0.0"
     inkscape:pagecheckerboard="0"
     inkscape:deskcolor="#d1d1d1"
     inkscape:zoom="0.67387084"
     inkscape:cx="1272.499"
     inkscape:cy="266.37152"
     inkscape:window-width="1662"
     inkscape:window-height="1033"
     inkscape:window-x="804"
     inkscape:window-y="40"
     inkscape:window-maximized="0"
     inkscape:current-layer="svg6" /><defs
     id="defs2"><filter
       id="b"
       x="-0.013211801"
       y="-0.11123928"
       width="1.0264236"
       height="1.2224786"
       color-interpolation-filters="sRGB"><feGaussianBlur
         stdDeviation="6.495341"
         id="feGaussianBlur1" /></filter><linearGradient
       id="a"
       x1="-2844.3"
       x2="-2849.1"
       y1="69.271"
       y2="188.58"
       gradientTransform="matrix(1 0 0 .81244 0 41.635)"
       gradientUnits="userSpaceOnUse"><stop
         stop-color="#999"
         offset="0"
         id="stop1" /><stop
         stop-color="#999"
         stop-opacity="0"
         offset="1"
         id="stop2" /></linearGradient><filter
       inkscape:collect="always"
       style="color-interpolation-filters:sRGB"
       id="filter7"
       x="-0.035542876"
       y="-0.019517765"
       width="1.0710858"
       height="1.0390355"><feGaussianBlur
         inkscape:collect="always"
         stdDeviation="0.42428242"
         id="feGaussianBlur7" /></filter><filter
       inkscape:collect="always"
       style="color-interpolation-filters:sRGB"
       id="filter8"
       x="-0.010842458"
       y="-0.015058794"
       width="1.0216849"
       height="1.0301176"><feGaussianBlur
         inkscape:collect="always"
         stdDeviation="0.25543169"
         id="feGaussianBlur8" /></filter><filter
       inkscape:collect="always"
       style="color-interpolation-filters:sRGB"
       id="filter9"
       x="-0.010669265"
       y="-0.0095439918"
       width="1.0213385"
       height="1.019088"><feGaussianBlur
         inkscape:collect="always"
         stdDeviation="0.25543169"
         id="feGaussianBlur9" /></filter><filter
       inkscape:collect="always"
       style="color-interpolation-filters:sRGB"
       id="filter7-7"
       x="-0.035542876"
       y="-0.019517765"
       width="1.0710858"
       height="1.0390355"><feGaussianBlur
         inkscape:collect="always"
         stdDeviation="0.42428242"
         id="feGaussianBlur7-7" /></filter><filter
       inkscape:collect="always"
       style="color-interpolation-filters:sRGB"
       id="filter9-6"
       x="-0.010669265"
       y="-0.0095439918"
       width="1.0213385"
       height="1.019088"><feGaussianBlur
         inkscape:collect="always"
         stdDeviation="0.25543169"
         id="feGaussianBlur9-3" /></filter><filter
       inkscape:collect="always"
       style="color-interpolation-filters:sRGB"
       id="filter8-4"
       x="-0.010842458"
       y="-0.015058794"
       width="1.0216849"
       height="1.0301176"><feGaussianBlur
         inkscape:collect="always"
         stdDeviation="0.25543169"
         id="feGaussianBlur8-8" /></filter></defs><path
     style="fill:#2c2c2c;fill-opacity:1;stroke-width:3.09818;stroke-linecap:round;stroke-linejoin:round;stroke-miterlimit:10.1;paint-order:fill markers stroke"
     d="M 0,295.9085 V 0 l 1182.5846,2.0986419 -1.0511,359.9170781 z"
     id="path9" /><path
     style="fill:#1d1d1d;fill-opacity:1;stroke-width:3.09543;stroke-linecap:round;stroke-linejoin:round;stroke-miterlimit:10.1;paint-order:fill markers stroke"
     d="m 0,291.71122 c 0,0 399.79127,-45.1208 515.21658,-9.44389 115.4253,35.67691 487.93422,44.07148 487.93422,44.07148 0,0 125.9185,9.44389 156.3488,22.03574 30.4303,12.59185 22.0358,11.54253 22.0358,11.54253 l 1.0493,86.04432 L 656.8749,492.13152 -2.0986419,390.34739 Z"
     id="path8"
     sodipodi:nodetypes="cscsccccc" /><path
     style="fill:#151515;stroke-width:3.09543;stroke-linecap:round;stroke-linejoin:round;stroke-miterlimit:10.1;paint-order:fill markers stroke;fill-opacity:1"
     d="m -0.74198195,369.50701 c 0,0 119.45909195,-71.97225 244.85404195,-52.68072 125.39495,19.29153 232.98233,97.94162 327.21404,118.71711 94.23171,20.7755 187.72143,41.55099 187.72143,41.55099 L 678.1715,563.1643 -1.4839639,566.13223 Z"
     id="path7" /><path
     d="m 4.8514,429.25405 c 0,0 108.35,-36.63805 232.87,-23.69705 124.52,12.941 229.63,106.77 321.81,126.18 92.177,19.412 268.44,-43.677 349.3,-74.413 80.857,-30.736 271.68,-38.824 271.68,-38.824 l 0.609,156.7245 L -0.0055,573.7923 -0.01176307,430.94653 Z"
     id="path2"
     sodipodi:nodetypes="csccccccc" /><path
     style="fill:#1d1d1d;fill-opacity:1;stroke-width:3.09543;stroke-linecap:round;stroke-linejoin:round;stroke-miterlimit:10.1;paint-order:fill markers stroke"
     d="m 545.93074,321.85096 c 0,0 4.72195,0 4.98428,-11.54253 0.26233,-11.54253 0.52466,-13.11651 9.96855,-16.00214 9.44389,-2.88563 8.65689,-7.34525 1.31165,-15.47748 -7.34525,-8.13224 -9.70622,-7.08292 -12.32952,-6.0336 -2.62331,1.04932 -9.44389,1.31165 -11.01787,-1.31165 -1.57398,-2.6233 0.26233,-6.55826 -0.26233,-8.6569 -0.52466,-2.09864 -3.67263,-5.2466 -7.08292,-6.82058 -3.41029,-1.57399 -12.32952,-6.29593 -12.59185,-5.24661 -0.26233,1.04932 -0.26233,0 -0.26233,3.67262 0,3.67263 -0.52466,6.55826 -1.83631,6.82059 -1.31165,0.26233 -4.45962,4.72194 -1.83631,5.50894 2.6233,0.78699 3.93495,4.98427 0.52466,4.72194 -3.4103,-0.26233 -8.91923,-0.52466 -8.39457,-1.57398 0.52466,-1.04932 -1.83631,-4.45962 -8.39457,-3.93496 -6.55825,0.52467 -3.41029,5.24661 -3.41029,5.24661 0,0 -0.91816,-1.18049 -0.98374,-1.37723 -0.0656,-0.19675 -0.78699,-2.72168 -0.29512,-3.34471 0.49187,-0.62304 6.29592,-1.08212 7.37804,-0.95095 1.08211,0.13116 3.96774,0.52466 6.0008,1.80352 2.03306,1.27886 1.18049,2.13143 2.22981,2.45934 1.04932,0.32792 6.68942,0.98374 6.82058,0.62304 0.13117,-0.3607 0.45908,-0.22954 -0.13116,-0.95095 -0.59024,-0.72141 -3.54146,-2.52493 -3.70542,-3.18075 -0.16395,-0.65583 0.42629,-1.96748 0.62304,-2.13144 0.19675,-0.16395 0.55745,-1.67235 0.55745,-2.13143 0,-0.45908 2.85284,-3.04959 3.31192,-3.27913 0.45908,-0.22954 0.3607,-5.04985 -0.22954,-6.09917 -0.59024,-1.04933 -0.19675,-3.4103 0.52466,-4.45962 0.72141,-1.04932 1.63956,-4.91869 -0.26233,-5.77126 -1.90189,-0.85258 -1.24607,0.19674 -2.88563,-1.9019 -1.63957,-2.09864 -2.6233,-3.0168 -2.42656,-4.00053 0.19675,-0.98374 4.45962,0.91815 5.44336,0.19674 0.98373,-0.7214 3.01679,-5.44335 1.77072,-7.34524 -1.24606,-1.9019 -0.7214,-2.36097 -3.01679,-2.55772 -2.29539,-0.19675 -3.21355,-0.0656 -4.85311,-2.09864 -1.63957,-2.03306 -5.40117,-9.42807 -4.1027,-11.65402 1.29847,-2.22594 1.48397,-7.41982 1.48397,-9.83126 0,-2.41144 -0.92748,-5.75036 -1.85496,-6.67783 -0.92748,-0.92748 -8.1618,-1.85496 -9.27477,-1.85496 -1.11298,0 -2.96793,-0.74198 -4.2664,2.78243 -1.29847,3.52442 -4.0809,6.49235 -4.82288,8.1618 -0.74198,1.66946 1.11297,-3.70991 1.66946,-4.45189 0.55648,-0.74198 2.22594,-3.52441 2.78243,-5.19387 0.55649,-1.66946 0.37099,-3.33892 2.04045,-3.52441 1.66946,-0.1855 5.75036,1.66945 7.79081,2.04045 2.04045,0.37099 5.37937,1.11297 6.12135,1.11297 0.74198,0 -1.11297,-2.59694 -1.11297,-4.0809 0,-1.48397 -0.74198,-4.0809 1.48396,-6.30685 2.22595,-2.22594 3.33892,-2.96793 5.75036,0.55649 2.41144,3.52441 -1.29847,-0.37099 -2.22594,-0.37099 -0.92748,0 -2.22595,0.37099 -2.41145,3.52441 -0.18549,3.15342 -0.18549,6.12135 0,7.41982 0.1855,1.29847 4.08091,-0.1855 3.89541,1.11297 -0.1855,1.29847 -2.78243,8.90379 -2.78243,11.87171 0,2.96793 0.18549,8.3473 0.74198,9.64577 0.55649,1.29847 3.33892,4.82288 7.23432,4.82288 3.89541,0 5.37937,-0.55648 5.37937,-0.55648 0,0 -0.37099,5.93585 -1.66946,8.90378 -1.29846,2.96793 -1.29846,6.86333 -3.70991,6.67784 -2.41144,-0.1855 3.70991,6.49234 8.5328,8.71828 4.82288,2.22595 16.88009,7.79082 16.88009,7.79082 0,0 0.37099,2.59693 0.18549,4.82288 -0.18549,2.22594 7.79081,5.19387 9.08928,0.92748 1.29847,-4.2664 1.66946,-9.83127 -1.11297,-12.4282 -2.78244,-2.59694 -1.29847,-5.19388 3.33892,-5.56487 4.63738,-0.37099 5.75036,-1.66946 1.66946,-12.42819 -4.08091,-10.75874 -2.96793,-13.17018 -8.5328,-13.35568 -5.56486,-0.1855 -7.41982,-2.78243 -5.37937,-5.56486 2.04045,-2.78244 10.01676,-10.01676 10.01676,-10.01676 0,0 -2.41144,1.11297 -7.41982,-1.11297 -5.00838,-2.22595 -10.75874,-13.72667 -10.38775,-15.58162 0.37099,-1.85496 -3.70991,-6.86334 -9.83126,-6.67784 -6.12135,0.18549 -1.66946,-1.29847 -0.74198,-1.11297 0.92748,0.18549 8.1618,0.74198 8.90378,1.48396 0.74199,0.74198 3.33892,7.9763 3.70991,8.71829 0.37099,0.74198 6.67784,-5.93586 6.30685,-9.08928 -0.37099,-3.15343 -6.12135,-7.60532 -6.67784,-6.86334 -0.55648,0.74199 -0.39095,1.82107 -0.39095,1.82107 0,0 -0.26233,-0.7542 -0.26233,-0.98374 0,-0.22954 0.7542,-1.31165 0.7542,-1.31165 0,0 0.22954,-0.3607 0.85258,0.0656 0.62303,0.42629 3.93495,2.78726 4.68915,3.60704 0.7542,0.81979 2.91842,3.21355 2.68888,4.39404 -0.22954,1.18048 -6.29592,8.68969 -6.68942,8.88643 -0.39349,0.19675 -0.65582,0.59025 -0.65582,0.59025 0,0 3.86937,6.82058 4.91869,7.73874 1.04932,0.91815 5.04986,4.65636 7.60758,4.78752 2.55772,0.13117 4.65636,-2.2298 5.18102,-1.04932 0.52466,1.18049 0.98374,4.1317 -0.85258,5.24661 -1.83631,1.1149 -7.08226,6.27446 -7.08226,7.38743 0,1.11298 2.04045,1.66946 5.00838,2.78244 2.96793,1.11297 5.19387,-1.48397 6.49234,3.15342 1.29847,4.63739 3.15342,15.76712 5.19387,17.43657 2.04046,1.66946 4.4519,7.23433 4.82289,8.16181 0.37099,0.92747 -3.52442,-1.11298 -6.30685,0 -2.78243,1.11297 -5.56486,2.59693 -3.33892,3.8954 2.22595,1.29847 1.48397,4.82288 1.66946,8.90378 0.1855,4.08091 -2.04045,5.75036 3.70991,11.31523 5.75036,5.56486 24.11441,15.02513 25.41288,16.3236 1.29847,1.29847 14.09766,-1.29847 13.17018,-7.41982 -0.92747,-6.12135 -2.04045,-12.61369 -8.53279,-11.87171 -6.49234,0.74198 -8.1618,1.48397 -8.1618,1.48397 0,0 7.04883,-4.82289 10.57324,-4.82289 3.52442,0 -3.70991,-5.56486 -4.0809,-6.49234 -0.37099,-0.92748 -2.04045,-2.04045 -3.70991,-1.29847 -1.66946,0.74198 1.48397,-1.85495 3.15342,-1.48396 1.66946,0.37099 3.70991,4.26639 4.82289,5.00838 1.11297,0.74198 0.92747,3.8954 2.78243,3.70991 1.85495,-0.1855 4.82288,0.55648 5.93586,-4.4519 1.11297,-5.00837 -1.66946,-5.75036 4.63738,-6.86333 6.30685,-1.11297 10.01676,-2.41144 7.79081,-5.75036 -2.22594,-3.33892 -4.26639,-2.78243 1.66946,-12.98468 5.93586,-10.20225 10.20225,-20.96099 9.46027,-23.92892 -0.74198,-2.96793 -0.92748,-4.63739 -5.75036,-3.89541 -4.82288,0.74199 -4.45189,0.74199 -5.93585,1.85496 -1.48397,1.11297 1.48396,-3.70991 3.33892,-4.2664 1.85495,-0.55648 12.42819,-2.41144 12.42819,0.92748 0,3.33892 -5.56486,22.63045 -6.30684,23.55793 -0.74199,0.92747 0.18549,7.41982 0.92747,9.83126 0.74199,2.41144 1.66946,2.22594 0,5.19387 -1.66946,2.96793 -3.52441,11.12973 -2.96792,12.2427 0.55648,1.11298 -11.87172,5.93586 -12.98469,5.19388 -1.11297,-0.74198 -5.56486,5.19387 -3.52441,9.46027 2.04045,4.26639 -0.92748,7.60531 6.12135,7.9763 7.04883,0.37099 20.4045,-4.45189 20.4045,-6.30684 0,-1.85496 2.78243,-8.71829 7.79081,-11.12973 5.00838,-2.41144 13.72667,-1.29847 14.65415,-4.63739 0.92747,-3.33892 -1.66946,-18.54955 -1.11298,-20.03351 0.55649,-1.48397 2.78244,-8.53279 4.63739,-8.90379 1.85496,-0.37099 2.96793,-0.37099 4.0809,-1.29846 1.11297,-0.92748 4.0809,-2.59694 -0.55649,-5.37937 -4.63738,-2.78244 -8.53279,-7.79081 -8.53279,-9.46027 0,-1.66946 1.29847,-6.30685 2.04045,-7.04883 0.74198,-0.74198 -7.23432,-7.04883 -9.46027,-7.04883 -2.22594,0 -6.67783,1.29847 -9.08928,2.04045 -2.41144,0.74198 2.59694,7.23432 2.59694,7.23432 0,0 -5.93585,-4.0809 -5.75036,-5.37936 0.1855,-1.29847 -2.22595,-3.89541 -5.19387,-3.89541 -2.96793,0 -6.86334,1.29847 -6.86334,1.29847 0,0 0.37099,-1.11297 6.67784,-3.33892 6.30685,-2.22595 20.59,-2.59694 20.59,-2.59694 0,0 -5.75036,-10.57324 -8.3473,-11.87171 -2.59693,-1.29847 3.15343,0.1855 3.89541,1.48397 0.74198,1.29846 2.96793,5.93585 4.0809,7.79081 1.11297,1.85495 12.79919,5.19387 13.17018,8.53279 0.37099,3.33892 -0.55649,9.08928 -0.92748,10.20225 -0.37099,1.11297 9.08928,10.75874 10.38775,11.68622 1.29847,0.92747 3.33892,-12.98469 2.96793,-14.09766 -0.37099,-1.11297 -5.56487,-1.85496 -5.56487,-1.85496 l 5.93586,-0.37099 c 0,0 -1.29847,-1.29847 -0.37099,-5.56486 0.92747,-4.2664 -2.41144,-4.63739 -3.70991,-7.97631 -1.29847,-3.33892 2.59693,-8.1618 4.82288,-7.79081 2.22595,0.37099 5.19387,-2.22594 1.66946,2.04045 -3.52442,4.2664 -7.23432,4.63739 -0.1855,8.71829 7.04883,4.0809 15.95262,3.15342 20.21901,1.48396 4.2664,-1.66946 7.79081,-0.74198 5.75036,0.1855 -2.04045,0.92748 -15.02513,4.63739 -17.06558,4.2664 -2.04045,-0.371 -6.12135,-1.48397 -6.12135,0 0,1.48396 -1.29847,7.79081 -0.55649,10.94423 0.74198,3.15342 1.48396,10.38775 0.74198,11.87171 -0.74198,1.48396 -3.33892,2.41144 -4.82288,2.59694 -1.48397,0.18549 -3.89541,-1.85496 -5.56487,0.55648 -1.66946,2.41145 -4.0809,6.30685 -3.52441,8.71829 0.55649,2.41144 2.22595,6.67784 -0.92748,8.1618 -3.15342,1.48397 -5.75036,-1.29846 -4.0809,6.49235 1.66946,7.79081 4.63739,10.01675 3.15343,12.98468 -1.48397,2.96793 -0.55649,6.12135 -4.4519,5.37937 -3.8954,-0.74198 -3.33892,-2.22595 -7.41982,-2.59694 -4.0809,-0.37099 -5.00837,-2.22594 -7.60531,0 -2.59694,2.22595 -3.52442,2.22595 -3.89541,5.00838 -0.37099,2.78243 -0.55648,3.33892 -1.48396,5.75036 -0.92748,2.41144 -0.1855,3.52441 -2.59694,5.19387 -2.41144,1.66946 -2.04045,2.04045 -3.8954,2.22595 -1.85496,0.1855 -2.96793,0.37099 -4.82289,0.1855 -1.85495,-0.1855 -5.93585,-0.55649 -7.9763,-0.371 -2.04045,0.1855 -5.00838,-0.55648 -7.60532,1.11298 -2.59693,1.66946 -3.8954,0.74198 -3.15342,3.70991 0.74198,2.96792 3.33892,6.12135 5.19387,7.23432 1.85496,1.11297 -0.37099,1.11297 9.27478,5.00838 9.64576,3.8954 12.79919,4.45189 16.5091,6.67784 3.70991,2.22594 7.79081,-1.48397 9.27477,-1.66946 1.48397,-0.1855 9.08928,1.11297 9.46027,2.41144 0.37099,1.29847 3.15342,3.70991 3.33892,5.75036 0.1855,2.04045 -3.52441,-3.89541 -3.52441,-3.89541 0,0 -3.70991,-2.96792 -6.86334,-2.22594 -3.15342,0.74198 -2.41144,0.55648 -5.56486,2.22594 -3.15343,1.66946 -3.70991,3.15343 -8.53279,0.92748 -4.82289,-2.22594 -5.56487,-3.70991 -9.46027,-5.19387 -3.89541,-1.48397 -6.86334,-3.70991 -9.46027,-4.45189 -2.59694,-0.74199 -4.2664,-1.29847 -7.79081,-1.85496 -3.52442,-0.55649 -6.12136,-0.92748 -7.41982,-0.55649 -1.29847,0.371 4.63738,3.52442 4.63738,3.52442 0,0 -0.74198,2.78243 -7.9763,3.33892 -7.23433,0.55648 -20.03352,2.59693 -20.03352,2.59693 0,0 -2.04045,-1.48396 -3.33891,0.55649 -1.29847,2.04045 -1.48397,3.70991 -1.29847,4.45189 0.18549,0.74198 -5.37937,2.04045 3.15342,2.41144 8.53279,0.37099 17.62207,1.11298 19.47703,2.22595 1.85495,1.11297 2.41144,2.96793 2.41144,2.96793 l 0.18549,1.29847 c 0,0 -2.96792,-3.70991 -8.53279,-4.0809 -5.56486,-0.371 -16.13811,-1.48397 -16.13811,-1.48397 l -1.85495,0.1855 c 0,0 0.37099,-0.55649 -2.96793,0.74198 -3.33892,1.29847 -6.86333,2.78243 -8.53279,3.8954 -1.66946,1.11298 -1.11297,1.11298 0.74198,3.33892 1.85496,2.22595 3.89541,5.19388 5.19387,5.56487 1.29847,0.37099 3.33892,2.22594 3.33892,2.22594 0,0 -5.00838,-2.41144 -7.23432,-2.96792 -2.22595,-0.55649 -1.29847,-2.22595 -4.45189,-0.55649 -3.15343,1.66946 -5.56487,2.22594 -5.56487,2.22594 0,0 2.41144,-2.78243 1.48397,-3.52441 -0.92748,-0.74198 -1.11298,-0.92748 -3.33892,-1.29847 -2.22595,-0.37099 -2.96793,-1.11297 -5.00838,0.1855 -2.04045,1.29847 -0.74198,0.74198 -3.89541,1.85495 -3.15342,1.11298 -2.13305,-2.70101 -2.13305,-2.70101 z"
     id="path10-1" /><path
     style="fill:#1d1d1d;fill-opacity:1;stroke-width:2.95951;stroke-linecap:round;stroke-linejoin:round;stroke-miterlimit:10.1;paint-order:fill markers stroke"
     d="m 1061.8805,335.01754 c 0,0 -4.2808,-0.55344 -3.0386,-12.03144 1.2421,-11.47801 1.2061,-13.06974 -6.9853,-17.03843 -8.1916,-3.9687 -6.9063,-8.29927 0.7953,-15.50348 7.7018,-7.20418 9.7075,-5.88681 11.9512,-4.53869 2.2436,1.34813 8.3932,2.40771 10.1565,-0.009 1.7633,-2.41717 0.6031,-6.53487 1.3478,-8.5547 0.7447,-2.01982 4.0022,-4.77283 7.2957,-5.93411 3.2935,-1.16129 11.9847,-4.79887 12.088,-3.72746 0.1033,1.0714 0.2378,0.0307 -0.2331,3.67305 -0.4709,3.64231 -0.3652,6.56562 0.7902,6.97952 1.1555,0.4139 3.4375,5.20565 0.9584,5.6787 -2.4791,0.47302 -4.2064,4.48192 -1.081,4.62147 3.1252,0.13953 8.153,0.52505 7.8119,-0.5771 -0.3411,-1.10215 2.2366,-4.20758 8.1147,-2.91859 5.8783,1.28901 2.419,5.60301 2.419,5.60301 0,0 0.9837,-1.06313 1.0684,-1.25055 0.085,-0.18743 1.0625,-2.60698 0.6964,-3.28252 -0.366,-0.67555 -5.5689,-1.81111 -6.5667,-1.80785 -0.9979,0.003 -3.6643,0.0553 -5.6714,1.0853 -2.007,1.03002 -1.3435,1.97547 -2.3368,2.17769 -0.9932,0.20224 -6.1905,0.19158 -6.2631,-0.18151 -0.073,-0.3731 -0.3868,-0.28146 0.2408,-0.92773 0.6276,-0.64628 3.5343,-2.089 3.767,-2.7202 0.2327,-0.6312 -0.1341,-2.0012 -0.2915,-2.18687 -0.1573,-0.18565 -0.2909,-1.72388 -0.232,-2.17917 0.059,-0.45529 -2.1954,-3.3588 -2.5821,-3.64024 -0.3867,-0.28145 0.3205,-5.05045 0.9901,-6.02193 0.6697,-0.97148 0.6157,-3.35908 0.096,-4.4843 -0.5194,-1.12521 -0.8557,-5.07026 0.9778,-5.69288 1.8336,-0.62262 1.1045,0.34117 2.8599,-1.54798 1.7554,-1.88916 2.765,-2.68443 2.7127,-3.68311 -0.052,-0.99867 -4.1606,0.38789 -4.9599,-0.44288 -0.7993,-0.83074 -2.0369,-5.75199 -0.6635,-7.49214 1.3735,-1.74016 0.9567,-2.25694 3.0629,-2.18302 2.1061,0.0739 2.9217,0.31158 4.6687,-1.51251 1.7471,-1.82411 6.1054,-8.7172 5.2136,-11.07697 -0.8917,-2.35975 -0.394,-7.5325 -0.085,-9.92404 0.3092,-2.39154 1.5781,-5.59419 2.538,-6.40529 0.9597,-0.81112 7.6369,-0.88304 8.6459,-0.75259 1.009,0.13045 2.7858,-0.388 3.511,3.2595 0.7253,3.64753 2.8671,6.91707 3.3258,8.65971 0.4585,1.74264 -0.5333,-3.80973 -0.9427,-4.61081 -0.4094,-0.80109 -1.566,-3.75621 -1.8564,-5.47712 -0.2905,-1.7209 0.092,-3.35485 -1.398,-3.73447 -1.4897,-0.37964 -5.4271,0.98169 -7.3245,1.11047 -1.8973,0.12879 -5.0194,0.47329 -5.692,0.38633 -0.6727,-0.087 1.3419,-2.44507 1.5321,-3.91678 0.1903,-1.47172 1.196,-3.96024 -0.5366,-6.42872 -1.7325,-2.46845 -2.6464,-3.33477 -5.2844,-0.12207 -2.638,3.21268 1.2247,-0.21575 2.0655,-0.10704 0.8409,0.10871 1.9704,0.62883 1.7343,3.77796 -0.2362,3.14913 -0.6168,6.09256 -0.9514,7.35858 -0.3346,1.266 -3.6758,-0.66228 -3.6742,0.64721 0,1.30949 1.3809,9.15642 1.0004,12.09984 -0.3806,2.94343 -1.2385,8.25665 -1.9095,9.47918 -0.671,1.22253 -3.6453,4.39174 -7.1767,3.93517 -3.5314,-0.45656 -4.8054,-1.18238 -4.8054,-1.18238 0,0 -0.4248,5.93034 0.3718,9.02595 0.7966,3.09563 0.2972,6.95888 2.5071,7.05755 2.2099,0.0987 -4.1958,6.00392 -8.8534,7.64622 -4.6576,1.64231 -16.3018,5.74807 -16.3018,5.74807 0,0 -0.6692,2.53201 -0.7866,4.76132 -0.1172,2.22932 -7.7287,4.23788 -8.3589,-0.14549 -0.6301,-4.38337 -0.2528,-9.94579 2.6025,-12.19517 2.8555,-2.24938 1.8432,-4.99881 -2.3133,-5.91027 -4.1566,-0.91147 -4.9991,-2.32967 0.08,-12.52128 5.0791,-10.19163 4.3793,-12.71362 9.448,-12.24535 5.0687,0.46827 7.0832,-1.88981 5.5902,-4.88843 -1.4931,-2.99863 -7.7965,-11.10811 -7.7965,-11.10811 0,0 2.0435,1.38643 6.8693,-0.23412 4.8259,-1.62057 11.5135,-12.35239 11.415,-14.2355 -0.098,-1.88315 4.2432,-6.37188 9.7689,-5.47044 5.5256,0.90142 1.68,-1.09208 0.8154,-1.01682 -0.8647,0.0753 -7.4944,-0.22076 -8.2622,0.42813 -0.7678,0.64889 -4.0496,7.51912 -4.4811,8.21151 -0.4314,0.69237 -5.2928,-6.66956 -4.5522,-9.75347 0.7408,-3.08391 6.5246,-6.82508 6.934,-6.024 0.4093,0.80109 0.1209,1.85187 0.1209,1.85187 0,0 0.3345,-0.71723 0.364,-0.94488 0.029,-0.22764 -0.5156,-1.38922 -0.5156,-1.38922 0,0 -0.1619,-0.38463 -0.7813,-0.0349 -0.6195,0.34975 -3.9247,2.30305 -4.7136,3.02767 -0.7888,0.72463 -3.0577,2.84497 -3.001,4.04262 0.057,1.19763 4.5934,9.35588 4.9249,9.59711 0.3315,0.24125 0.5189,0.66225 0.5189,0.66225 0,0 -4.3823,6.31077 -5.4513,7.09836 -1.069,0.78759 -5.1751,4.02606 -7.5106,3.85636 -2.3356,-0.16971 -3.9353,-2.75715 -4.5623,-1.64791 -0.627,1.10925 -1.4217,3.98229 0.1001,5.30323 1.5218,1.32092 5.6161,7.05276 5.4734,8.15654 -0.1427,1.10379 -2.0639,1.41653 -4.8972,2.17246 -2.8333,0.75593 -4.5184,-2.08048 -6.2901,2.36645 -1.7718,4.44692 -4.8805,15.26736 -6.9443,16.68389 -2.0638,1.41652 -4.9635,6.65283 -5.4188,7.52916 -0.4552,0.87633 3.3378,-0.69071 5.7175,0.73919 2.3798,1.42991 4.7121,3.22775 2.5276,4.2546 -2.1845,1.02685 -1.9637,4.60914 -2.6552,8.63461 -0.6913,4.0255 1.1126,5.94207 -4.814,10.78702 -5.9266,4.84494 -23.7878,12.07475 -25.1314,13.21032 -1.3436,1.13555 -12.6139,-2.94009 -10.9882,-8.90221 1.6257,-5.96212 3.4671,-12.27042 9.2577,-10.77362 5.7906,1.4968 7.2089,2.42834 7.2089,2.42834 0,0 -5.7718,-5.60925 -8.9669,-6.02234 -3.1952,-0.41309 4.0768,-5.08409 4.532,-5.96044 0.4553,-0.87634 2.1114,-1.78446 3.5297,-0.85293 1.4184,0.93153 -1.1074,-2.01357 -2.6684,-1.84131 -1.5611,0.17226 -3.9103,3.79635 -5.0145,4.40176 -1.1041,0.60541 -1.3402,3.75455 -2.9982,3.35317 -1.6577,-0.40137 -4.4434,-0.0134 -4.8103,-5.11086 -0.3668,-5.09748 2.2507,-5.50724 -3.3241,-7.35022 -5.5749,-1.84299 -8.7716,-3.56556 -6.3255,-6.61602 2.446,-3.05047 4.2245,-2.25942 0.1514,-13.07317 -4.0731,-10.81376 -6.5613,-21.98374 -5.50815,-24.84021 1.05315,-2.85648 1.43535,-4.49041 5.71245,-3.18929 4.2772,1.30115 3.9408,1.25766 5.1435,2.53538 1.2025,1.2777 -0.8697,-3.85323 -2.48,-4.62253 -1.6102,-0.7693 -10.95771,-3.8482 -11.38583,-0.53684 -0.42811,3.31136 2.14326,23.09589 2.69694,24.10268 0.55378,1.00678 -1.11946,7.33684 -2.10136,9.6414 -0.98189,2.30457 -1.79881,2.01191 -0.66595,5.151 1.13296,3.13911 1.76806,11.45095 1.12095,12.48952 -0.6472,1.03857 10.00135,7.2783 11.10535,6.67288 1.1042,-0.6054 4.379,5.80324 1.9822,9.79528 -2.3969,3.99201 -0.1344,7.65123 -6.5722,7.19299 -6.43767,-0.45823 -17.92711,-6.80668 -17.68927,-8.64631 0.23784,-1.83965 -1.40455,-8.97245 -5.63576,-11.95099 -4.23124,-2.97855 -12.27762,-2.89661 -12.69035,-6.31668 -0.41263,-3.42005 3.89192,-18.20076 3.57768,-19.7377 -0.31422,-1.53694 -1.42834,-8.78847 -3.06245,-9.37383 -1.63401,-0.58533 -2.64302,-0.71578 -3.5331,-1.76605 -0.88999,-1.05026 -3.36661,-3.05381 1.19424,-5.26974 4.56085,-2.21594 8.73445,-6.7264 8.94851,-8.38208 0.21405,-1.65568 -0.36852,-6.40699 -0.94596,-7.2298 -0.57753,-0.82282 7.46214,-6.14274 9.48005,-5.88186 2.01802,0.26091 5.88745,2.07045 7.9784,3.08893 2.09105,1.0185 -3.28183,6.87024 -3.28183,6.87024 0,0 5.90439,-3.35151 5.90277,-4.66098 -0.002,-1.3095 2.51747,-3.60236 5.20808,-3.2545 2.69049,0.34784 6.05539,2.09216 6.05539,2.09216 0,0 -0.1935,-1.14725 -5.6257,-4.09404 -5.43217,-2.94678 -18.33309,-4.98877 -18.33309,-4.98877 0,0 6.56879,-9.81199 9.08953,-10.79537 2.52074,-0.98338 -2.88253,-0.18563 -3.72169,1.01516 -0.83916,1.20077 -3.45168,5.539 -4.69852,7.2482 -1.24685,1.70919 -12.26924,3.65085 -13.03368,6.91873 -0.76445,3.26787 -0.66092,9.07948 -0.46729,10.22674 0.19363,1.14727 -9.6195,9.60462 -10.91558,10.37225 -1.29601,0.76763 -1.36204,-13.26885 -0.883,-14.32915 0.47904,-1.0603 5.28277,-1.18741 5.28277,-1.18741 l -5.3337,-1.06365 c 0,0 1.34366,-1.13556 1.04986,-5.47544 -0.2938,-4.3399 2.78078,-4.31647 4.38597,-7.47565 1.60528,-3.15917 -1.30775,-8.39881 -3.37333,-8.29178 -2.06548,0.10704 -4.4231,-2.81631 -1.77504,1.82794 2.64805,4.64427 5.96374,5.44702 -0.94968,8.66807 -6.91343,3.22106 -14.86636,1.25765 -18.52006,-0.89808 -3.6537,-2.15573 -6.96771,-1.64898 -5.23689,-0.49001 1.73093,1.15898 13.0266,6.36015 14.92401,6.23138 1.89731,-0.12879 5.7396,-0.75427 5.54933,0.71745 -0.19027,1.47171 0.17824,7.8787 -0.89875,10.91912 -1.07691,3.04044 -2.67716,10.12809 -2.19476,11.68676 0.48231,1.55867 2.71772,2.78288 4.03919,3.14077 1.32155,0.35789 3.76926,-1.38308 4.97358,1.20413 1.20431,2.58722 2.89093,6.7331 2.07724,9.05941 -0.8137,2.32631 -2.87415,6.36183 -0.20567,8.20314 2.66848,1.84132 5.37959,-0.61376 2.86715,6.91706 -2.51244,7.53083 -5.48843,9.39054 -4.52364,12.50791 0.9647,3.11735 -0.28037,6.13605 3.34618,5.85676 3.62657,-0.27929 3.31234,-1.81624 7.0595,-1.70586 3.74715,0.11038 4.82583,-1.62055 6.89467,0.89139 2.06885,2.51195 2.90968,2.62066 2.88925,5.4236 -0.0204,2.80295 0.0764,3.37659 0.60804,5.87683 0.53155,2.50023 -0.28373,3.51706 1.6883,5.45537 1.97199,1.93831 1.58822,2.26277 3.24604,2.66415 1.65782,0.40138 2.64304,0.71579 4.34843,0.74924 1.70538,0.0334 5.45256,0.14382 7.27857,0.56693 1.82602,0.42312 4.61176,0.0351 6.75206,1.99518 2.1401,1.96005 3.4362,1.19242 2.383,4.04888 -1.0531,2.85648 -3.8118,5.67949 -5.6361,6.56586 -1.82432,0.88638 0.1937,1.14728 -9.05029,3.87999 -9.24399,2.7327 -12.17413,2.91499 -15.82279,4.68775 -3.64866,1.77274 -6.87257,-2.38485 -8.19413,-2.74275 -1.32156,-0.3579 -8.38272,0.0385 -8.88554,1.28274 -0.50273,1.24428 -3.33444,3.30969 -3.76424,5.31155 -0.42978,2.00187 3.69456,-3.45017 3.69456,-3.45017 0,0 3.7438,-2.5086 6.50751,-1.40314 2.76362,1.10546 2.11474,0.83452 4.75944,2.8598 2.64478,2.02529 2.95892,3.56222 7.61659,1.91992 4.65766,-1.6423 5.52064,-3.02705 9.24232,-4.04219 3.72168,-1.01516 6.69769,-2.87487 9.14713,-3.30635 2.44944,-0.43148 4.03429,-0.78769 7.30064,-0.92652 3.2665,-0.13881 5.6683,-0.20236 6.7979,0.31775 1.1296,0.52013 -4.6559,2.95181 -4.6559,2.95181 0,0 0.3158,2.84642 6.8029,4.24623 6.4869,1.39979 17.8285,4.92353 17.8285,4.92353 0,0 2.0402,-1.23254 2.9556,0.94324 0.9156,2.1758 0.8697,3.85323 0.6064,4.56734 -0.2633,0.71412 4.6152,2.65411 -3.1679,2.02194 -7.7831,-0.63217 -16.1183,-0.96162 -17.9426,-0.0752 -1.8244,0.88636 -2.5667,2.66079 -2.5667,2.66079 l -0.3346,1.26602 c 0,0 3.1663,-3.33143 8.2588,-3.04712 5.0924,0.2843 14.8204,0.41975 14.8204,0.41975 l 1.6579,0.40139 c 0,0 -0.265,-0.59537 2.5955,1.08372 2.8604,1.67909 5.8652,3.56388 7.236,4.86334 1.3708,1.29947 0.8663,1.23424 -1.1008,3.22439 -1.967,1.99017 -4.1974,4.69445 -5.422,4.91019 -1.2248,0.21573 -3.3125,1.81622 -3.3125,1.81622 0,0 4.8497,-1.80453 6.939,-2.09551 2.0893,-0.29101 1.4625,-2.0554 4.1072,-0.0301 2.6448,2.02529 4.7596,2.85981 4.7596,2.85981 0,0 -1.8294,-3.04209 -0.8934,-3.66924 0.936,-0.62714 1.1279,-0.78938 3.1934,-0.89642 2.0655,-0.10703 2.8333,-0.75592 4.5166,0.77098 1.6833,1.52691 0.5776,0.82283 3.2937,2.29622 2.716,1.47338 2.28,-2.42872 2.28,-2.42872 z"
     id="path10-1-4" /><path
     d="m541.56 567.89l48.366-32.716-9.0691-41.35-20.449 11.039-1.5782-9.0579 23.752-13.483-6.4594-15.672 13.843-6.1516 2.2941 23.867 16.83-10.407 1.8939 10.87-18.955 8.9114 7.4909 32.292s47.188-28.777 64.649-35.561c17.462-6.7837 7.4681-10.638 7.4681-10.638l-17.422-67.892-26.993-15.819 15.083-41.836-28.086-0.694 28.818-102.1 148.95 52.382-6.6287-38.043-8.1842-4.1707 11.002-22.456 16.915 0.7787 7.0905 19.295-5.6586 10.322 5.6816 32.609 32.86-46.808 59.267 51.249 9.6158 33.788 11.279 54.032 44.601-11.524 63.409 0.1237 49.336 15.649 41.698 3.9164 53.039 26.203-635.75 139.06z"
     stroke="#000"
     id="path3" /><path
     d="m4.8489 458.45s108.29-31.542 232.75-21.028 229.51 86.742 321.64 102.51c92.129 15.771 268.3-35.485 349.12-60.456 80.815-24.971 271.54-31.542 271.54-31.542l-1.6162 127.48-1178.3-1.3143 4.8488-115.66z"
     fill="url(#a)"
     filter="url(#b)"
     id="path4" /><g
     stroke="#000"
     id="g6"><path
       d="m1027.5 398.37l1.1434-30.884h-13.722l-1.1434-8.0071 16.009 1.1439 1.1433-13.726 8.0046 1.1439-3.4305 14.87 13.722-1.1439v8.0071l-14.865-2.2877 1.1434 32.028-8.0044-1.1439z"
       id="path5" /><path
       d="m1139.1 414l0.8424-22.828h-10.11l-0.8425-5.9183 11.794 0.8455 0.8425-10.146 5.897 0.8455-2.5272 10.991 10.109-0.8455v5.9182l-10.952-1.6909 0.8424 23.673-5.8971-0.8454z"
       id="path6" /></g><g
     style="clip-rule:evenodd;fill-rule:evenodd;stroke-linecap:round;stroke-linejoin:round;stroke-miterlimit:1.5"
     id="g7"
     transform="matrix(0.0880948,0,0,0.0880948,17.098784,148.46513)"><path
       d="m 597,2838 35,-50 10,-154 c 0,0 9,-49 30,-78 11.412,-15.76 72.424,-66.8 75,-113 15,-269 24,-719 24,-719 0,0 12.993,-38.18 62,-40 54,-2 86,0 86,0 v -256 c 0,0 -78.432,-53.96 -17,-133 61.432,-79.04 85.754,-60.38 102,-101 10,-25 27.49,-59.49 45,-77 25,-25 96,-29 106,-121 3.49,-32.086 -0.9,-71.582 0,-92 0.62,-14.166 6.49,-9.506 7,-15 1.17,-12.667 0,-61 0,-61 l 16,-44 V 638 c 0,0 -37,-17 -63,-61 -1.14,-1.925 -58,0 -58,0 0,0 -10,30 -28,24 -28.54,-9.513 -58.014,-59.34 -54,-77 5,-22 32,-62 54,-65 16.84,-2.297 20,19 20,19 0,0 60.71,0.958 61,0 12,-40 59,-64 59,-64 v -61 c -18.58,-11.478 -29.08,-22.335 -11,-38 0,0 41,-34 63,-34 22,0 64,24 73,41 11.99,22.653 -25,25 -25.05,31 -0.15,20.027 0,53 0,53 0,0 54.05,31 72.05,68 0.44,0.899 51,0 51,0 0,0 7,-23 31,-22 16.71,0.696 55.35,47.988 56,72 1,37 -33.97,69 -51,69 -22,0 -28,-21 -28,-21 0,0 -62.84,-0.988 -63,0 -7,44 -57,66 -57,66 v 146 l 22,44 c 0,0 4.51,67.126 5,68 1.56,2.804 4.37,7.371 6,16 3.6,19.071 2,52 8,84 6.32,33.72 11.34,65.55 54,91 57,34 65.37,19.75 93,92 13,34 48.07,65.75 72,82 23.93,16.25 41.63,32.59 49,63 8,33 7.23,40.32 -5,67 -11,24 -29.04,25.86 -28,54 3,81 5,216 5,216 0,0 44.01,-1.17 71,0 23,1 35.96,9.96 49,23 7.09,7.09 25.73,28.65 27,57 8,179 25,715 25,715 0,0 22.87,27.64 62,83 41,58 44.11,80.86 58,192 2,16 29.09,1 57,101 l -7,416 -222,15 v 45 l -835,14 v -26 l -249,12 z"
       style="stroke:#000000;stroke-width:0.83px"
       id="path1" /></g><path
     style="fill:#1d1d1d;fill-opacity:1;stroke-width:3.09543;stroke-linecap:round;stroke-linejoin:round;stroke-miterlimit:10.1;paint-order:fill markers stroke"
     d="m 204.87991,273.87276 c 0,0 4.72195,0 4.98428,-11.54253 0.26233,-11.54253 0.52466,-13.11651 9.96855,-16.00214 9.44389,-2.88563 8.65689,-7.34525 1.31165,-15.47748 -7.34525,-8.13224 -9.70622,-7.08292 -12.32952,-6.0336 -2.62331,1.04932 -9.44389,1.31165 -11.01787,-1.31165 -1.57398,-2.6233 0.26233,-6.55826 -0.26233,-8.6569 -0.52466,-2.09864 -3.67263,-5.2466 -7.08292,-6.82058 -3.41029,-1.57399 -12.32952,-6.29593 -12.59185,-5.24661 -0.26233,1.04932 -0.26233,0 -0.26233,3.67262 0,3.67263 -0.52466,6.55826 -1.83631,6.82059 -1.31165,0.26233 -4.45962,4.72194 -1.83631,5.50894 2.6233,0.78699 3.93495,4.98427 0.52466,4.72194 -3.4103,-0.26233 -8.91923,-0.52466 -8.39457,-1.57398 0.52466,-1.04932 -1.83631,-4.45962 -8.39457,-3.93496 -6.55825,0.52467 -3.41029,5.24661 -3.41029,5.24661 0,0 -0.91816,-1.18049 -0.98374,-1.37723 -0.0656,-0.19675 -0.78699,-2.72168 -0.29512,-3.34471 0.49187,-0.62304 6.29592,-1.08212 7.37804,-0.95095 1.08211,0.13116 3.96774,0.52466 6.0008,1.80352 2.03306,1.27886 1.18049,2.13143 2.22981,2.45934 1.04932,0.32792 6.68942,0.98374 6.82058,0.62304 0.13117,-0.3607 0.45908,-0.22954 -0.13116,-0.95095 -0.59024,-0.72141 -3.54146,-2.52493 -3.70542,-3.18075 -0.16395,-0.65583 0.42629,-1.96748 0.62304,-2.13144 0.19675,-0.16395 0.55745,-1.67235 0.55745,-2.13143 0,-0.45908 2.85284,-3.04959 3.31192,-3.27913 0.45908,-0.22954 0.3607,-5.04985 -0.22954,-6.09917 -0.59024,-1.04933 -0.19675,-3.4103 0.52466,-4.45962 0.72141,-1.04932 1.63956,-4.91869 -0.26233,-5.77126 -1.90189,-0.85258 -1.24607,0.19674 -2.88563,-1.9019 -1.63957,-2.09864 -2.6233,-3.0168 -2.42656,-4.00053 0.19675,-0.98374 4.45962,0.91815 5.44336,0.19674 0.98373,-0.7214 3.01679,-5.44335 1.77072,-7.34524 -1.24606,-1.9019 -0.7214,-2.36097 -3.01679,-2.55772 -2.29539,-0.19675 -3.21355,-0.0656 -4.85311,-2.09864 -1.63957,-2.03306 -5.40117,-9.42807 -4.1027,-11.65402 1.29847,-2.22594 1.48397,-7.41982 1.48397,-9.83126 0,-2.41144 -0.92748,-5.75036 -1.85496,-6.67783 -0.92748,-0.92748 -8.1618,-1.85496 -9.27477,-1.85496 -1.11298,0 -2.96793,-0.74198 -4.2664,2.78243 -1.29847,3.52442 -4.0809,6.49235 -4.82288,8.1618 -0.74198,1.66946 1.11297,-3.70991 1.66946,-4.45189 0.55648,-0.74198 2.22594,-3.52441 2.78243,-5.19387 0.55649,-1.66946 0.37099,-3.33892 2.04045,-3.52441 1.66946,-0.1855 5.75036,1.66945 7.79081,2.04045 2.04045,0.37099 5.37937,1.11297 6.12135,1.11297 0.74198,0 -1.11297,-2.59694 -1.11297,-4.0809 0,-1.48397 -0.74198,-4.0809 1.48396,-6.30685 2.22595,-2.22594 3.33892,-2.96793 5.75036,0.55649 2.41144,3.52441 -1.29847,-0.37099 -2.22594,-0.37099 -0.92748,0 -2.22595,0.37099 -2.41145,3.52441 -0.18549,3.15342 -0.18549,6.12135 0,7.41982 0.1855,1.29847 4.08091,-0.1855 3.89541,1.11297 -0.1855,1.29847 -2.78243,8.90379 -2.78243,11.87171 0,2.96793 0.18549,8.3473 0.74198,9.64577 0.55649,1.29847 3.33892,4.82288 7.23432,4.82288 3.89541,0 5.37937,-0.55648 5.37937,-0.55648 0,0 -0.37099,5.93585 -1.66946,8.90378 -1.29846,2.96793 -1.29846,6.86333 -3.70991,6.67784 -2.41144,-0.1855 3.70991,6.49234 8.5328,8.71828 4.82288,2.22595 16.88009,7.79082 16.88009,7.79082 0,0 0.37099,2.59693 0.18549,4.82288 -0.18549,2.22594 7.79081,5.19387 9.08928,0.92748 1.29847,-4.2664 1.66946,-9.83127 -1.11297,-12.4282 -2.78244,-2.59694 -1.29847,-5.19388 3.33892,-5.56487 4.63738,-0.37099 5.75036,-1.66946 1.66946,-12.42819 -4.08091,-10.75874 -2.96793,-13.17018 -8.5328,-13.35568 -5.56486,-0.1855 -7.41982,-2.78243 -5.37937,-5.56486 2.04045,-2.78244 10.01676,-10.01676 10.01676,-10.01676 0,0 -2.41144,1.11297 -7.41982,-1.11297 -5.00838,-2.22595 -10.75874,-13.72667 -10.38775,-15.58162 0.37099,-1.85496 -3.70991,-6.86334 -9.83126,-6.67784 -6.12135,0.18549 -1.66946,-1.29847 -0.74198,-1.11297 0.92748,0.18549 8.1618,0.74198 8.90378,1.48396 0.74199,0.74198 3.33892,7.9763 3.70991,8.71829 0.37099,0.74198 6.67784,-5.93586 6.30685,-9.08928 -0.37099,-3.15343 -6.12135,-7.60532 -6.67784,-6.86334 -0.55648,0.74199 -0.39095,1.82107 -0.39095,1.82107 0,0 -0.26233,-0.7542 -0.26233,-0.98374 0,-0.22954 0.7542,-1.31165 0.7542,-1.31165 0,0 0.22954,-0.3607 0.85258,0.0656 0.62303,0.42629 3.93495,2.78726 4.68915,3.60704 0.7542,0.81979 2.91842,3.21355 2.68888,4.39404 -0.22954,1.18048 -6.29592,8.68969 -6.68942,8.88643 -0.39349,0.19675 -0.65582,0.59025 -0.65582,0.59025 0,0 3.86937,6.82058 4.91869,7.73874 1.04932,0.91815 5.04986,4.65636 7.60758,4.78752 2.55772,0.13117 4.65636,-2.2298 5.18102,-1.04932 0.52466,1.18049 0.98374,4.1317 -0.85258,5.24661 -1.83631,1.1149 -7.08226,6.27446 -7.08226,7.38743 0,1.11298 2.04045,1.66946 5.00838,2.78244 2.96793,1.11297 5.19387,-1.48397 6.49234,3.15342 1.29847,4.63739 3.15342,15.76712 5.19387,17.43657 2.04046,1.66946 4.4519,7.23433 4.82289,8.16181 0.37099,0.92747 -3.52442,-1.11298 -6.30685,0 -2.78243,1.11297 -5.56486,2.59693 -3.33892,3.8954 2.22595,1.29847 1.48397,4.82288 1.66946,8.90378 0.1855,4.08091 -2.04045,5.75036 3.70991,11.31523 5.75036,5.56486 24.11441,15.02513 25.41288,16.3236 1.29847,1.29847 14.09766,-1.29847 13.17018,-7.41982 -0.92747,-6.12135 -2.04045,-12.61369 -8.53279,-11.87171 -6.49234,0.74198 -8.1618,1.48397 -8.1618,1.48397 0,0 7.04883,-4.82289 10.57324,-4.82289 3.52442,0 -3.70991,-5.56486 -4.0809,-6.49234 -0.37099,-0.92748 -2.04045,-2.04045 -3.70991,-1.29847 -1.66946,0.74198 1.48397,-1.85495 3.15342,-1.48396 1.66946,0.37099 3.70991,4.26639 4.82289,5.00838 1.11297,0.74198 0.92747,3.8954 2.78243,3.70991 1.85495,-0.1855 4.82288,0.55648 5.93586,-4.4519 1.11297,-5.00837 -1.66946,-5.75036 4.63738,-6.86333 6.30685,-1.11297 10.01676,-2.41144 7.79081,-5.75036 -2.22594,-3.33892 -4.26639,-2.78243 1.66946,-12.98468 5.93586,-10.20225 10.20225,-20.96099 9.46027,-23.92892 -0.74198,-2.96793 -0.92748,-4.63739 -5.75036,-3.89541 -4.82288,0.74199 -4.45189,0.74199 -5.93585,1.85496 -1.48397,1.11297 1.48396,-3.70991 3.33892,-4.2664 1.85495,-0.55648 12.42819,-2.41144 12.42819,0.92748 0,3.33892 -5.56486,22.63045 -6.30684,23.55793 -0.74199,0.92747 0.18549,7.41982 0.92747,9.83126 0.74199,2.41144 1.66946,2.22594 0,5.19387 -1.66946,2.96793 -3.52441,11.12973 -2.96792,12.2427 0.55648,1.11298 -11.87172,5.93586 -12.98469,5.19388 -1.11297,-0.74198 -5.56486,5.19387 -3.52441,9.46027 2.04045,4.26639 -0.92748,7.60531 6.12135,7.9763 7.04883,0.37099 20.4045,-4.45189 20.4045,-6.30684 0,-1.85496 2.78243,-8.71829 7.79081,-11.12973 5.00838,-2.41144 13.72667,-1.29847 14.65415,-4.63739 0.92747,-3.33892 -1.66946,-18.54955 -1.11298,-20.03351 0.55649,-1.48397 2.78244,-8.53279 4.63739,-8.90379 1.85496,-0.37099 2.96793,-0.37099 4.0809,-1.29846 1.11297,-0.92748 4.0809,-2.59694 -0.55649,-5.37937 -4.63738,-2.78244 -8.53279,-7.79081 -8.53279,-9.46027 0,-1.66946 1.29847,-6.30685 2.04045,-7.04883 0.74198,-0.74198 -7.23432,-7.04883 -9.46027,-7.04883 -2.22594,0 -6.67783,1.29847 -9.08928,2.04045 -2.41144,0.74198 2.59694,7.23432 2.59694,7.23432 0,0 -5.93585,-4.0809 -5.75036,-5.37936 0.1855,-1.29847 -2.22595,-3.89541 -5.19387,-3.89541 -2.96793,0 -6.86334,1.29847 -6.86334,1.29847 0,0 0.37099,-1.11297 6.67784,-3.33892 6.30685,-2.22595 20.59,-2.59694 20.59,-2.59694 0,0 -5.75036,-10.57324 -8.3473,-11.87171 -2.59693,-1.29847 3.15343,0.1855 3.89541,1.48397 0.74198,1.29846 2.96793,5.93585 4.0809,7.79081 1.11297,1.85495 12.79919,5.19387 13.17018,8.53279 0.37099,3.33892 -0.55649,9.08928 -0.92748,10.20225 -0.37099,1.11297 9.08928,10.75874 10.38775,11.68622 1.29847,0.92747 3.33892,-12.98469 2.96793,-14.09766 -0.37099,-1.11297 -5.56487,-1.85496 -5.56487,-1.85496 l 5.93586,-0.37099 c 0,0 -1.29847,-1.29847 -0.37099,-5.56486 0.92747,-4.2664 -2.41144,-4.63739 -3.70991,-7.97631 -1.29847,-3.33892 2.59693,-8.1618 4.82288,-7.79081 2.22595,0.37099 5.19387,-2.22594 1.66946,2.04045 -3.52442,4.2664 -7.23432,4.63739 -0.1855,8.71829 7.04883,4.0809 15.95262,3.15342 20.21901,1.48396 4.2664,-1.66946 7.79081,-0.74198 5.75036,0.1855 -2.04045,0.92748 -15.02513,4.63739 -17.06558,4.2664 -2.04045,-0.371 -6.12135,-1.48397 -6.12135,0 0,1.48396 -1.29847,7.79081 -0.55649,10.94423 0.74198,3.15342 1.48396,10.38775 0.74198,11.87171 -0.74198,1.48396 -3.33892,2.41144 -4.82288,2.59694 -1.48397,0.18549 -3.89541,-1.85496 -5.56487,0.55648 -1.66946,2.41145 -4.0809,6.30685 -3.52441,8.71829 0.55649,2.41144 2.22595,6.67784 -0.92748,8.1618 -3.15342,1.48397 -5.75036,-1.29846 -4.0809,6.49235 1.66946,7.79081 4.63739,10.01675 3.15343,12.98468 -1.48397,2.96793 -0.55649,6.12135 -4.4519,5.37937 -3.8954,-0.74198 -3.33892,-2.22595 -7.41982,-2.59694 -4.0809,-0.37099 -5.00837,-2.22594 -7.60531,0 -2.59694,2.22595 -3.52442,2.22595 -3.89541,5.00838 -0.37099,2.78243 -0.55648,3.33892 -1.48396,5.75036 -0.92748,2.41144 -0.1855,3.52441 -2.59694,5.19387 -2.41144,1.66946 -2.04045,2.04045 -3.8954,2.22595 -1.85496,0.1855 -2.96793,0.37099 -4.82289,0.1855 -1.85495,-0.1855 -5.93585,-0.55649 -7.9763,-0.371 -2.04045,0.1855 -5.00838,-0.55648 -7.60532,1.11298 -2.59693,1.66946 -3.8954,0.74198 -3.15342,3.70991 0.74198,2.96792 3.33892,6.12135 5.19387,7.23432 1.85496,1.11297 -0.37099,1.11297 9.27478,5.00838 9.64576,3.8954 12.79919,4.45189 16.5091,6.67784 3.70991,2.22594 7.79081,-1.48397 9.27477,-1.66946 1.48397,-0.1855 9.08928,1.11297 9.46027,2.41144 0.37099,1.29847 3.15342,3.70991 3.33892,5.75036 0.1855,2.04045 -3.52441,-3.89541 -3.52441,-3.89541 0,0 -3.70991,-2.96792 -6.86334,-2.22594 -3.15342,0.74198 -2.41144,0.55648 -5.56486,2.22594 -3.15343,1.66946 -3.70991,3.15343 -8.53279,0.92748 -4.82289,-2.22594 -5.56487,-3.70991 -9.46027,-5.19387 -3.89541,-1.48397 -6.86334,-3.70991 -9.46027,-4.45189 -2.59694,-0.74199 -4.2664,-1.29847 -7.79081,-1.85496 -3.52442,-0.55649 -6.12136,-0.92748 -7.41982,-0.55649 -1.29847,0.371 4.63738,3.52442 4.63738,3.52442 0,0 -0.74198,2.78243 -7.9763,3.33892 -7.23433,0.55648 -20.03352,2.59693 -20.03352,2.59693 0,0 -2.04045,-1.48396 -3.33891,0.55649 -1.29847,2.04045 -1.48397,3.70991 -1.29847,4.45189 0.18549,0.74198 -5.37937,2.04045 3.15342,2.41144 8.53279,0.37099 17.62207,1.11298 19.47703,2.22595 1.85495,1.11297 2.41144,2.96793 2.41144,2.96793 l 0.18549,1.29847 c 0,0 -2.96792,-3.70991 -8.53279,-4.0809 -5.56486,-0.371 -16.13811,-1.48397 -16.13811,-1.48397 l -1.85495,0.1855 c 0,0 0.37099,-0.55649 -2.96793,0.74198 -3.33892,1.29847 -6.86333,2.78243 -8.53279,3.8954 -1.66946,1.11298 -1.11297,1.11298 0.74198,3.33892 1.85496,2.22595 3.89541,5.19388 5.19387,5.56487 1.29847,0.37099 3.33892,2.22594 3.33892,2.22594 0,0 -5.00838,-2.41144 -7.23432,-2.96792 -2.22595,-0.55649 -1.29847,-2.22595 -4.45189,-0.55649 -3.15343,1.66946 -5.56487,2.22594 -5.56487,2.22594 0,0 2.41144,-2.78243 1.48397,-3.52441 -0.92748,-0.74198 -1.11298,-0.92748 -3.33892,-1.29847 -2.22595,-0.37099 -2.96793,-1.11297 -5.00838,0.1855 -2.04045,1.29847 -0.74198,0.74198 -3.89541,1.85495 -3.15342,1.11298 -2.13305,-2.70101 -2.13305,-2.70101 z"
     id="path10" /><g
     inkscape:label="Warstwa 1"
     id="layer1"
     transform="matrix(2.3603208,0,0,2.3603208,-0.27318059,24.60117)"><rect
       style="opacity:1;fill:#452745;fill-opacity:1;stroke-width:0.656;stroke-linecap:round;stroke-linejoin:round;stroke-miterlimit:10.1;paint-order:fill markers stroke"
       id="rect1"
       width="67.419357"
       height="122.77419"
       x="79.129036"
       y="38.322582"
       ry="7.62251" /><rect
       style="opacity:1;fill:#1c1c1c;fill-opacity:1;stroke:#000000;stroke-width:2.756;stroke-linecap:round;stroke-linejoin:round;stroke-miterlimit:10.1;stroke-dasharray:none;stroke-opacity:0.458484;paint-order:fill markers stroke;filter:url(#filter7)"
       id="rect1-0"
       width="67.419357"
       height="122.77419"
       x="75.315994"
       y="36.176144"
       ry="7.62251" /><rect
       style="opacity:1;fill:#2e2e2e;fill-opacity:1;stroke-width:0.656;stroke-linecap:round;stroke-linejoin:round;stroke-miterlimit:10.1;paint-order:fill markers stroke;filter:url(#filter9)"
       id="rect6"
       width="57.45813"
       height="64.232666"
       x="80.792656"
       y="39.6436"
       ry="7.62251" /><rect
       style="opacity:1;fill:#1f1635;fill-opacity:1;stroke-width:0.688085;stroke-linecap:round;stroke-linejoin:round;stroke-miterlimit:10.1;paint-order:fill markers stroke"
       id="rect2"
       width="54.658085"
       height="51.786476"
       x="82.144844"
       y="42.879826"
       ry="8.0032911" /><path
       style="opacity:1;mix-blend-mode:normal;fill:#2e2e2e;fill-opacity:1;stroke-width:0.656;stroke-linecap:round;stroke-linejoin:round;stroke-miterlimit:10.1;paint-order:fill markers stroke;filter:url(#filter8)"
       d="M 80.814515,94.830645 80.104839,130.2258 c 0,0 -0.975813,9.49193 7.806449,3.10484 6.788694,-4.93723 32.360172,-21.21571 43.539212,-28.59335 3.28283,-2.16651 5.1624,-4.05181 5.1624,-4.05181 z"
       id="path7-9"
       sodipodi:nodetypes="ccsscc" /><rect
       style="opacity:1;fill:#4d4a4a;fill-opacity:1;stroke:none;stroke-width:0.819;stroke-linecap:round;stroke-linejoin:round;stroke-miterlimit:10.1;stroke-dasharray:none;stroke-opacity:1;paint-order:fill markers stroke"
       id="rect2-4"
       width="54.658085"
       height="29.4326"
       x="81.875694"
       y="97.825272"
       ry="3.5127239" /><path
       style="opacity:1;fill:#b2b43b;fill-opacity:1;stroke-width:0.656;stroke-linecap:round;stroke-linejoin:round;stroke-miterlimit:10.1;paint-order:fill markers stroke"
       d="m 101.869,53.443586 -5.519999,10.287262 v 11.792717 l 8.279989,4.767268 10.28727,-0.25091 8.27999,-4.014541 -0.50182,-13.04726 -6.52363,-9.032719 z"
       id="path3-7" /><path
       style="opacity:1;fill:#b44b3b;fill-opacity:1;stroke-width:0.656;stroke-linecap:round;stroke-linejoin:round;stroke-miterlimit:10.1;paint-order:fill markers stroke"
       d="m 94.688304,94.660478 6.929786,-13.867826 3.26181,-0.752729 9.21014,0.07349 3.3353,1.181055 5.54218,13.372964 z"
       id="path4-3"
       sodipodi:nodetypes="ccccccc" /><path
       style="opacity:1;fill:#c5c753;fill-opacity:1;stroke-width:0.656;stroke-linecap:round;stroke-linejoin:round;stroke-miterlimit:10.1;paint-order:fill markers stroke"
       d="m 109.73387,53.669355 -0.0887,26.346774 h 5.14516 l 8.33871,-3.991938 -0.35484,-13.217739 -6.4758,-8.959678 z"
       id="path5-4" /><path
       style="opacity:1;fill:#c66050;fill-opacity:1;stroke-width:0.656;stroke-linecap:round;stroke-linejoin:round;stroke-miterlimit:10.1;paint-order:fill markers stroke"
       d="m 109.55645,80.060484 -0.22177,14.614919 -15.057817,0.0025 7.207007,-13.863387 3.54839,-0.975807 z"
       id="path6-1"
       sodipodi:nodetypes="cccccc" /></g><g
     inkscape:label="Warstwa 1"
     id="layer1-5"
     transform="matrix(2.3603208,0,0,2.3603208,550.06084,40.014979)"><rect
       style="opacity:1;fill:#452745;fill-opacity:1;stroke-width:0.656;stroke-linecap:round;stroke-linejoin:round;stroke-miterlimit:10.1;paint-order:fill markers stroke"
       id="rect1-1"
       width="67.419357"
       height="122.77419"
       x="79.129036"
       y="38.322582"
       ry="7.62251" /><rect
       style="opacity:1;fill:#1c1c1c;fill-opacity:1;stroke:#000000;stroke-width:2.756;stroke-linecap:round;stroke-linejoin:round;stroke-miterlimit:10.1;stroke-dasharray:none;stroke-opacity:0.458484;paint-order:fill markers stroke;filter:url(#filter7-7)"
       id="rect1-0-6"
       width="67.419357"
       height="122.77419"
       x="75.315994"
       y="36.176144"
       ry="7.62251" /><rect
       style="opacity:1;fill:#2e2e2e;fill-opacity:1;stroke-width:0.656;stroke-linecap:round;stroke-linejoin:round;stroke-miterlimit:10.1;paint-order:fill markers stroke;filter:url(#filter9-6)"
       id="rect6-3"
       width="57.45813"
       height="64.232666"
       x="80.792656"
       y="39.6436"
       ry="7.62251" /><rect
       style="opacity:1;fill:#1f1635;fill-opacity:1;stroke-width:0.688085;stroke-linecap:round;stroke-linejoin:round;stroke-miterlimit:10.1;paint-order:fill markers stroke"
       id="rect2-9"
       width="54.658085"
       height="51.786476"
       x="82.144844"
       y="42.879826"
       ry="8.0032911" /><path
       style="opacity:1;mix-blend-mode:normal;fill:#2e2e2e;fill-opacity:1;stroke-width:0.656;stroke-linecap:round;stroke-linejoin:round;stroke-miterlimit:10.1;paint-order:fill markers stroke;filter:url(#filter8-4)"
       d="M 80.814515,94.830645 80.104839,130.2258 c 0,0 -0.975813,9.49193 7.806449,3.10484 6.788694,-4.93723 32.360172,-21.21571 43.539212,-28.59335 3.28283,-2.16651 5.1624,-4.05181 5.1624,-4.05181 z"
       id="path7-9-0"
       sodipodi:nodetypes="ccsscc" /><rect
       style="opacity:1;fill:#4d4a4a;fill-opacity:1;stroke:none;stroke-width:0.819;stroke-linecap:round;stroke-linejoin:round;stroke-miterlimit:10.1;stroke-dasharray:none;stroke-opacity:1;paint-order:fill markers stroke"
       id="rect2-4-8"
       width="54.658085"
       height="29.4326"
       x="81.875694"
       y="97.825272"
       ry="3.5127239" /><path
       style="opacity:1;fill:#b2b43b;fill-opacity:1;stroke-width:0.656;stroke-linecap:round;stroke-linejoin:round;stroke-miterlimit:10.1;paint-order:fill markers stroke"
       d="m 101.869,53.443586 -5.519999,10.287262 v 11.792717 l 8.279989,4.767268 10.28727,-0.25091 8.27999,-4.014541 -0.50182,-13.04726 -6.52363,-9.032719 z"
       id="path3-7-7" /><path
       style="opacity:1;fill:#b44b3b;fill-opacity:1;stroke-width:0.656;stroke-linecap:round;stroke-linejoin:round;stroke-miterlimit:10.1;paint-order:fill markers stroke"
       d="m 94.688304,94.660478 6.929786,-13.867826 3.26181,-0.752729 9.21014,0.07349 3.3353,1.181055 5.54218,13.372964 z"
       id="path4-3-1"
       sodipodi:nodetypes="ccccccc" /><path
       style="opacity:1;fill:#c5c753;fill-opacity:1;stroke-width:0.656;stroke-linecap:round;stroke-linejoin:round;stroke-miterlimit:10.1;paint-order:fill markers stroke"
       d="m 109.73387,53.669355 -0.0887,26.346774 h 5.14516 l 8.33871,-3.991938 -0.35484,-13.217739 -6.4758,-8.959678 z"
       id="path5-4-4" /><path
       style="opacity:1;fill:#c66050;fill-opacity:1;stroke-width:0.656;stroke-linecap:round;stroke-linejoin:round;stroke-miterlimit:10.1;paint-order:fill markers stroke"
       d="m 109.55645,80.060484 -0.22177,14.614919 -15.057817,0.0025 7.207007,-13.863387 3.54839,-0.975807 z"
       id="path6-1-4"
       sodipodi:nodetypes="cccccc" /></g></svg>
