<?xml version="1.0" encoding="UTF-8" standalone="no"?>
<!-- Created with Inkscape (http://www.inkscape.org/) -->

<svg
   width="297mm"
   height="210mm"
   viewBox="0 0 297 210"
   version="1.1"
   id="svg1"
   inkscape:version="1.3 (0e150ed6c4, 2023-07-21)"
   sodipodi:docname="rysunek.svg"
   xml:space="preserve"
   xmlns:inkscape="http://www.inkscape.org/namespaces/inkscape"
   xmlns:sodipodi="http://sodipodi.sourceforge.net/DTD/sodipodi-0.dtd"
   xmlns="http://www.w3.org/2000/svg"
   xmlns:svg="http://www.w3.org/2000/svg"><sodipodi:namedview
     id="namedview1"
     pagecolor="#ffffff"
     bordercolor="#000000"
     borderopacity="0.25"
     inkscape:showpageshadow="2"
     inkscape:pageopacity="0.0"
     inkscape:pagecheckerboard="0"
     inkscape:deskcolor="#d1d1d1"
     inkscape:document-units="mm"
     inkscape:zoom="0.70710678"
     inkscape:cx="1048.6394"
     inkscape:cy="265.16504"
     inkscape:window-width="1662"
     inkscape:window-height="1033"
     inkscape:window-x="642"
     inkscape:window-y="107"
     inkscape:window-maximized="0"
     inkscape:current-layer="layer2" /><defs
     id="defs1"><linearGradient
       id="linearGradient42"
       inkscape:swatch="gradient"><stop
         style="stop-color:#341b16;stop-opacity:1;"
         offset="0"
         id="stop42" /><stop
         style="stop-color:#341b16;stop-opacity:0;"
         offset="1"
         id="stop43" /></linearGradient></defs><g
     inkscape:groupmode="layer"
     id="layer7"
     inkscape:label="tlo"><path
       style="fill:#00004c;fill-opacity:1;stroke:none;stroke-width:0.656774;stroke-linecap:round;stroke-linejoin:round;stroke-miterlimit:10.1;stroke-dasharray:none;stroke-opacity:1;paint-order:fill markers stroke"
       d="M 0.13229629,119.15604 297.11952,119.0625 V -0.09354433 H -0.0704287 Z"
       id="path26"
       sodipodi:nodetypes="ccccc" /></g><g
     inkscape:groupmode="layer"
     id="layer9"
     inkscape:label="ziemia"><rect
       style="opacity:1;fill:#341b16;fill-opacity:1;stroke:none;stroke-width:0.656;stroke-linecap:round;stroke-linejoin:round;stroke-miterlimit:10.1;stroke-dasharray:none;stroke-opacity:1;paint-order:fill markers stroke;fill-rule:nonzero"
       id="rect28"
       width="298.21933"
       height="89.802559"
       x="-0.74835467"
       y="120.4851"
       ry="1.5902536" /></g><g
     inkscape:groupmode="layer"
     id="layer10"
     inkscape:label="nagrobek"><path
       style="fill:#5b5b5b;fill-opacity:1;stroke:none;stroke-width:0.656;stroke-linecap:round;stroke-linejoin:round;stroke-miterlimit:10.1;stroke-dasharray:none;stroke-opacity:1;paint-order:fill markers stroke"
       id="path29-3"
       sodipodi:type="arc"
       sodipodi:cx="29.871723"
       sodipodi:cy="138.02383"
       sodipodi:rx="14.967093"
       sodipodi:ry="14.03165"
       sodipodi:start="0"
       sodipodi:end="6.2669335"
       sodipodi:open="true"
       sodipodi:arc-type="arc"
       d="M 44.838817,138.02383 A 14.967093,14.03165 0 0 1 29.932534,152.05537 14.967093,14.03165 0 0 1 14.905124,138.13785 14.967093,14.03165 0 0 1 29.689296,123.99323 14.967093,14.03165 0 0 1 44.83684,137.7958" /><path
       style="fill:#3f3f3f;fill-opacity:1;stroke:none;stroke-width:0.656;stroke-linecap:round;stroke-linejoin:round;stroke-miterlimit:10.1;stroke-dasharray:none;stroke-opacity:1;paint-order:fill markers stroke"
       id="path29"
       sodipodi:type="arc"
       sodipodi:cx="26.220345"
       sodipodi:cy="137.92863"
       sodipodi:rx="14.967093"
       sodipodi:ry="14.03165"
       sodipodi:start="0"
       sodipodi:end="6.2669335"
       sodipodi:open="true"
       sodipodi:arc-type="arc"
       d="m 41.187438,137.92863 a 14.967093,14.03165 0 0 1 -14.906283,14.03154 14.967093,14.03165 0 0 1 -15.02741,-13.91752 14.967093,14.03165 0 0 1 14.784172,-14.14462 14.967093,14.03165 0 0 1 15.147544,13.80258" /><rect
       style="fill:#5b5b5b;fill-opacity:1;stroke:none;stroke-width:0.654999;stroke-linecap:round;stroke-linejoin:round;stroke-miterlimit:10.1;stroke-dasharray:none;stroke-opacity:1;paint-order:fill markers stroke"
       id="rect29-1"
       width="29.934185"
       height="28.723785"
       x="14.904624"
       y="137.18195"
       ry="1.5854037" /><rect
       style="fill:#3f3f3f;fill-opacity:1;stroke:none;stroke-width:0.656;stroke-linecap:round;stroke-linejoin:round;stroke-miterlimit:10.1;stroke-dasharray:none;stroke-opacity:1;paint-order:fill markers stroke"
       id="rect29"
       width="29.934185"
       height="28.811655"
       x="11.253247"
       y="137.08675"
       ry="0"
       rx="0" /><rect
       style="fill:#5c5c5c;fill-opacity:1;stroke:none;stroke-width:0.558001;stroke-linecap:round;stroke-linejoin:round;stroke-miterlimit:10.1;stroke-dasharray:none;stroke-opacity:1;paint-order:fill markers stroke"
       id="rect19-44"
       width="2.6612904"
       height="24.661289"
       x="26.201466"
       y="127.44829"
       ry="0.062077738" /><rect
       style="fill:#5c5c5c;fill-opacity:1;stroke:none;stroke-width:0.558001;stroke-linecap:round;stroke-linejoin:round;stroke-miterlimit:10.1;stroke-dasharray:none;stroke-opacity:1;paint-order:fill markers stroke"
       id="rect20-2"
       width="14.301805"
       height="2.3836341"
       x="20.336094"
       y="132.20207"
       ry="0.062077738" /><path
       style="fill:#5b5b5b;fill-opacity:1;stroke:none;stroke-width:0.656;stroke-linecap:round;stroke-linejoin:round;stroke-miterlimit:10.1;stroke-dasharray:none;stroke-opacity:1;paint-order:fill markers stroke"
       id="path29-3-2"
       sodipodi:type="arc"
       sodipodi:cx="67.712257"
       sodipodi:cy="164.61702"
       sodipodi:rx="14.967093"
       sodipodi:ry="14.03165"
       sodipodi:start="0"
       sodipodi:end="6.2669335"
       sodipodi:open="true"
       sodipodi:arc-type="arc"
       d="M 82.679351,164.61702 A 14.967093,14.03165 0 0 1 67.773068,178.64855 14.967093,14.03165 0 0 1 52.745658,164.73104 14.967093,14.03165 0 0 1 67.52983,150.58641 14.967093,14.03165 0 0 1 82.677374,164.38899" /><path
       style="fill:#3f3f3f;fill-opacity:1;stroke:none;stroke-width:0.656;stroke-linecap:round;stroke-linejoin:round;stroke-miterlimit:10.1;stroke-dasharray:none;stroke-opacity:1;paint-order:fill markers stroke"
       id="path29-7"
       sodipodi:type="arc"
       sodipodi:cx="64.060875"
       sodipodi:cy="164.52182"
       sodipodi:rx="14.967093"
       sodipodi:ry="14.03165"
       sodipodi:start="0"
       sodipodi:end="6.2669335"
       sodipodi:open="true"
       sodipodi:arc-type="arc"
       d="M 79.027968,164.52182 A 14.967093,14.03165 0 0 1 64.121685,178.55335 14.967093,14.03165 0 0 1 49.094276,164.63584 14.967093,14.03165 0 0 1 63.878448,150.49121 14.967093,14.03165 0 0 1 79.025992,164.29379" /><rect
       style="fill:#5b5b5b;fill-opacity:1;stroke:none;stroke-width:0.654999;stroke-linecap:round;stroke-linejoin:round;stroke-miterlimit:10.1;stroke-dasharray:none;stroke-opacity:1;paint-order:fill markers stroke"
       id="rect29-1-0"
       width="29.934185"
       height="28.723785"
       x="52.745159"
       y="163.77513"
       ry="1.5854037" /><rect
       style="fill:#3f3f3f;fill-opacity:1;stroke:none;stroke-width:0.656;stroke-linecap:round;stroke-linejoin:round;stroke-miterlimit:10.1;stroke-dasharray:none;stroke-opacity:1;paint-order:fill markers stroke"
       id="rect29-3"
       width="29.934185"
       height="28.811655"
       x="49.093781"
       y="163.67993"
       ry="0"
       rx="0" /><rect
       style="fill:#5c5c5c;fill-opacity:1;stroke:none;stroke-width:0.558001;stroke-linecap:round;stroke-linejoin:round;stroke-miterlimit:10.1;stroke-dasharray:none;stroke-opacity:1;paint-order:fill markers stroke"
       id="rect19-44-7"
       width="2.6612904"
       height="24.661289"
       x="64.041992"
       y="154.04147"
       ry="0.062077738" /><rect
       style="fill:#5c5c5c;fill-opacity:1;stroke:none;stroke-width:0.558001;stroke-linecap:round;stroke-linejoin:round;stroke-miterlimit:10.1;stroke-dasharray:none;stroke-opacity:1;paint-order:fill markers stroke"
       id="rect20-2-9"
       width="14.301805"
       height="2.3836341"
       x="58.176624"
       y="158.79526"
       ry="0.062077738" /><path
       style="fill:#5b5b5b;fill-opacity:1;stroke:none;stroke-width:0.656;stroke-linecap:round;stroke-linejoin:round;stroke-miterlimit:10.1;stroke-dasharray:none;stroke-opacity:1;paint-order:fill markers stroke"
       id="path29-3-3"
       sodipodi:type="arc"
       sodipodi:cx="103.28514"
       sodipodi:cy="140.59767"
       sodipodi:rx="14.967093"
       sodipodi:ry="14.03165"
       sodipodi:start="0"
       sodipodi:end="6.2669335"
       sodipodi:open="true"
       sodipodi:arc-type="arc"
       d="m 118.25223,140.59767 a 14.967093,14.03165 0 0 1 -14.90628,14.03154 14.967093,14.03165 0 0 1 -15.027408,-13.91752 14.967093,14.03165 0 0 1 14.784168,-14.14463 14.967093,14.03165 0 0 1 15.14755,13.80258" /><path
       style="fill:#3f3f3f;fill-opacity:1;stroke:none;stroke-width:0.656;stroke-linecap:round;stroke-linejoin:round;stroke-miterlimit:10.1;stroke-dasharray:none;stroke-opacity:1;paint-order:fill markers stroke"
       id="path29-8"
       sodipodi:type="arc"
       sodipodi:cx="99.633766"
       sodipodi:cy="140.50247"
       sodipodi:rx="14.967093"
       sodipodi:ry="14.03165"
       sodipodi:start="0"
       sodipodi:end="6.2669335"
       sodipodi:open="true"
       sodipodi:arc-type="arc"
       d="m 114.60086,140.50247 a 14.967093,14.03165 0 0 1 -14.906283,14.03154 14.967093,14.03165 0 0 1 -15.02741,-13.91752 14.967093,14.03165 0 0 1 14.784172,-14.14463 14.967093,14.03165 0 0 1 15.147541,13.80258" /><rect
       style="fill:#5b5b5b;fill-opacity:1;stroke:none;stroke-width:0.654999;stroke-linecap:round;stroke-linejoin:round;stroke-miterlimit:10.1;stroke-dasharray:none;stroke-opacity:1;paint-order:fill markers stroke"
       id="rect29-1-7"
       width="29.934185"
       height="28.723785"
       x="88.318047"
       y="139.75578"
       ry="1.5854037" /><rect
       style="fill:#3f3f3f;fill-opacity:1;stroke:none;stroke-width:0.656;stroke-linecap:round;stroke-linejoin:round;stroke-miterlimit:10.1;stroke-dasharray:none;stroke-opacity:1;paint-order:fill markers stroke"
       id="rect29-9"
       width="29.934185"
       height="28.811655"
       x="84.666664"
       y="139.66058"
       ry="0"
       rx="0" /><rect
       style="fill:#5c5c5c;fill-opacity:1;stroke:none;stroke-width:0.558001;stroke-linecap:round;stroke-linejoin:round;stroke-miterlimit:10.1;stroke-dasharray:none;stroke-opacity:1;paint-order:fill markers stroke"
       id="rect19-44-3"
       width="2.6612904"
       height="24.661289"
       x="99.614883"
       y="130.02214"
       ry="0.062077738" /><rect
       style="fill:#5c5c5c;fill-opacity:1;stroke:none;stroke-width:0.558001;stroke-linecap:round;stroke-linejoin:round;stroke-miterlimit:10.1;stroke-dasharray:none;stroke-opacity:1;paint-order:fill markers stroke"
       id="rect20-2-7"
       width="14.301805"
       height="2.3836341"
       x="93.749512"
       y="134.77591"
       ry="0.062077738" /><path
       style="fill:#5b5b5b;fill-opacity:1;stroke:none;stroke-width:0.656;stroke-linecap:round;stroke-linejoin:round;stroke-miterlimit:10.1;stroke-dasharray:none;stroke-opacity:1;paint-order:fill markers stroke"
       id="path29-3-8"
       sodipodi:type="arc"
       sodipodi:cx="206.20805"
       sodipodi:cy="166.79143"
       sodipodi:rx="14.967093"
       sodipodi:ry="14.03165"
       sodipodi:start="0"
       sodipodi:end="6.2669335"
       sodipodi:open="true"
       sodipodi:arc-type="arc"
       d="m 221.17515,166.79143 a 14.967093,14.03165 0 0 1 -14.90629,14.03153 14.967093,14.03165 0 0 1 -15.02741,-13.91751 14.967093,14.03165 0 0 1 14.78418,-14.14463 14.967093,14.03165 0 0 1 15.14754,13.80258" /><path
       style="fill:#3f3f3f;fill-opacity:1;stroke:none;stroke-width:0.656;stroke-linecap:round;stroke-linejoin:round;stroke-miterlimit:10.1;stroke-dasharray:none;stroke-opacity:1;paint-order:fill markers stroke"
       id="path29-2"
       sodipodi:type="arc"
       sodipodi:cx="202.55669"
       sodipodi:cy="166.69623"
       sodipodi:rx="14.967093"
       sodipodi:ry="14.03165"
       sodipodi:start="0"
       sodipodi:end="6.2669335"
       sodipodi:open="true"
       sodipodi:arc-type="arc"
       d="m 217.52378,166.69623 a 14.967093,14.03165 0 0 1 -14.90628,14.03153 14.967093,14.03165 0 0 1 -15.02741,-13.91751 14.967093,14.03165 0 0 1 14.78417,-14.14463 14.967093,14.03165 0 0 1 15.14754,13.80258" /><rect
       style="fill:#5b5b5b;fill-opacity:1;stroke:none;stroke-width:0.654999;stroke-linecap:round;stroke-linejoin:round;stroke-miterlimit:10.1;stroke-dasharray:none;stroke-opacity:1;paint-order:fill markers stroke"
       id="rect29-1-6"
       width="29.934185"
       height="28.723785"
       x="191.24097"
       y="165.94954"
       ry="1.5854037" /><rect
       style="fill:#3f3f3f;fill-opacity:1;stroke:none;stroke-width:0.656;stroke-linecap:round;stroke-linejoin:round;stroke-miterlimit:10.1;stroke-dasharray:none;stroke-opacity:1;paint-order:fill markers stroke"
       id="rect29-4"
       width="29.934185"
       height="28.811655"
       x="187.58958"
       y="165.85434"
       ry="0"
       rx="0" /><rect
       style="fill:#5c5c5c;fill-opacity:1;stroke:none;stroke-width:0.558001;stroke-linecap:round;stroke-linejoin:round;stroke-miterlimit:10.1;stroke-dasharray:none;stroke-opacity:1;paint-order:fill markers stroke"
       id="rect19-44-5"
       width="2.6612904"
       height="24.661289"
       x="202.5378"
       y="156.2159"
       ry="0.062077738" /><rect
       style="fill:#5c5c5c;fill-opacity:1;stroke:none;stroke-width:0.558001;stroke-linecap:round;stroke-linejoin:round;stroke-miterlimit:10.1;stroke-dasharray:none;stroke-opacity:1;paint-order:fill markers stroke"
       id="rect20-2-5"
       width="14.301805"
       height="2.3836341"
       x="196.67242"
       y="160.96967"
       ry="0.062077738" /><path
       style="fill:#5b5b5b;fill-opacity:1;stroke:none;stroke-width:0.656;stroke-linecap:round;stroke-linejoin:round;stroke-miterlimit:10.1;stroke-dasharray:none;stroke-opacity:1;paint-order:fill markers stroke"
       id="path29-3-5"
       sodipodi:type="arc"
       sodipodi:cx="253.30389"
       sodipodi:cy="140.59767"
       sodipodi:rx="14.967093"
       sodipodi:ry="14.03165"
       sodipodi:start="0"
       sodipodi:end="6.2669335"
       sodipodi:open="true"
       sodipodi:arc-type="arc"
       d="m 268.27099,140.59767 a 14.967093,14.03165 0 0 1 -14.90629,14.03154 14.967093,14.03165 0 0 1 -15.02741,-13.91752 14.967093,14.03165 0 0 1 14.78418,-14.14463 14.967093,14.03165 0 0 1 15.14754,13.80258" /><path
       style="fill:#3f3f3f;fill-opacity:1;stroke:none;stroke-width:0.656;stroke-linecap:round;stroke-linejoin:round;stroke-miterlimit:10.1;stroke-dasharray:none;stroke-opacity:1;paint-order:fill markers stroke"
       id="path29-36"
       sodipodi:type="arc"
       sodipodi:cx="249.65251"
       sodipodi:cy="140.50247"
       sodipodi:rx="14.967093"
       sodipodi:ry="14.03165"
       sodipodi:start="0"
       sodipodi:end="6.2669335"
       sodipodi:open="true"
       sodipodi:arc-type="arc"
       d="m 264.61961,140.50247 a 14.967093,14.03165 0 0 1 -14.90629,14.03154 14.967093,14.03165 0 0 1 -15.02741,-13.91752 14.967093,14.03165 0 0 1 14.78417,-14.14463 14.967093,14.03165 0 0 1 15.14755,13.80258" /><rect
       style="fill:#5b5b5b;fill-opacity:1;stroke:none;stroke-width:0.654999;stroke-linecap:round;stroke-linejoin:round;stroke-miterlimit:10.1;stroke-dasharray:none;stroke-opacity:1;paint-order:fill markers stroke"
       id="rect29-1-3"
       width="29.934185"
       height="28.723785"
       x="238.33679"
       y="139.75578"
       ry="1.5854037" /><rect
       style="fill:#3f3f3f;fill-opacity:1;stroke:none;stroke-width:0.656;stroke-linecap:round;stroke-linejoin:round;stroke-miterlimit:10.1;stroke-dasharray:none;stroke-opacity:1;paint-order:fill markers stroke"
       id="rect29-5"
       width="29.934185"
       height="28.811655"
       x="234.68541"
       y="139.66058"
       ry="0"
       rx="0" /><rect
       style="fill:#5c5c5c;fill-opacity:1;stroke:none;stroke-width:0.558001;stroke-linecap:round;stroke-linejoin:round;stroke-miterlimit:10.1;stroke-dasharray:none;stroke-opacity:1;paint-order:fill markers stroke"
       id="rect19-44-9"
       width="2.6612904"
       height="24.661289"
       x="249.63362"
       y="130.02214"
       ry="0.062077738" /><rect
       style="fill:#5c5c5c;fill-opacity:1;stroke:none;stroke-width:0.558001;stroke-linecap:round;stroke-linejoin:round;stroke-miterlimit:10.1;stroke-dasharray:none;stroke-opacity:1;paint-order:fill markers stroke"
       id="rect20-2-1"
       width="14.301805"
       height="2.3836341"
       x="243.76825"
       y="134.77591"
       ry="0.062077738" /></g><g
     inkscape:groupmode="layer"
     id="layer8"
     inkscape:label="trawa tla"><path
       style="opacity:1;fill:#000000;fill-opacity:1;stroke:none;stroke-width:0.656;stroke-linecap:round;stroke-linejoin:round;stroke-miterlimit:10.1;stroke-dasharray:none;stroke-opacity:1;paint-order:fill markers stroke"
       d="M 35.321875,58.605208 38.761458,53.313541 40.878124,36.5125 33.3375,32.279166 27.119791,32.54375 25.929166,37.570833 28.575,41.142708 24.077083,39.422916 22.489583,30.559375 32.411458,28.575 40.613541,32.54375 V 28.575 L 29.897916,20.505208 19.182291,21.43125 18.520833,25.003125 14.948958,19.182291 18.785416,15.875 l 12.435417,0.926041 9.525,4.894792 -1.322917,-6.35 -5.953125,-6.4822914 -6.35,-1.8520834 -2.513541,3.7041668 2.778125,3.96875 -7.672917,-2.645833 2.645833,-4.8947921 5.027084,-3.8364583 12.567708,2.6458333 2.116666,9.3927081 3.836459,7.011458 0.529166,-14.8166661 -3.042708,-4.4979166 -3.571875,0.396875 2.513542,-2.51354165 7.672916,1.05833335 1.190625,5.6885416 -1.190625,13.4937494 5.159375,-15.4781244 9.128125,-0.396875 8.202083,7.6729164 -3.836458,4.7625 0.529167,-4.7625 -3.042709,-2.38125 -8.202083,-0.7937498 -4.630208,9.1281248 0.132292,6.879167 6.746875,-3.836459 11.377083,3.96875 1.322916,5.953125 -6.746875,2.778125 3.836459,-4.233333 -1.322917,-3.175 -6.746875,-2.38125 -7.276041,5.027083 -0.132292,7.9375 7.9375,0.264584 3.307292,3.571874 -4.7625,-1.984374 -5.688542,2.248958 0.926042,9.128125 3.307291,6.482291 z"
       id="path28" /><path
       style="fill:#151515;fill-opacity:0.57992566;stroke:none;stroke-width:0.656;stroke-linecap:round;stroke-linejoin:round;stroke-miterlimit:10.1;stroke-dasharray:none;stroke-opacity:1;paint-order:fill markers stroke"
       d="m 75.512618,57.702532 3.439583,-5.291667 2.116666,-16.801041 -7.540624,-4.233334 -6.217709,0.264584 -1.190625,5.027083 2.645834,3.571875 -4.497917,-1.719792 -1.5875,-8.863541 9.921875,-1.984375 8.202083,3.96875 v -3.96875 l -10.715625,-8.069792 -10.715625,0.926042 -0.661458,3.571875 -3.571875,-5.820834 3.836458,-3.307291 12.435417,0.926041 9.525,4.894792 -1.322917,-6.35 -5.953125,-6.4822907 -6.35,-1.8520841 -2.513541,3.7041671 2.778125,3.9687497 -7.672917,-2.645833 2.645833,-4.8947918 5.027084,-3.836458 12.567708,2.645833 2.116666,9.3927078 3.836459,7.011458 0.529166,-14.8166658 -3.042708,-4.497917 -3.571875,0.396875 2.513542,-2.51354096 7.672916,1.05833296 1.190625,5.688542 -1.190625,13.4937488 5.159375,-15.4781238 9.128123,-0.396875 8.20209,7.6729158 -3.83646,4.7625 0.52916,-4.7625 -3.0427,-2.3812497 -8.202088,-0.79375 -4.630208,9.1281247 0.132292,6.879167 6.746874,-3.836459 11.37708,3.96875 1.32292,5.953125 -6.74687,2.778125 3.83645,-4.233333 -1.32291,-3.175 -6.74688,-2.38125 -7.276039,5.027083 -0.132292,7.9375 7.937501,0.264584 3.30729,3.571874 -4.7625,-1.984374 -5.688541,2.248958 0.926042,9.128125 3.307291,6.482291 z"
       id="path28-6" /><path
       style="fill:#416945;fill-opacity:1;stroke:none;stroke-width:0.654977;stroke-linecap:round;stroke-linejoin:round;stroke-miterlimit:10.1;stroke-dasharray:none;stroke-opacity:1;paint-order:fill markers stroke"
       d="m 0.01013864,61.610903 58.37563036,-8.231902 23.872701,0.374177 144.35524,-9.354434 29.84087,-6.735191 40.5866,0.109594 0.0661,56.457332 -297.18839236,-0.0661 z"
       id="path27-9"
       sodipodi:nodetypes="ccccccccc" /><path
       style="fill:#000000;fill-opacity:1;stroke:none;stroke-width:0.656;stroke-linecap:round;stroke-linejoin:round;stroke-miterlimit:10.1;stroke-dasharray:none;stroke-opacity:1;paint-order:fill markers stroke"
       d="m 243.68124,59.531249 3.43959,-5.291667 2.11666,-16.801041 -7.54062,-4.233334 -6.21771,0.264584 -1.19062,5.027083 2.64583,3.571875 -4.49792,-1.719792 -1.5875,-8.863541 9.92188,-1.984375 8.20208,3.96875 v -3.96875 l -10.71562,-8.069792 -10.71563,0.926042 -0.66146,3.571875 -3.57187,-5.820834 3.83646,-3.307291 12.43541,0.926041 9.525,4.894792 -1.32291,-6.35 -5.95313,-6.4822907 -6.35,-1.852084 -2.51354,3.7041667 2.77812,3.96875 -7.67291,-2.645833 2.64583,-4.8947917 5.02708,-3.836458 12.56771,2.645833 2.11667,9.3927077 3.83646,7.011458 0.52916,-14.8166657 -3.0427,-4.497917 -3.57188,0.396875 2.51354,-2.513541 7.67292,1.058333 1.19062,5.688542 -1.19062,13.4937487 5.15937,-15.4781237 9.12813,-0.396875 8.20208,7.6729157 -3.83646,4.7625 0.52917,-4.7625 -3.04271,-2.38125 -8.20208,-0.79375 -4.63021,9.128125 0.13229,6.879167 6.74688,-3.836459 11.37708,3.96875 1.32292,5.953125 -6.74688,2.778125 3.83646,-4.233333 -1.32292,-3.175 -6.74687,-2.38125 -7.27604,5.027083 -0.13229,7.9375 7.9375,0.264584 3.30729,3.571874 -4.7625,-1.984374 -5.68854,2.248958 0.92604,9.128125 3.30729,6.482291 z"
       id="path28-3" /><path
       style="fill:#000000;fill-opacity:0.49070632;stroke:none;stroke-width:0.656;stroke-linecap:round;stroke-linejoin:round;stroke-miterlimit:10.1;stroke-dasharray:none;stroke-opacity:1;paint-order:fill markers stroke"
       d="m 178.59374,57.414583 3.43959,-5.291667 2.11666,-16.801041 -7.54062,-4.233334 -6.21771,0.264584 -1.19062,5.027083 2.64583,3.571875 -4.49792,-1.719792 -1.5875,-8.863541 9.92188,-1.984375 8.20208,3.96875 v -3.96875 l -10.71562,-8.069792 -10.71563,0.926042 -0.66146,3.571875 -3.57187,-5.820834 3.83646,-3.307291 12.43541,0.926041 9.525,4.894792 -1.32291,-6.35 -5.95313,-6.4822913 -6.35,-1.852083 -2.51354,3.704166 2.77812,3.9687503 -7.67291,-2.645833 2.64583,-4.8947923 5.02708,-3.8364581 12.56771,2.6458331 2.11667,9.3927083 3.83646,7.011458 0.52916,-14.8166663 -3.0427,-4.4979164 -3.57188,0.396875 2.51354,-2.51354161 7.67292,1.0583333 1.19062,5.68854171 -1.19062,13.4937493 5.15937,-15.4781243 9.12813,-0.3968751 8.20208,7.6729164 -3.83646,4.7625 0.52917,-4.7625 -3.04271,-2.3812503 -8.20208,-0.793749 -4.63021,9.1281243 0.13229,6.879167 6.74688,-3.836459 11.37708,3.96875 1.32292,5.953125 -6.74688,2.778125 3.83646,-4.233333 -1.32292,-3.175 -6.74687,-2.38125 -7.27604,5.027083 -0.13229,7.9375 7.9375,0.264584 3.30729,3.571874 -4.7625,-1.984374 -5.68854,2.248958 0.92604,9.128125 3.30729,6.482291 z"
       id="path28-5" /><path
       style="fill:#36573a;fill-opacity:1;stroke:none;stroke-width:0.654977;stroke-linecap:round;stroke-linejoin:round;stroke-miterlimit:10.1;stroke-dasharray:none;stroke-opacity:1;paint-order:fill markers stroke"
       d="M 0.09125091,83.841093 58.466882,68.499822 82.339583,68.873999 227.81735,64.38387 256.53569,52.784374 297.12229,46.907131 297.18839,109.3513 -9.4974312e-8,109.2852 Z"
       id="path27-8"
       sodipodi:nodetypes="ccccccccc" /><path
       style="opacity:1;fill:#2e4a31;fill-opacity:1;stroke:none;stroke-width:0.654977;stroke-linecap:round;stroke-linejoin:round;stroke-miterlimit:10.1;stroke-dasharray:none;stroke-opacity:1;paint-order:fill markers stroke"
       d="m -0.00233276,87.931674 58.37563076,-8.231902 23.872701,0.374177 144.355241,-9.354434 29.84087,-6.735191 40.5866,0.109594 0.0661,56.457332 -297.18839435,-0.0661 z"
       id="path27"
       sodipodi:nodetypes="ccccccccc" /></g><g
     inkscape:groupmode="layer"
     id="layer6"
     inkscape:label="budynek 2"><path
       style="fill:#393955;fill-opacity:1;stroke:none;stroke-width:0.597971;stroke-linecap:round;stroke-linejoin:round;stroke-miterlimit:10.1;stroke-opacity:1;paint-order:fill markers stroke"
       d="M 89.287584,122.14634 V 69.255622 L 109.5834,55.092943 h 10.95615 V 123.65034 H 89.646784 Z"
       id="path7-4" /><path
       style="fill:#393955;fill-opacity:1;stroke:none;stroke-width:0.485661;stroke-linecap:round;stroke-linejoin:round;stroke-miterlimit:10.1;stroke-opacity:1;paint-order:fill markers stroke"
       id="path8-2"
       sodipodi:type="arc"
       sodipodi:cx="104.98803"
       sodipodi:cy="84.896996"
       sodipodi:rx="8.5613699"
       sodipodi:ry="7.5551915"
       sodipodi:start="0"
       sodipodi:end="6.2669335"
       sodipodi:open="true"
       sodipodi:arc-type="arc"
       d="m 113.5494,84.896996 a 8.5613699,7.5551915 0 0 1 -8.52659,7.555129 8.5613699,7.5551915 0 0 1 -8.595868,-7.493737 8.5613699,7.5551915 0 0 1 8.456738,-7.616023 8.5613699,7.5551915 0 0 1 8.66459,7.43185" /><rect
       style="fill:#393955;fill-opacity:1;stroke:none;stroke-width:0.541778;stroke-linecap:round;stroke-linejoin:round;stroke-miterlimit:10.1;stroke-opacity:1;paint-order:fill markers stroke"
       id="rect9-6"
       width="17.075359"
       height="15.068568"
       x="96.458748"
       y="84.708588"
       ry="1.6600965"
       rx="0" /><path
       style="fill:#393955;fill-opacity:1;stroke:none;stroke-width:0.601311;stroke-linecap:round;stroke-linejoin:round;stroke-miterlimit:10.1;stroke-opacity:1;paint-order:fill markers stroke"
       d="M 233.45563,121.82601 V 68.935829 L 212.9323,55.428101 201.85333,55.334557 v 67.995433 h 31.23907 z"
       id="path7-8-6"
       sodipodi:nodetypes="ccccccc" /><path
       style="fill:#393955;fill-opacity:1;stroke:none;stroke-width:0.486501;stroke-linecap:round;stroke-linejoin:round;stroke-miterlimit:10.1;stroke-opacity:1;paint-order:fill markers stroke"
       id="path8-4-7"
       sodipodi:type="arc"
       sodipodi:cx="-217.71068"
       sodipodi:cy="84.585922"
       sodipodi:rx="8.5910788"
       sodipodi:ry="7.5551157"
       sodipodi:start="0"
       sodipodi:end="6.2669335"
       sodipodi:open="true"
       sodipodi:arc-type="arc"
       d="m -209.1196,84.585922 a 8.5910788,7.5551157 0 0 1 -8.55617,7.555054 8.5910788,7.5551157 0 0 1 -8.6257,-7.493662 8.5910788,7.5551157 0 0 1 8.48608,-7.615946 8.5910788,7.5551157 0 0 1 8.69466,7.431775"
       transform="scale(-1,1)" /><rect
       style="fill:#393955;fill-opacity:1;stroke:none;stroke-width:0.542527;stroke-linecap:round;stroke-linejoin:round;stroke-miterlimit:10.1;stroke-dasharray:none;stroke-opacity:1;paint-order:fill markers stroke"
       id="rect9-4-0"
       width="17.134609"
       height="15.068416"
       x="-226.26958"
       y="84.397522"
       ry="1.6600798"
       rx="0"
       transform="scale(-1,1)" /><path
       style="fill:#393955;fill-opacity:1;stroke:none;stroke-width:0.508958;stroke-linecap:round;stroke-linejoin:round;stroke-miterlimit:10.1;stroke-opacity:1;paint-order:fill markers stroke"
       d="M 120.1205,122.44603 V 26.522316 L 153.28873,3.2845934 202.04258,24.603292 v 97.592288 h -80.61981 z"
       id="path10-8"
       sodipodi:nodetypes="ccccccc" /><rect
       style="fill:#393955;fill-opacity:1;stroke:none;stroke-width:0.750003;stroke-linecap:round;stroke-linejoin:round;stroke-miterlimit:10.1;stroke-opacity:1;paint-order:fill markers stroke"
       id="rect3-4"
       width="151.69937"
       height="6.0218506"
       x="83.60833"
       y="117.986"
       ry="3.0109236" /><rect
       style="fill:#393955;fill-opacity:1;stroke:none;stroke-width:0.558001;stroke-linecap:round;stroke-linejoin:round;stroke-miterlimit:10.1;stroke-dasharray:none;stroke-opacity:1;paint-order:fill markers stroke"
       id="rect19-4"
       width="2.6612904"
       height="24.661289"
       x="159.97957"
       y="15.931924"
       ry="0.062077738" /><rect
       style="fill:#393955;fill-opacity:1;stroke:none;stroke-width:0.558001;stroke-linecap:round;stroke-linejoin:round;stroke-miterlimit:10.1;stroke-dasharray:none;stroke-opacity:1;paint-order:fill markers stroke"
       id="rect20-1"
       width="14.301805"
       height="2.3836341"
       x="154.11418"
       y="20.685684"
       ry="0.062077738" /></g><g
     inkscape:groupmode="layer"
     id="layer2"
     inkscape:label="budynek"><path
       style="opacity:1;fill:#5c5c5c;fill-opacity:1;stroke:none;stroke-width:0.597971;stroke-linecap:round;stroke-linejoin:round;stroke-miterlimit:10.1;stroke-opacity:1;paint-order:fill markers stroke"
       d="M 80.82599,122.66245 V 69.771736 l 20.29582,-14.162679 h 10.95615 V 124.16645 H 81.185195 Z"
       id="path7" /><path
       style="fill:#5c5c5c;fill-opacity:1;stroke:none;stroke-width:0.601311;stroke-linecap:round;stroke-linejoin:round;stroke-miterlimit:10.1;stroke-opacity:1;paint-order:fill markers stroke"
       d="M 224.99404,122.34212 V 69.451943 L 204.47071,55.289405 H 193.39174 V 123.8461 h 31.23907 z"
       id="path7-8" /><path
       style="opacity:1;fill:#3f3f3f;fill-opacity:1;stroke:none;stroke-width:0.508958;stroke-linecap:round;stroke-linejoin:round;stroke-miterlimit:10.1;stroke-opacity:1;paint-order:fill markers stroke"
       d="M 111.65891,122.96214 V 27.03843 L 153.05904,3.4265312 193.58099,25.119406 v 97.592284 h -80.61981 z"
       id="path10"
       sodipodi:nodetypes="ccccccc" /><rect
       style="opacity:1;fill:#3f3f3f;fill-opacity:1;stroke:none;stroke-width:0.750003;stroke-linecap:round;stroke-linejoin:round;stroke-miterlimit:10.1;stroke-opacity:1;paint-order:fill markers stroke"
       id="rect3"
       width="157.40555"
       height="6.0218506"
       x="75.146736"
       y="118.50211"
       ry="3.0109236" /><rect
       style="opacity:1;fill:#5c5c5c;fill-opacity:1;stroke:none;stroke-width:0.558001;stroke-linecap:round;stroke-linejoin:round;stroke-miterlimit:10.1;stroke-dasharray:none;stroke-opacity:1;paint-order:fill markers stroke"
       id="rect19"
       width="2.6612904"
       height="24.661289"
       x="151.51796"
       y="16.448034"
       ry="0.062077738" /><rect
       style="opacity:1;fill:#5c5c5c;fill-opacity:1;stroke:none;stroke-width:0.558001;stroke-linecap:round;stroke-linejoin:round;stroke-miterlimit:10.1;stroke-dasharray:none;stroke-opacity:1;paint-order:fill markers stroke"
       id="rect20"
       width="14.301805"
       height="2.3836341"
       x="145.65259"
       y="21.201797"
       ry="0.062077738" /></g><g
     inkscape:label="Warstwa 1"
     inkscape:groupmode="layer"
     id="layer1"><path
       style="opacity:1;fill:#783810;fill-opacity:1;stroke:none;stroke-width:1.35066;stroke-linecap:round;stroke-linejoin:miter;stroke-miterlimit:10.1;stroke-dasharray:none;stroke-opacity:1;paint-order:fill markers stroke"
       d="m 136.91381,171.60896 1.35555,3.3042 3.30424,1.77921 2.71113,-0.76251 0.50834,-4.91395 -4.82922,-2.03337 z"
       id="path6" /><path
       style="opacity:1;fill:#474747;fill-opacity:1;stroke:#000000;stroke-width:0.724559;stroke-linecap:round;stroke-linejoin:round;stroke-dasharray:none;stroke-opacity:0;paint-order:stroke fill markers"
       d="m 127.7263,178.39261 -0.89863,-0.83874 -0.56914,-7.18901 5.0575,-6.75725 1.92183,0.0776 3.35486,1.43779 2.8628,5.80829 -0.33891,2.71116 -8.30286,1.27087 z"
       id="path17"
       sodipodi:nodetypes="cccccccccc" /><path
       style="fill:#737272;fill-opacity:1;stroke:#000000;stroke-width:0.613035;stroke-linecap:round;stroke-linejoin:round;stroke-dasharray:none;stroke-opacity:0;paint-order:stroke fill markers"
       d="m 128.61251,175.73418 -0.79661,-0.6773 -0.16559,-5.5512 3.65813,-5.91453 2.14763,0.0101 3.27052,1.54234 2.28365,4.56326 -0.30045,2.18937 -8.41935,1.2804 z"
       id="path17-1"
       sodipodi:nodetypes="cccccccccc" /><path
       style="fill:#474747;fill-opacity:1;stroke:none;stroke-width:1.35066;stroke-linecap:round;stroke-linejoin:miter;stroke-miterlimit:10.1;stroke-dasharray:none;stroke-opacity:1;paint-order:fill markers stroke"
       d="m 133.54162,163.65645 2.03334,-1.77917 1.10142,0.0848 4.15145,1.27084 1.77917,2.03337 -1.27084,1.01667 -1.44029,1.18612 h -1.35558 l -1.94863,-0.16936 -1.60975,-1.60975 z"
       id="path5-7" /><path
       style="fill:#737272;fill-opacity:1;stroke:none;stroke-width:1.35066;stroke-linecap:round;stroke-linejoin:miter;stroke-miterlimit:10.1;stroke-dasharray:none;stroke-opacity:1;paint-order:fill markers stroke"
       d="m 134.21982,163.08699 2.03334,-1.77918 1.10141,0.0848 4.15145,1.27084 1.77918,2.03337 -1.27084,1.01667 -1.4403,1.18613 h -1.35558 l -1.94862,-0.16937 -1.60975,-1.60975 z"
       id="path5-7-2" /><path
       style="opacity:1;fill:#afadad;fill-opacity:1;stroke:none;stroke-width:1.35066;stroke-linecap:round;stroke-linejoin:miter;stroke-miterlimit:10.1;stroke-dasharray:none;stroke-opacity:1;paint-order:fill markers stroke"
       d="m 134.38365,163.26372 2.03334,-1.77917 1.10141,0.0848 4.15145,1.27084 1.77918,2.03337 -1.27084,1.01667 -1.4403,1.18612 h -1.35558 l -1.94862,-0.16938 -1.60975,-1.60973 z"
       id="path5" /><path
       style="fill:#afadad;fill-opacity:1;stroke:#000000;stroke-width:0.474599;stroke-linecap:round;stroke-linejoin:round;stroke-dasharray:none;stroke-opacity:0;paint-order:stroke fill markers"
       d="m 130.34555,173.15531 -0.15074,-3.61679 1.26155,-2.37627 2.0586,-3.57726 1.08872,1.91438 2.53194,1.19407 1.76797,3.53279 -0.23258,1.69494 -5.69821,0.79449 z"
       id="path17-1-0"
       sodipodi:nodetypes="cccccccccc" /><path
       style="fill:#474747;fill-opacity:1;stroke:#000000;stroke-width:0.833759;stroke-linecap:round;stroke-linejoin:round;stroke-dasharray:none;stroke-opacity:0;paint-order:stroke fill markers"
       d="m 129.84439,176.16752 9.68429,-1.40147 10.06405,3.80406 -5.12698,2.60278 0.56969,4.00434 -4.17756,1.20124 h -8.16515 l -5.31685,-3.20344 -0.37978,-4.00426 z"
       id="path11-1" /><path
       style="opacity:1;fill:#afadad;fill-opacity:1;stroke:#000000;stroke-width:0.724559;stroke-linecap:round;stroke-linejoin:round;stroke-dasharray:none;stroke-opacity:0;paint-order:stroke fill markers"
       d="m 168.70363,163.8648 -5.88308,2.28461 2.95805,5.67578 5.29141,-3.04784 3.04034,0.56913 -0.17964,-1.6325 -3.53459,-2.6809 z"
       id="path15"
       sodipodi:nodetypes="cccccccc" /><path
       style="opacity:1;fill:#b88135;fill-opacity:1;stroke:none;stroke-width:0.558001;stroke-linecap:round;stroke-linejoin:round;stroke-miterlimit:10.1;stroke-dasharray:none;stroke-opacity:1;paint-order:fill markers stroke"
       d="m 139.63078,149.54168 0.14269,10.29182 -2.02451,7.64816 0.62728,4.26545 9.78544,7.40181 6.02181,-0.87818 8.02908,-2.25818 2.38364,-3.13636 2.50909,-2.88545 -1.75637,-4.14 -2.75999,-5.51999 -3.13636,1.12909 2.13272,-13.04726 -2.13272,-5.7709 -3.76363,1.37999 -6.02182,-8.15454 -2.63454,11.91818 1.50545,5.51999 z"
       id="path20"
       sodipodi:nodetypes="ccccccccccccccccccc" /><path
       style="fill:#c0c02d;fill-opacity:1;stroke:none;stroke-width:0.486462;stroke-linecap:round;stroke-linejoin:round;stroke-miterlimit:10.1;stroke-dasharray:none;stroke-opacity:1;paint-order:fill markers stroke"
       d="m 141.33404,153.39287 0.12439,8.97235 -1.76495,6.66763 0.54686,3.7186 8.53089,6.45286 5.24979,-0.7656 6.99971,-1.96867 2.07804,-2.73426 2.18741,-2.51552 -1.53119,-3.60923 -2.40615,-4.8123 -2.73426,0.98434 1.8593,-11.37454 -1.8593,-5.03104 -3.28111,1.20307 -5.24979,-7.10909 -2.29678,10.39021 1.31244,4.8123 z"
       id="path20-3"
       sodipodi:nodetypes="ccccccccccccccccccc" /><path
       style="fill:#dcdc6b;fill-opacity:1;stroke:none;stroke-width:0.31477;stroke-linecap:round;stroke-linejoin:round;stroke-miterlimit:10.1;stroke-dasharray:none;stroke-opacity:1;paint-order:fill markers stroke"
       d="m 144.85511,159.84252 0.0805,5.80564 -1.14203,4.31435 0.35385,2.40615 5.51999,4.17538 3.39692,-0.49538 4.52922,-1.27385 1.34462,-1.76923 1.41538,-1.62768 -0.99077,-2.33539 -1.55692,-3.11384 -1.76923,0.63692 1.20308,-7.35999 -1.20308,-3.25538 -2.12307,0.77845 -3.39692,-4.59999 -1.48615,6.72307 0.84922,3.11384 z"
       id="path20-9"
       sodipodi:nodetypes="ccccccccccccccccccc" /><path
       style="fill:#afadad;fill-opacity:1;stroke:#000000;stroke-width:0.723028;stroke-linecap:round;stroke-linejoin:round;stroke-dasharray:none;stroke-opacity:0;paint-order:stroke fill markers"
       d="m 130.66862,174.82577 8.51964,-1.35578 8.9836,4.57571 -4.59725,1.44056 0.50611,3.38941 -3.71153,1.01686 h -7.25435 l -4.72375,-2.71156 -0.33738,-3.38941 z"
       id="path11-9"
       sodipodi:nodetypes="cccccccccc" /><path
       style="opacity:1;fill:#737272;fill-opacity:1;stroke:#000000;stroke-width:0.724559;stroke-linecap:round;stroke-linejoin:round;stroke-dasharray:none;stroke-opacity:0;paint-order:stroke fill markers"
       d="m 130.64429,175.92986 8.64177,-1.18612 8.98067,3.21946 -4.57505,2.20283 0.50834,3.38891 -3.72783,1.01669 H 133.186 l -4.7445,-2.71114 -0.33888,-3.38892 z"
       id="path11" /><path
       style="fill:#474747;fill-opacity:1;stroke:#000000;stroke-width:0.724559;stroke-linecap:round;stroke-linejoin:round;stroke-dasharray:none;stroke-opacity:0;paint-order:stroke fill markers"
       d="m 144.08116,182.05313 4.9542,-2.6512 4.57505,-2.37226 4.91395,-1.69448 4.57506,1.18612 2.37226,4.40562 0.0291,3.55838 -7.52708,1.60974 -13.3225,-0.79335 z"
       id="path12-1"
       sodipodi:nodetypes="cccccccccc" /><path
       style="fill:#afadad;fill-opacity:1;stroke:#000000;stroke-width:0.724559;stroke-linecap:round;stroke-linejoin:round;stroke-dasharray:none;stroke-opacity:0;paint-order:stroke fill markers"
       d="m 161.45227,174.4816 1.18002,0.61469 3.31696,-4.00431 4.91395,-1.52506 4.57507,1.7792 2.07572,4.40562 0.16938,3.64308 -7.37091,1.52503 -13.3225,-0.79335 z"
       id="path12-7-2"
       sodipodi:nodetypes="cccccccccc" /><path
       style="fill:#afadad;fill-opacity:1;stroke:#000000;stroke-width:0.724559;stroke-linecap:round;stroke-linejoin:round;stroke-dasharray:none;stroke-opacity:0;paint-order:stroke fill markers"
       d="m 144.2718,180.44288 4.9542,-3.15954 4.57503,-2.62642 4.91396,-1.52506 4.39535,2.31838 1.15795,1.98504 1.0975,1.8814 0.16937,3.64307 -7.37092,1.52504 -13.3225,-0.79335 z"
       id="path12-7"
       sodipodi:nodetypes="ccccccccccc" /><path
       style="fill:#474747;fill-opacity:1;stroke:#000000;stroke-width:0.724559;stroke-linecap:round;stroke-linejoin:round;stroke-dasharray:none;stroke-opacity:0;paint-order:stroke fill markers"
       d="m 156.22934,178.4882 4.95421,-2.65121 4.57504,-2.37225 4.91395,-1.69449 4.57507,1.18612 2.37225,4.40562 0.0291,3.55838 -7.52707,1.60975 -13.3225,-0.79335 z"
       id="path12-1-9"
       sodipodi:nodetypes="cccccccccc" /><path
       style="fill:#737272;fill-opacity:1;stroke:#000000;stroke-width:0.724559;stroke-linecap:round;stroke-linejoin:round;stroke-dasharray:none;stroke-opacity:0;paint-order:stroke fill markers"
       d="m 165.70329,178.87582 -1.63571,-3.37013 -1.38604,-0.31859 3.32511,-2.65259 3.34734,-1.15427 1.56661,-0.54022 4.57508,1.18613 2.07572,4.40562 0.16937,3.64308 -7.37092,1.52504 -4.0367,-0.73344 z m 0.1683,-0.37482 -1.63571,-3.37011 -1.38605,-0.31859 3.32512,-2.65259 3.34734,-1.15429 1.5666,-0.5402 4.57507,1.18612 2.07573,4.40562 0.16937,3.64309 -7.37091,1.52502 -4.03669,-0.73343 z"
       id="path12-0"
       sodipodi:nodetypes="cccccccccccc" /><path
       style="opacity:1;fill:#737272;fill-opacity:1;stroke:#000000;stroke-width:0.724559;stroke-linecap:round;stroke-linejoin:round;stroke-dasharray:none;stroke-opacity:0;paint-order:stroke fill markers"
       d="m 144.32922,181.12278 4.95421,-2.65121 4.57505,-2.37225 3.34734,-1.15428 1.5666,-0.54021 4.57507,1.18612 2.07573,4.40562 0.16937,3.64309 -7.37091,1.52502 -13.3225,-0.79335 z"
       id="path12"
       sodipodi:nodetypes="ccccccccccc" /><path
       style="opacity:1;fill:#737272;fill-opacity:1;stroke:#000000;stroke-width:0.724559;stroke-linecap:round;stroke-linejoin:round;stroke-dasharray:none;stroke-opacity:0;paint-order:stroke fill markers"
       d="m 175.75944,171.14298 0.0848,-1.3132 -1.77921,-2.37225 -5.42227,-3.64312 5.21046,3.93965 0.16938,1.525 -2.92297,-0.55069 -1.99098,0.59308 3.21949,0.42362 z"
       id="path14" /><path
       style="opacity:1;fill:#474747;fill-opacity:1;stroke:#000000;stroke-width:0.724559;stroke-linecap:round;stroke-linejoin:round;stroke-dasharray:none;stroke-opacity:0;paint-order:stroke fill markers"
       d="m 164.95721,172.41384 1.44029,-1.35558 3.98203,-1.10141 3.98197,1.10141 1.39794,0.67779 -0.0424,-0.72014 -3.30421,-1.39794 -3.34657,-0.29652 -3.09239,1.44029 z"
       id="path13" /></g></svg>
