<?xml version="1.0" encoding="UTF-8" standalone="no"?>
<!-- Created with Inkscape (http://www.inkscape.org/) -->

<svg
   width="210mm"
   height="297mm"
   viewBox="0 0 210 297"
   version="1.1"
   id="svg1"
   inkscape:version="1.3 (0e150ed6c4, 2023-07-21)"
   sodipodi:docname="Soothsayer.svg"
   xmlns:inkscape="http://www.inkscape.org/namespaces/inkscape"
   xmlns:sodipodi="http://sodipodi.sourceforge.net/DTD/sodipodi-0.dtd"
   xmlns="http://www.w3.org/2000/svg"
   xmlns:svg="http://www.w3.org/2000/svg">
  <sodipodi:namedview
     id="namedview1"
     pagecolor="#505050"
     bordercolor="#eeeeee"
     borderopacity="1"
     inkscape:showpageshadow="0"
     inkscape:pageopacity="0"
     inkscape:pagecheckerboard="0"
     inkscape:deskcolor="#505050"
     inkscape:document-units="mm"
     inkscape:zoom="0.99150695"
     inkscape:cx="183.05469"
     inkscape:cy="552.18977"
     inkscape:window-width="1920"
     inkscape:window-height="1001"
     inkscape:window-x="-9"
     inkscape:window-y="-9"
     inkscape:window-maximized="1"
     inkscape:current-layer="layer1" />
  <defs
     id="defs1" />
  <g
     inkscape:label="Warstwa 1"
     inkscape:groupmode="layer"
     id="layer1">
    <path
       style="display:inline;fill:#e9c6af;stroke-width:0.203917"
       d="m 104.25187,183.93396 1.3083,-53.45419 2.28943,-44.736962 10.28305,0.10157 16.56178,-0.143962 5.66634,0.669324 8.51515,14.72141 0.90993,17.65677 -2.81899,14.14166 -3.08582,14.14166 -7.05109,9.28197 -7.39607,15.25115 2.62951,23.75604 -17.34159,0.0192 -8.51162,-0.13367 -2.8687,-0.23487 z"
       id="path10"
       sodipodi:nodetypes="ccccccccccccccccc" />
    <path
       style="display:inline;fill:#deaa87;stroke-width:0.203133"
       d="m 85.79133,171.44602 -5.48619,-16.08011 -6.974244,-6.53204 -6.51848,-16.82399 -0.128421,-15.1095 0.128425,-7.75355 3.013087,-8.57052 4.74762,-14.574628 3.22774,-0.140594 29.721703,-0.205511 0.45457,0.108832 -0.12176,7.367522 -2.30095,61.053229 -0.68892,15.43665 -1.16567,25.50785 -2.55354,0.0108 -3.676443,0.0303 -15.34321,0.0896 z"
       id="path11"
       sodipodi:nodetypes="ccccccccccccccccccc" />
    <path
       style="fill:#cccccc;stroke-width:0.206295"
       d="m 78.292387,174.98248 19.94977,0.59099 6.867083,20.61921 -0.20883,19.66883 -49.602493,0.96214 z"
       id="path12"
       sodipodi:nodetypes="cccccc" />
    <path
       style="fill:#ececec;stroke-width:0.206295"
       d="m 115.12792,174.6513 21.36494,0.11584 15.05502,41.47601 -47.66841,-0.0843 -0.18209,-23.28234 z"
       id="path12-3"
       sodipodi:nodetypes="cccccc" />
    <rect
       style="fill:#000000;stroke-width:0.290894"
       id="rect12"
       width="4.6698699"
       height="14.192745"
       x="124.11047"
       y="106.00587" />
    <rect
       style="fill:#000000;stroke-width:0.238723"
       id="rect13"
       width="5.7372684"
       height="12.165227"
       x="84.616707"
       y="107.34013" />
    <path
       style="fill:#000000;stroke-width:0.264583"
       d="m 83.197957,149.57054 16.03875,9.15152"
       id="path14" />
    <rect
       style="fill:#000000;stroke-width:0.264583"
       id="rect15"
       width="21.081125"
       height="3.0687716"
       x="95.557541"
       y="144.83252" />
    <rect
       style="fill:#000000;stroke-width:0.264583"
       id="rect16"
       width="21.322109"
       height="3.0190597"
       x="77.914604"
       y="100.51082" />
    <rect
       style="fill:#000000;stroke-width:0.264583"
       id="rect17"
       width="22.454258"
       height="3.2077508"
       x="114.89808"
       y="98.812599" />
    <path
       style="fill:#a05a2c;stroke-width:0.264583"
       d="m 174.96342,113.23547 12.58274,-1.8699 -0.70772,-19.185772 -14.50513,2.529091 -8.3692,9.944811 -5.86905,103.65531 -1.45513,12.86286 6.64144,0.1014 z"
       id="path1"
       sodipodi:nodetypes="ccccccccc" />
    <path
       style="fill:#e6e6e6;stroke-width:0.494887"
       d="M 142.01945,80.996721 114.76099,77.42631 73.413168,81.199085 71.226869,87.020303 125.19023,86.714641 143.19112,86.21446 Z"
       id="path18-8-3"
       sodipodi:nodetypes="ccccccc" />
    <path
       style="fill:#a05a2c;stroke-width:0.264583"
       d="m 13.342485,216.4151 13.609336,0.26685"
       id="path3" />
    <path
       style="fill:#a05a2c;stroke-width:0.198528"
       d="m 33.431903,216.98647 11.861928,-1.3942 -4.116716,-58.51827 19.634943,-1.46622 -1.633059,-13.68912 -19.432521,1.66547 -0.661429,-13.32677 -13.035983,0.83256 0.634432,12.90409 -16.7875373,1.49655 1.0932733,14.14802 17.543246,-1.54482 z"
       id="path4"
       sodipodi:nodetypes="ccccccccccccc" />
    <path
       style="fill:#b3b3b3;stroke-width:0.499584"
       d="m 104.83471,168.07085 0.91126,-18.58012 -17.543301,-0.61714 -21.067521,-16.30414 1.699579,18.87383 14.477749,11.40511 z"
       id="path18"
       sodipodi:nodetypes="ccccccc" />
    <path
       style="fill:#cccccc;stroke-width:0.510472"
       d="m 104.74427,168.08268 0.78913,-18.63985 19.98082,-0.85057 22.15548,-19.03482 -1.67348,20.33375 -12.77947,12.13074 z"
       id="path18-6"
       sodipodi:nodetypes="ccccccc" />
    <path
       style="fill:#b3b3b3;stroke-width:0.198962"
       d="m 105.45902,135.98155 0.68618,4.61669 -12.377848,0.9167 -10.052599,4.56725 -7.479674,-1.13282 16.583083,-8.12592 z"
       id="path18-8"
       sodipodi:nodetypes="ccccccc" />
    <path
       style="fill:#cccccc;stroke-width:0.236036"
       d="m 105.40404,135.98262 0.0549,4.71696 24.40375,6.98002 6.02598,0.0874 6.1218,-3.34791 -14.5288,-5.9928 z"
       id="path18-6-7"
       sodipodi:nodetypes="ccccccc" />
  </g>
</svg>
