<?xml version="1.0" encoding="UTF-8" standalone="no"?>
<!-- Created with Inkscape (http://www.inkscape.org/) -->

<svg
   width="660"
   height="510"
   viewBox="0 0 174.62503 134.9375"
   version="1.1"
   id="svg1"
   xml:space="preserve"
   sodipodi:docname="wzór.svg"
   inkscape:version="1.3 (0e150ed6c4, 2023-07-21)"
   xmlns:inkscape="http://www.inkscape.org/namespaces/inkscape"
   xmlns:sodipodi="http://sodipodi.sourceforge.net/DTD/sodipodi-0.dtd"
   xmlns="http://www.w3.org/2000/svg"
   xmlns:svg="http://www.w3.org/2000/svg"><sodipodi:namedview
     id="namedview1"
     pagecolor="#ffffff"
     bordercolor="#000000"
     borderopacity="0.25"
     inkscape:showpageshadow="2"
     inkscape:pageopacity="0.0"
     inkscape:pagecheckerboard="0"
     inkscape:deskcolor="#d1d1d1"
     inkscape:document-units="mm"
     inkscape:zoom="1.0544998"
     inkscape:cx="408.25044"
     inkscape:cy="344.71321"
     inkscape:window-width="1018"
     inkscape:window-height="1033"
     inkscape:window-x="752"
     inkscape:window-y="42"
     inkscape:window-maximized="0"
     inkscape:current-layer="layer1-9-9" /><defs
     id="defs1" /><g
     inkscape:label="Warstwa 1"
     inkscape:groupmode="layer"
     id="layer1"><g
       inkscape:label="Warstwa 1"
       id="layer1-94"
       transform="translate(-9.0755263,-66.232026)"><g
         inkscape:label="Warstwa 1"
         id="layer1-4-5"
         transform="translate(-219.9045,28.683068)"><g
           inkscape:label="Warstwa 1"
           id="layer1-85"
           transform="translate(205.64297,-38.795969)"><g
             inkscape:label="Warstwa 1"
             id="layer1-4-5-5"
             transform="translate(-219.9045,28.683068)"><g
               inkscape:label="Warstwa 1"
               id="layer1-89"
               transform="translate(215.09434,-19.812097)"><g
                 inkscape:label="Warstwa 1"
                 id="layer1-4-5-3"
                 transform="translate(-219.9045,28.683068)"><g
                   inkscape:label="Warstwa 1"
                   id="layer1-3"
                   transform="translate(216.58408,-22.545672)"><g
                     inkscape:label="Warstwa 1"
                     id="layer1-4-5-0"
                     transform="translate(-219.9045,28.683068)"><g
                       inkscape:label="Warstwa 1"
                       id="layer1-5"
                       transform="translate(235.55056,-57.445467)"><g
                         inkscape:label="Warstwa 1"
                         id="layer1-82"
                         transform="translate(3.4917715,0.02991942)"><g
                           inkscape:label="Warstwa 1"
                           id="layer1-4"
                           transform="translate(4.0047418,-19.301403)" /><g
                           inkscape:label="Warstwa 1"
                           id="layer1-9-0"
                           transform="translate(5.6147241,27.412809)"><g
                             inkscape:label="Warstwa 1"
                             id="layer1-91"
                             transform="translate(-9.9894822,-11.317072)"><g
                               inkscape:label="Warstwa 1"
                               id="layer1-898"
                               transform="translate(-24.173773,-1.2140415)"><g
                                 inkscape:label="Warstwa 1"
                                 id="layer1-0"
                                 transform="translate(19.870968,20.947557)"><g
                                   inkscape:label="Warstwa 1"
                                   id="layer1-9-2"
                                   transform="translate(5.6147241,27.412809)"><g
                                   inkscape:label="Warstwa 1"
                                   id="layer1-42"
                                   transform="translate(-40.450142,-139.45711)"><g
                                   inkscape:label="Warstwa 1"
                                   id="layer1-4-5-4"
                                   transform="translate(-219.9045,28.683068)"><path
                                   style="fill:#a05a2c;stroke-width:0.264583"
                                   d="m 13.342485,216.4151 13.609336,0.26685"
                                   id="path3-6" /></g><g
                                   inkscape:label="Warstwa 1"
                                   id="layer1-9-9"
                                   transform="matrix(0.81552753,0,0,0.81552753,30.624237,67.108448)"><rect
                                   style="fill:#241a1a;fill-opacity:1;stroke:none;stroke-width:1.12688;stroke-linecap:round;stroke-linejoin:round;stroke-miterlimit:10.1;stroke-dasharray:none;stroke-opacity:1;paint-order:fill markers stroke"
                                   id="rect53"
                                   width="214.07082"
                                   height="165.77435"
                                   x="31.358091"
                                   y="121.60919"
                                   ry="1.9579647" /><path
                                   style="fill:#4b1843;fill-opacity:1;stroke:none;stroke-width:2.82522;stroke-linecap:round;stroke-linejoin:round;stroke-miterlimit:10.1;stroke-opacity:1;paint-order:fill markers stroke"
                                   d="m 125.55795,236.69401 -8.59018,-5.8739 -85.901881,0.43511 v 5.87389 z"
                                   id="path49" /><path
                                   style="fill:#4b1843;fill-opacity:1;stroke:none;stroke-width:2.82751;stroke-linecap:round;stroke-linejoin:round;stroke-miterlimit:10.1;stroke-opacity:1;paint-order:fill markers stroke"
                                   d="m 43.244902,263.44252 0.304203,-25.53616 H 31.076822 v -1.84598 l 94.606828,0.30766 -0.9126,2.15366 H 97.392862 l -0.304201,26.45914 -3.04202,-0.92299 0.3042,-25.84382 H 45.98272 v 24.92082 z"
                                   id="path48" /><path
                                   style="fill:#4b1843;fill-opacity:1;stroke:none;stroke-width:2.84356;stroke-linecap:round;stroke-linejoin:round;stroke-miterlimit:10.1;stroke-opacity:1;paint-order:fill markers stroke"
                                   d="m 30.922989,263.13485 214.134481,0.923 -0.30766,23.3825 -213.826821,-0.61533 z"
                                   id="path47" /><path
                                   style="display:inline;fill:#e9c6af;stroke-width:0.130265"
                                   d="m 142.60727,266.07824 0.83576,-34.14729 1.46252,-28.5786 6.56896,0.0649 10.57989,-0.092 3.61973,0.42758 2.88259,10.42705 3.13829,10.25658 -0.0961,9.0339 -1.47191,9.23043 -3.43739,7.8046 -6.92478,6.49172 0.60886,16.35493 -11.07805,0.0123 -5.43734,-0.0854 -1.83257,-0.15004 z"
                                   id="path10-7-2-2"
                                   sodipodi:nodetypes="ccccccccccccccccc" /><path
                                   style="fill:#e2b597;fill-opacity:1;stroke:none;stroke-width:2.84356;stroke-linecap:round;stroke-linejoin:round;stroke-miterlimit:10.1;stroke-opacity:1;paint-order:fill markers stroke"
                                   d="m 164.71725,248.8769 2.28429,-9.13717 3.80716,-6.52655 z"
                                   id="path43" /><path
                                   style="display:inline;fill:#deaa87;stroke-width:0.129764"
                                   d="m 128.88515,256.70493 -7.20081,-8.53543 -1.38683,-4.17276 -2.80036,-11.42927 0.0884,-9.31122 0.42297,-4.95309 2.60668,-5.47496 3.03284,-9.31048 2.06193,-0.0898 18.98664,-0.13128 0.29038,0.0695 -0.0778,4.70647 -1.46988,39.00167 -0.44009,9.86115 -0.74464,16.29477 -1.63124,0.007 -2.34856,0.0194 -9.80146,0.0572 z"
                                   id="path11-58-23-3"
                                   sodipodi:nodetypes="ccccccccccccccccccc" /><path
                                   style="fill:#623c62;fill-opacity:1;stroke-width:0.131784"
                                   d="m 126.02399,260.35991 12.74419,0.37753 4.38679,13.17184 -0.23167,13.15434 -31.5885,0.025 z"
                                   id="path12-6-1-7"
                                   sodipodi:nodetypes="cccccc" /><path
                                   style="fill:#805480;fill-opacity:1;stroke-width:0.131784"
                                   d="m 149.55504,260.14834 13.64823,0.074 9.56823,26.8394 -30.30386,-0.004 -0.21459,-15.26616 z"
                                   id="path12-3-0-2-9"
                                   sodipodi:nodetypes="cccccc" /><path
                                   style="fill:#e4bb9f;fill-opacity:1;stroke:none;stroke-width:2.8493;stroke-linecap:round;stroke-linejoin:round;stroke-miterlimit:10.1;stroke-opacity:1;paint-order:fill markers stroke"
                                   d="m 151.15079,225.01657 1.95685,6.19239 6.84893,1.8213 -3.718,-1.8213 -3.22878,-4.73535 4.20721,-0.24285 5.47915,-2.54982 1.17411,-2.30696 1.46763,-2.4284 -5.08779,-3.1569 -6.35973,-0.48568 -5.87052,4.37111 -2.64173,-0.6071 1.76115,2.5498 2.83742,0.48569 1.56548,0.24283 z"
                                   id="path30-9" /><rect
                                   style="fill:#000000;stroke-width:0.154872"
                                   id="rect12-5-9-6"
                                   width="2.9831784"
                                   height="6.297544"
                                   x="155.2932"
                                   y="216.29668" /><path
                                   style="fill:#daa17a;fill-opacity:1;stroke:none;stroke-width:2.84356;stroke-linecap:round;stroke-linejoin:round;stroke-miterlimit:10.1;stroke-opacity:1;paint-order:fill markers stroke"
                                   d="m 137.41452,225.055 -2.17552,5.54756 -7.6143,1.63164 4.13348,-1.63164 3.5896,-4.24225 -4.67736,-0.21756 -6.09145,-2.28429 -1.30531,-2.06674 -1.63164,-2.17552 5.65635,-2.82816 7.07043,-0.43511 6.52655,3.91593 2.93694,-0.54388 -1.95796,2.28429 -3.1545,0.43511 -1.74042,0.21755 z"
                                   id="path30" /><rect
                                   style="fill:#000000;stroke-width:0.134879"
                                   id="rect13-5-4-7"
                                   width="3.6650474"
                                   height="6.0791626"
                                   x="130.06404"
                                   y="217.14902" /><path
                                   style="fill:#000000;stroke-width:0.169019"
                                   d="m 129.15774,244.1264 10.24578,5.84612"
                                   id="path14-6-8-6" /><rect
                                   style="fill:#730a07;fill-opacity:1;stroke-width:0.123052"
                                   id="rect15-4-1-9"
                                   width="9.8043985"
                                   height="1.4272227"
                                   x="72.831169"
                                   y="271.20627"
                                   transform="rotate(-13.492415)" /><rect
                                   style="fill:#730a07;fill-opacity:1;stroke-width:0.119286"
                                   id="rect15-4-1-9-6"
                                   width="9.3078213"
                                   height="1.4127344"
                                   x="-192.47714"
                                   y="207.8853"
                                   transform="matrix(-0.97630574,-0.21639571,-0.16975386,0.98548649,0,0)" /><rect
                                   style="fill:#494949;fill-opacity:1;stroke-width:0.169019"
                                   id="rect16-6-4-2"
                                   width="13.620862"
                                   height="1.9286176"
                                   x="146.59312"
                                   y="198.37866"
                                   transform="rotate(5.767919)" /><rect
                                   style="fill:#494949;fill-opacity:1;stroke-width:0.169019"
                                   id="rect17-2-8-7"
                                   width="14.344094"
                                   height="2.0491562"
                                   x="112.89293"
                                   y="234.25009"
                                   transform="rotate(-9.3194331)" /><path
                                   style="fill:#494949;fill-opacity:1;stroke:none;stroke-width:1.81651;stroke-linecap:round;stroke-linejoin:round;stroke-miterlimit:10.1;stroke-opacity:1;paint-order:fill markers stroke"
                                   d="m 101.22514,215.3485 -3.806999,-2.00321 -2.362575,-2.91848 -0.972825,-2.36257 0.972825,-2.2236 2.640525,-1.52873 2.501549,-0.27795 4.03027,1.1118 2.36258,0.5559 2.50155,0.97283 2.77951,0.13897 1.6677,-0.97282 1.38975,-2.36258 0.69487,-1.52873 -0.69487,3.75233 0.13897,0.83385 2.2236,0.13898 3.05745,-0.13898 4.72516,-0.27795 2.77949,-0.5559 2.36258,-0.83385 0.97283,-1.1118 -0.41693,-1.38975 0.13898,-2.08463 0.83385,3.05746 0.83385,0.5559 3.19643,0.83385 3.75232,0.13897 3.19643,0.13898 2.64052,0.27794 3.05745,0.41693 h 1.38975 l 0.13898,-0.83385 -0.5559,-2.7795 1.38975,2.91848 2.08462,0.27794 3.05745,0.27796 3.47438,0.13897 4.72515,0.13898 2.2236,0.41692 0.27795,-0.83385 0.83385,1.38975 2.08462,0.5559 3.19643,1.25078 6.53183,1.94564 1.6677,0.13898 -0.83385,-1.6677 2.2236,2.2236 3.8913,2.08463 4.86413,1.25077 1.6677,0.13898 -2.2236,-8.06055 -6.94875,-5.83696 -9.45031,-6.6708 -6.1149,-3.89129 v -3.05746 l -3.61335,-5.559 -1.1118,-4.72515 0.27795,-3.3354 -3.61335,-7.50465 -0.5559,-3.89131 2.50155,-2.50155 2.50155,-4.72515 3.05745,-2.50155 -1.6677,-3.61335 v -3.8913 l 3.3354,-8.33851 -11.6739,11.95186 -5.28105,4.16925 -0.5559,2.7795 -4.4472,1.1118 -4.72516,0.83385 -3.89129,2.7795 -5.83696,5.83696 -3.3354,7.7826 -1.94565,7.2267 -1.38975,6.94875 -1.94565,1.38975 -9.4503,2.2236 -10.28416,4.4472 -5.558998,2.2236 -4.169251,3.05746 -0.5559,3.3354 -1.389751,2.2236 0.277951,2.77949 3.220269,3.64708 z"
                                   id="path20"
                                   sodipodi:nodetypes="ccccccccccccccccccccccccccccccccccccccccccccccccccccccccccccccccccccccccccccccccccccccc" /><path
                                   style="fill:#3e3e3e;fill-opacity:1;stroke:none;stroke-width:1.81651;stroke-linecap:round;stroke-linejoin:round;stroke-miterlimit:10.1;stroke-opacity:1;paint-order:fill markers stroke"
                                   d="m 157.23485,183.14989 -10.61318,-1.37578 -11.2028,0.39308 -6.19102,1.57232 7.17372,-4.02907 -3.34118,0.68789 -3.34119,1.9654 -1.27751,2.06368 0.19654,-2.75157 -2.06367,6.19102 6.87891,-1.17924 15.42842,-0.19654 7.46853,0.39308 8.15643,2.06367 -0.0983,-2.9481 z"
                                   id="path26" /><path
                                   style="fill:#d89b72;fill-opacity:1;stroke:none;stroke-width:2.84356;stroke-linecap:round;stroke-linejoin:round;stroke-miterlimit:10.1;stroke-opacity:1;paint-order:fill markers stroke"
                                   d="m 117.94365,232.56053 0.76143,4.45981 3.04572,6.63532 -0.87021,3.04573 2.39307,3.26327 3.1545,3.91593 -2.93695,-6.09145 -1.52286,-6.20022 -1.30531,-6.20022 z"
                                   id="path44" /><rect
                                   style="fill:#4b1843;fill-opacity:1;stroke:none;stroke-width:1.12688;stroke-linecap:round;stroke-linejoin:round;stroke-miterlimit:10.1;stroke-dasharray:none;stroke-opacity:1;paint-order:fill markers stroke"
                                   id="rect52"
                                   width="54.148949"
                                   height="34.150761"
                                   x="181.06325"
                                   y="177.60413"
                                   ry="1.9579647" /><path
                                   style="fill:#4b4b4b;fill-opacity:1;stroke:none;stroke-width:1.81651;stroke-linecap:round;stroke-linejoin:round;stroke-miterlimit:10.1;stroke-opacity:1;paint-order:fill markers stroke"
                                   d="m 126.74188,248.22802 -5.42003,2.7795 0.5559,2.77951 1.1118,3.47437 2.91848,1.6677 -0.69488,1.80668 -3.05745,-0.83385 -2.91848,-3.61335 -0.97282,-2.50155 -1.52873,2.08462 0.97283,3.3354 -2.36258,0.83385 -2.7795,-3.47437 -0.27795,-5.83696 -3.8913,1.25078 -0.97283,2.91848 -2.64052,0.69487 -3.05746,-2.7795 -0.69487,-3.47437 -0.13898,-1.25078 -3.613343,1.1118 -2.362576,1.38975 -3.891301,-0.83385 -0.5559,-2.64053 -0.833851,-3.19642 0.555901,-4.03028 1.1118,-3.19643 1.528725,-1.66769 c 0,0 -0.555899,-1.11181 -0.83385,-1.66771 -0.27795,-0.55589 -2.084625,-2.7795 -2.084625,-2.7795 l 0.27795,-3.05744 0.972825,-1.25078 4.169251,-2.50155 0.416925,-4.86413 0.83385,-2.36257 c 0,0 3.057452,0.27795 3.613349,0.27795 0.5559,0 1.52872,-1.94565 1.52872,-1.94565 l -0.97282,-1.80668 -3.196423,-1.25078 v -5.559 l 0.833851,-2.08462 4.725142,-0.97283 25.01551,-5.42003 24.87654,-0.69487 24.45961,4.86412 5.97592,4.44721 2.08463,7.7826 -0.41693,3.19643 -1.6677,1.1118 1.38975,3.8913 0.97283,4.16925 -0.5559,1.94565 -2.22361,-1.52873 -2.50154,-0.41692 0.83385,2.7795 2.91847,3.05745 0.41692,3.8913 2.22361,5.28105 0.5559,2.50155 -1.38975,2.91848 -3.19643,4.03027 -3.3354,-0.41692 1.25078,2.2236 -1.80668,-0.13898 -0.27795,-1.80667 -1.38975,0.83385 0.97283,3.75232 -1.6677,3.47438 -2.36258,0.83385 -2.2236,1.25078 -2.64053,1.25077 -1.80667,0.41693 h -1.52873 l 0.69488,2.64052 -3.19643,1.11181 -1.80668,-3.19643 -1.6677,-1.80668 0.55591,-3.3354 2.36257,-2.91848 1.6677,-3.19642 v -2.64052 l 2.91848,-7.64364 c 0,0 3.3354,-8.19952 3.19642,-8.75542 -0.13897,-0.5559 -0.5559,-6.39285 -0.83385,-7.2267 -0.27794,-0.83386 -2.22359,-6.94876 -2.22359,-6.94876 0,0 0.41692,-2.08462 0.41692,-2.91847 0,-0.83385 -3.89131,-10.28415 -3.89131,-10.28415 l 2.22361,-2.2236 -4.86413,-2.64053 -22.51395,-1.25078 -15.84316,0.69488 v 5.69798 l -1.25078,4.4472 -1.25077,4.58618 -2.2236,2.50155 -0.5559,2.36257 -0.13898,5.14207 0.69488,3.05746 -0.69488,3.3354 0.5559,4.16925 1.6677,4.58618 1.80668,3.3354 -0.69488,3.19642 z"
                                   id="path27" /><path
                                   style="fill:#3e3e3e;fill-opacity:1;stroke:none;stroke-width:1.81651;stroke-linecap:round;stroke-linejoin:round;stroke-miterlimit:10.1;stroke-opacity:1;paint-order:fill markers stroke"
                                   d="m 101.06001,215.39211 -3.806998,-2.00321 -2.362576,-2.91848 -0.972825,-2.36257 0.972825,-2.2236 2.640526,-1.52873 2.501548,-0.27795 4.03027,1.1118 2.36258,0.5559 2.50155,0.97283 2.77951,0.13897 1.6677,-0.97282 1.38975,-2.36258 0.69487,-1.52872 -0.69487,3.75232 0.13897,0.83386 2.2236,0.13897 3.05745,-0.13897 4.72516,-0.27796 2.7795,-0.5559 2.36257,-0.83385 0.97283,-1.11179 -0.41692,-1.38976 0.13897,-2.08463 0.83385,3.05746 0.83385,0.5559 3.19643,0.83385 3.75232,0.13897 3.19643,0.13898 2.64052,0.27795 3.05746,0.41692 h 1.38974 l 0.13898,-0.83385 -0.5559,-2.77949 1.38975,2.91847 2.08463,0.27795 3.05744,0.27795 3.47439,0.13897 4.72514,0.13898 2.22361,0.41692 0.27794,-0.83385 0.83385,1.38975 2.08463,0.55591 3.19642,1.25077 6.53183,1.94565 1.6677,0.13898 -0.83385,-1.6677 2.22361,2.22359 3.89129,2.08463 4.86413,1.25077 1.6677,0.13898 -2.2236,-8.06055 -6.94875,-5.83695 -9.4503,-6.67081 -53.34597,1.7256 -2.99071,0.0967 -5.27715,4.48115 -2.81596,4.3136 -4.15645,-0.0236 -4.5763,-1.7072 -4.169244,-0.97163 -2.717845,2.64751 -1.389751,2.2236 0.277951,2.7795 3.22027,3.64707 z"
                                   id="path20-5"
                                   sodipodi:nodetypes="cccccccccccccccccccccccccccccccccccccccccccccccccccccccccccccccccc" /><path
                                   style="fill:#494949;fill-opacity:1;stroke:none;stroke-width:1.81651;stroke-linecap:round;stroke-linejoin:round;stroke-miterlimit:10.1;stroke-opacity:1;paint-order:fill markers stroke"
                                   d="m 117.92678,195.53194 -0.58962,7.07545 v 1.76886 l 4.22561,-0.19654 6.68238,-0.88443 0.49135,-1.57232 0.9827,-4.12735 2.55502,-2.06367 -0.2948,4.52043 -0.39308,0.9827 1.47405,1.86713 c 0,0 2.35848,0.29481 3.04637,0.29481 0.6879,0 5.89622,0.78617 5.89622,0.78617 l 4.22561,0.19653 1.76886,0.0983 0.49136,-0.58962 0.19654,-2.35848 -0.39308,-2.06367 0.58962,2.35848 0.9827,-2.06368 3.24292,3.14465 2.26021,0.0983 5.30659,0.78617 4.52043,1.2775 1.08097,0.49136 -0.29481,-2.26022 0.0983,-1.17924 1.96541,3.24291 3.34118,1.47406 h 2.16195 l 2.26021,0.0983 -0.9827,-3.636 -2.16194,-4.6187 1.37578,-4.42216 -3.636,-1.37578 -37.04786,-0.19654 z"
                                   id="path21" /><path
                                   style="fill:#6c6c6c;fill-opacity:1;stroke:none;stroke-width:1.81651;stroke-linecap:round;stroke-linejoin:round;stroke-miterlimit:10.1;stroke-opacity:1;paint-order:fill markers stroke"
                                   d="m 98.076198,200.34717 -3.43228,1.03664 2.449578,-2.01934 1.474052,-1.08096 16.411122,-7.07546 9.2374,-1.86714 1.76886,-1.37578 6.38757,-1.86713 h 11.39934 l 10.80972,0.29481 5.11005,1.08097 c 0,0 -13.65956,-0.49135 -14.15091,-0.49135 -0.49135,0 -11.98896,0.39308 -11.98896,0.39308 l -7.17373,1.6706 -5.30659,1.67059 -13.26648,4.6187 -6.78064,3.24291 z"
                                   id="path22"
                                   sodipodi:nodetypes="cccccccccccscccccc" /><path
                                   style="fill:#730a07;fill-opacity:1;stroke:none;stroke-width:1.01811;stroke-linecap:round;stroke-linejoin:round;stroke-miterlimit:10.1;stroke-opacity:1;paint-order:fill markers stroke"
                                   d="m 135.93622,247.73848 7.57044,-1.30734 8.66685,1.39449 -8.09254,-2.64372 z"
                                   id="path23" /><path
                                   style="fill:#6c6c6c;fill-opacity:1;stroke:none;stroke-width:1.81651;stroke-linecap:round;stroke-linejoin:round;stroke-miterlimit:10.1;stroke-opacity:1;paint-order:fill markers stroke"
                                   d="m 127.45898,180.88968 1.96541,-7.46854 3.04638,-7.5668 10.02356,-8.64778 9.04085,-1.67059 0.6879,-2.84984 6.5841,-5.11005 10.12183,-10.90799 -2.06368,3.63599 -9.72875,9.63049 -3.34119,2.35848 -1.17923,3.636 -7.76335,1.86713 -3.73426,1.57233 -4.42216,3.63599 -4.32389,6.19102 -2.26022,8.35297 -4.18099,10.82318 z"
                                   id="path24"
                                   sodipodi:nodetypes="ccccccccccccccccccc" /><path
                                   style="fill:#3e3e3e;fill-opacity:1;stroke:none;stroke-width:1.81651;stroke-linecap:round;stroke-linejoin:round;stroke-miterlimit:10.1;stroke-opacity:1;paint-order:fill markers stroke"
                                   d="m 168.97814,136.81549 -3.29205,6.92806 -0.9827,0.83529 -1.22838,-0.49135 0.14741,1.86713 0.63875,0.58963 0.9827,2.65329 -0.19653,2.21108 -3.39033,1.57232 -2.16194,1.22838 -0.24567,-2.75156 -2.01455,1.52318 -0.2948,2.40762 0.39308,5.40486 -1.76887,1.96541 -3.24292,0.58962 -2.16194,-2.16195 2.65329,4.86438 4.52044,0.58962 0.9827,-3.636 2.06367,7.86162 -2.6533,5.6014 -0.49135,6.78064 6.78065,3.24292 0.19654,2.55503 10.41664,6.87891 -0.29481,-1.6706 -3.04638,-1.91626 -3.34118,-2.11281 0.1474,-3.29206 -3.7834,-5.30659 -0.98271,-4.66783 0.34396,-3.53773 -3.58687,-7.5668 -0.68789,-3.636 2.65329,-2.55502 2.45676,-4.52043 3.34118,-2.55503 -2.06367,-3.9308 v -3.636 z"
                                   id="path25" /><path
                                   style="fill:#730a07;fill-opacity:1;stroke:none;stroke-width:2.07021;stroke-linecap:round;stroke-linejoin:round;stroke-miterlimit:10.1;stroke-opacity:1;paint-order:fill markers stroke"
                                   d="m 151.15808,247.66544 0.71273,1.97982 h 1.82143 l -1.10869,-3.08852 -12.98761,-0.31676 -5.54348,0.39596 -0.95031,2.77174 1.50466,-0.15838 1.90062,-2.05901 6.96896,-0.79193 z"
                                   id="path28" /><path
                                   style="fill:#d89b72;fill-opacity:1;stroke:none;stroke-width:2.84356;stroke-linecap:round;stroke-linejoin:round;stroke-miterlimit:10.1;stroke-opacity:1;paint-order:fill markers stroke"
                                   d="m 142.09188,227.77439 -1.19653,5.54757 -5.54757,2.7194 4.24226,-3.1545 z"
                                   id="path29" /><path
                                   style="fill:#e2b597;fill-opacity:1;stroke:none;stroke-width:2.84356;stroke-linecap:round;stroke-linejoin:round;stroke-miterlimit:10.1;stroke-opacity:1;paint-order:fill markers stroke"
                                   d="m 146.29717,229.44559 0.84608,3.99964 3.99964,2.30749 -2.92282,-2.46132 -1.53832,-3.61506 z"
                                   id="path31" /><path
                                   style="fill:#3e3e3e;fill-opacity:1;stroke:none;stroke-width:2.84356;stroke-linecap:round;stroke-linejoin:round;stroke-miterlimit:10.1;stroke-opacity:1;paint-order:fill markers stroke"
                                   d="m 103.69401,207.43331 0.87021,4.24226 0.97898,5.65634 -2.61062,3.1545 -2.936943,1.74042 -1.740413,6.09144 -1.957967,6.09145 -3.589601,8.70206 -0.652654,4.67736 1.305307,2.39307 -0.217551,-3.26327 3.589605,-11.42146 7.505527,-3.37206 -1.30531,-6.85287 4.13348,-5.76512 1.08776,-4.67736 z"
                                   id="path32" /><path
                                   style="fill:#3e3e3e;fill-opacity:1;stroke:none;stroke-width:2.84356;stroke-linecap:round;stroke-linejoin:round;stroke-miterlimit:10.1;stroke-opacity:1;paint-order:fill markers stroke"
                                   d="m 114.24527,207.10699 -4.24226,5.33001 -0.21755,3.48083 0.65265,10.66003 -0.10877,7.72308 -5.98267,2.61062 -2.39307,9.13717 -0.76143,2.39307 0.32633,4.35103 2.50184,2.28429 3.37205,-0.21755 -2.7194,-1.84919 -1.19653,-3.69837 0.65266,-5.76512 1.74041,-3.80716 4.89491,-3.26327 1.63164,-3.69838 2.06674,-3.48083 -2.17552,-6.96165 -0.8702,-4.56858 1.30531,-4.45981 z"
                                   id="path33" /><path
                                   style="fill:#3e3e3e;fill-opacity:1;stroke:none;stroke-width:2.84356;stroke-linecap:round;stroke-linejoin:round;stroke-miterlimit:10.1;stroke-opacity:1;paint-order:fill markers stroke"
                                   d="m 107.06606,232.01665 -0.76143,-5.76512 1.19654,-5.43879 1.41408,-6.41777 -1.52286,8.91961 z"
                                   id="path34" /><path
                                   style="fill:#3e3e3e;fill-opacity:1;stroke:none;stroke-width:2.84356;stroke-linecap:round;stroke-linejoin:round;stroke-miterlimit:10.1;stroke-opacity:1;paint-order:fill markers stroke"
                                   d="m 115.98568,232.45175 -5.11246,7.61431 -4.45981,3.91593 0.10878,6.309 2.17551,2.06674 1.19654,-0.97898 -2.06675,-3.69838 2.06675,-3.69838 5.11246,-3.26328 z"
                                   id="path35" /><path
                                   style="fill:#3e3e3e;fill-opacity:1;stroke:none;stroke-width:2.84356;stroke-linecap:round;stroke-linejoin:round;stroke-miterlimit:10.1;stroke-opacity:1;paint-order:fill markers stroke"
                                   d="m 122.51223,205.91045 -4.45981,8.04941 -2.17552,8.81084 1.52287,6.63533 0.97898,-9.13717 z"
                                   id="path36" /><path
                                   style="fill:#3e3e3e;fill-opacity:1;stroke:none;stroke-width:2.84356;stroke-linecap:round;stroke-linejoin:round;stroke-miterlimit:10.1;stroke-opacity:1;paint-order:fill markers stroke"
                                   d="m 167.87175,207.97719 1.52286,10.76881 2.7194,8.70206 3.48082,6.96166 2.61062,1.30531 -6.52655,-11.31269 -0.8702,-12.07411 z"
                                   id="path37" /><path
                                   style="fill:#3e3e3e;fill-opacity:1;stroke:none;stroke-width:2.84356;stroke-linecap:round;stroke-linejoin:round;stroke-miterlimit:10.1;stroke-opacity:1;paint-order:fill markers stroke"
                                   d="m 174.28952,230.27624 -4.0247,12.94432 -4.56859,6.41777 -1.74041,7.83186 -2.39307,5.11247 1.84919,3.48082 3.1545,-0.97898 -2.28429,-1.74042 -1.08776,-0.8702 0.97898,-1.84919 2.17552,-7.72308 2.71939,-3.1545 3.80716,-3.26328 -0.43511,-5.43879 1.52286,-5.33001 z"
                                   id="path38" /><path
                                   style="fill:#3e3e3e;fill-opacity:1;stroke:none;stroke-width:2.84356;stroke-linecap:round;stroke-linejoin:round;stroke-miterlimit:10.1;stroke-opacity:1;paint-order:fill markers stroke"
                                   d="m 182.88281,250.94364 -5.00368,-3.37205 -2.82818,-2.93694 -0.10877,-5.98268 1.08775,-2.61061 3.1545,-0.32633 -2.17551,1.30531 1.52286,8.48451 z"
                                   id="path39" /><path
                                   style="fill:#3e3e3e;fill-opacity:1;stroke:none;stroke-width:2.84356;stroke-linecap:round;stroke-linejoin:round;stroke-miterlimit:10.1;stroke-opacity:1;paint-order:fill markers stroke"
                                   d="m 187.23384,243.87321 -0.97898,3.1545 -2.61062,-0.10877 -2.17551,-1.84919 -1.30531,-7.07043 -5.22124,-11.74779 -0.65266,-13.37943 0.76143,-2.71939 2.82818,0.4351 -2.39307,2.28429 1.52286,13.37943 3.48082,8.81084 2.82818,2.17552 -0.65266,5.98267 z"
                                   id="path40" /><path
                                   style="fill:#3e3e3e;fill-opacity:1;stroke:none;stroke-width:2.84356;stroke-linecap:round;stroke-linejoin:round;stroke-miterlimit:10.1;stroke-opacity:1;paint-order:fill markers stroke"
                                   d="m 182.44771,212.98088 -0.97898,3.5896 0.54388,5.00369 1.95796,6.09145 1.19653,0.65265 0.65266,-1.74041 -0.87021,-5.43879 -1.30531,-2.61062 1.84919,-1.19654 0.10878,-2.93694 z"
                                   id="path41" /><path
                                   style="fill:#3e3e3e;fill-opacity:1;stroke:none;stroke-width:2.84356;stroke-linecap:round;stroke-linejoin:round;stroke-miterlimit:10.1;stroke-opacity:1;paint-order:fill markers stroke"
                                   d="m 182.77404,212.8721 2.06674,-0.97898 0.76143,2.28429 v 0.97899 l -2.06674,-0.43511 z"
                                   id="path42" /><path
                                   style="fill:#d89b72;fill-opacity:1;stroke:none;stroke-width:2.84356;stroke-linecap:round;stroke-linejoin:round;stroke-miterlimit:10.1;stroke-opacity:1;paint-order:fill markers stroke"
                                   d="m 142.30943,239.52218 1.74041,1.52286 1.19654,-1.41408 -1.02595,0.35214 z"
                                   id="path45" /><path
                                   style="fill:#1a0f08;fill-opacity:1;stroke:none;stroke-width:1.62489;stroke-linecap:round;stroke-linejoin:round;stroke-miterlimit:10.1;stroke-opacity:1;paint-order:fill markers stroke"
                                   d="m 132.45227,242.98283 0.87904,-1.14275 1.49437,0.52742 0.0879,0.87904 -0.70324,0.87904 h -0.87904 z"
                                   id="path46" /><path
                                   style="fill:#4b1843;fill-opacity:1;stroke:none;stroke-width:2.84356;stroke-linecap:round;stroke-linejoin:round;stroke-miterlimit:10.1;stroke-opacity:1;paint-order:fill markers stroke"
                                   d="m 54.418567,232.01665 -4.133481,-1.84919 -1.087759,-2.17551 v -2.17552 l 0.978983,-1.95796 1.740413,-1.41409 2.393068,-0.76143 0.108776,-0.32633 0.108776,-5.11246 -1.196535,-0.4351 -0.435103,-0.87021 v -0.54388 h 3.045723 c 0,0 3.045723,0.21755 3.480827,0.21755 0.435103,0 0.217551,0.87021 0.217551,0.87021 l -1.087758,0.4351 -0.870207,0.21755 v 5.43879 l 2.719396,0.87021 1.087758,0.87021 0.543879,1.41408 0.543879,1.08776 v 2.06674 1.08776 l -1.30531,1.41409 -1.740413,0.92459 -1.957964,0.32633 z"
                                   id="path50"
                                   sodipodi:nodetypes="cccccccccccccscccccccccccccc" /><rect
                                   style="fill:none;fill-opacity:1;stroke:#4b1843;stroke-width:1.12687796;stroke-linecap:round;stroke-linejoin:round;stroke-miterlimit:10.1;stroke-dasharray:none;stroke-opacity:1;paint-order:fill markers stroke"
                                   id="rect50"
                                   width="19.416485"
                                   height="7.8318596"
                                   x="68.341873"
                                   y="223.36897"
                                   ry="1.9579648" /><path
                                   style="fill:#4b1843;fill-opacity:1;stroke:none;stroke-width:1.12688;stroke-linecap:round;stroke-linejoin:round;stroke-miterlimit:10.1;stroke-dasharray:none;stroke-opacity:1;paint-order:fill markers stroke"
                                   d="m 72.910457,218.66442 -0.05439,6.88007 0.217551,0.38071 0.516684,0.10878 0.217551,-0.13597 0.217555,-0.32633 -0.02719,-6.93446 0.380715,-0.21755 -0.08158,-0.29913 -0.625463,-0.19036 -0.761429,0.0272 -0.353521,0.0816 0.02719,0.24475 z"
                                   id="path51" /><path
                                   style="fill:#4b1843;fill-opacity:1;stroke:none;stroke-width:1.12688;stroke-linecap:round;stroke-linejoin:round;stroke-miterlimit:10.1;stroke-dasharray:none;stroke-opacity:1;paint-order:fill markers stroke"
                                   d="m 73.046426,217.98457 -0.217551,-0.59827 1.305311,0.0272 -0.299137,0.65266 z"
                                   id="path52" /><path
                                   style="fill:#4b1843;fill-opacity:1;stroke:none;stroke-width:1.12688;stroke-linecap:round;stroke-linejoin:round;stroke-miterlimit:10.1;stroke-dasharray:none;stroke-opacity:1;paint-order:fill markers stroke"
                                   d="m 76.571171,218.71749 -0.05439,6.88007 0.217551,0.38071 0.516684,0.10878 0.217551,-0.13597 0.217555,-0.32633 -0.02719,-6.93446 0.380715,-0.21755 -0.08158,-0.29913 -0.625463,-0.19036 -0.761429,0.0272 -0.353521,0.0816 0.02719,0.24475 z"
                                   id="path51-1" /><path
                                   style="fill:#4b1843;fill-opacity:1;stroke:none;stroke-width:1.12688;stroke-linecap:round;stroke-linejoin:round;stroke-miterlimit:10.1;stroke-dasharray:none;stroke-opacity:1;paint-order:fill markers stroke"
                                   d="m 76.70714,218.03764 -0.217551,-0.59827 1.305311,0.0272 -0.299137,0.65266 z"
                                   id="path52-0" /><path
                                   style="fill:#4b1843;fill-opacity:1;stroke:none;stroke-width:1.12688;stroke-linecap:round;stroke-linejoin:round;stroke-miterlimit:10.1;stroke-dasharray:none;stroke-opacity:1;paint-order:fill markers stroke"
                                   d="m 79.941326,218.70735 -0.05439,6.88007 0.217551,0.38071 0.516684,0.10878 0.217551,-0.13597 0.217555,-0.32633 -0.02719,-6.93446 0.380715,-0.21755 -0.08158,-0.29913 -0.625463,-0.19036 -0.761429,0.0272 -0.353521,0.0816 0.02719,0.24475 z"
                                   id="path51-2" /><path
                                   style="fill:#4b1843;fill-opacity:1;stroke:none;stroke-width:1.12688;stroke-linecap:round;stroke-linejoin:round;stroke-miterlimit:10.1;stroke-dasharray:none;stroke-opacity:1;paint-order:fill markers stroke"
                                   d="m 80.077295,218.0275 -0.217551,-0.59827 1.305311,0.0272 -0.299137,0.65266 z"
                                   id="path52-6" /><path
                                   style="fill:#4b1843;fill-opacity:1;stroke:none;stroke-width:1.12688;stroke-linecap:round;stroke-linejoin:round;stroke-miterlimit:10.1;stroke-dasharray:none;stroke-opacity:1;paint-order:fill markers stroke"
                                   d="m 83.61696,218.73075 -0.05439,6.88007 0.217551,0.38071 0.516684,0.10878 0.217551,-0.13597 0.217555,-0.32633 -0.02719,-6.93446 0.380715,-0.21755 -0.08158,-0.29913 -0.625463,-0.19036 -0.761429,0.0272 -0.353521,0.0816 0.02719,0.24475 z"
                                   id="path51-7" /><path
                                   style="fill:#4b1843;fill-opacity:1;stroke:none;stroke-width:1.12688;stroke-linecap:round;stroke-linejoin:round;stroke-miterlimit:10.1;stroke-dasharray:none;stroke-opacity:1;paint-order:fill markers stroke"
                                   d="m 83.752929,218.0509 -0.217551,-0.59827 1.305311,0.0272 -0.299137,0.65266 z"
                                   id="path52-3" /></g><g
                                   inkscape:label="Warstwa 1"
                                   id="layer1-8-5"
                                   transform="translate(132.946,402.98177)" /></g></g></g></g></g></g></g></g></g></g></g><g
                 inkscape:label="Warstwa 1"
                 id="layer1-9-4"
                 transform="translate(5.6147241,27.412809)" /></g></g><g
             inkscape:label="Warstwa 1"
             id="layer1-9"
             transform="translate(5.6147241,27.412809)" /></g></g></g></g></svg>
