<?xml version="1.0" encoding="UTF-8" standalone="no"?>
<!-- Created with Inkscape (http://www.inkscape.org/) -->

<svg
   width="660"
   height="510"
   viewBox="0 0 174.62503 134.9375"
   version="1.1"
   id="svg1"
   xml:space="preserve"
   sodipodi:docname="wzór.svg"
   inkscape:version="1.3 (0e150ed6c4, 2023-07-21)"
   xmlns:inkscape="http://www.inkscape.org/namespaces/inkscape"
   xmlns:sodipodi="http://sodipodi.sourceforge.net/DTD/sodipodi-0.dtd"
   xmlns="http://www.w3.org/2000/svg"
   xmlns:svg="http://www.w3.org/2000/svg"><sodipodi:namedview
     id="namedview1"
     pagecolor="#ffffff"
     bordercolor="#000000"
     borderopacity="0.25"
     inkscape:showpageshadow="2"
     inkscape:pageopacity="0.0"
     inkscape:pagecheckerboard="0"
     inkscape:deskcolor="#d1d1d1"
     inkscape:document-units="mm"
     inkscape:zoom="0.74564394"
     inkscape:cx="374.84379"
     inkscape:cy="221.9558"
     inkscape:window-width="1018"
     inkscape:window-height="1033"
     inkscape:window-x="742"
     inkscape:window-y="58"
     inkscape:window-maximized="0"
     inkscape:current-layer="layer1-898" /><defs
     id="defs1" /><g
     inkscape:label="Warstwa 1"
     inkscape:groupmode="layer"
     id="layer1"><g
       inkscape:label="Warstwa 1"
       id="layer1-94"
       transform="translate(-9.0755263,-66.232026)"><g
         inkscape:label="Warstwa 1"
         id="layer1-4-5"
         transform="translate(-219.9045,28.683068)"><g
           inkscape:label="Warstwa 1"
           id="layer1-85"
           transform="translate(205.64297,-38.795969)"><g
             inkscape:label="Warstwa 1"
             id="layer1-4-5-5"
             transform="translate(-219.9045,28.683068)"><g
               inkscape:label="Warstwa 1"
               id="layer1-89"
               transform="translate(215.09434,-19.812097)"><g
                 inkscape:label="Warstwa 1"
                 id="layer1-4-5-3"
                 transform="translate(-219.9045,28.683068)"><g
                   inkscape:label="Warstwa 1"
                   id="layer1-3"
                   transform="translate(216.58408,-22.545672)"><g
                     inkscape:label="Warstwa 1"
                     id="layer1-4-5-0"
                     transform="translate(-219.9045,28.683068)"><g
                       inkscape:label="Warstwa 1"
                       id="layer1-5"
                       transform="translate(235.55056,-57.445467)"><g
                         inkscape:label="Warstwa 1"
                         id="layer1-82"
                         transform="translate(3.4917715,0.02991942)"><g
                           inkscape:label="Warstwa 1"
                           id="layer1-4"
                           transform="translate(4.0047418,-19.301403)" /><g
                           inkscape:label="Warstwa 1"
                           id="layer1-9-0"
                           transform="translate(5.6147241,27.412809)"><g
                             inkscape:label="Warstwa 1"
                             id="layer1-91"
                             transform="translate(-9.9894822,-11.317072)"><g
                               inkscape:label="Warstwa 1"
                               id="layer1-4-5-8"
                               transform="translate(-219.9045,28.683068)"><path
                                 style="fill:#a05a2c;stroke-width:0.264583"
                                 d="m 13.342485,216.4151 13.609336,0.26685"
                                 id="path3-6" /></g><g
                               inkscape:label="Warstwa 1"
                               id="layer1-898"
                               transform="translate(-24.173773,-1.2140415)"><g
                                 inkscape:label="Warstwa 1"
                                 id="layer1-4-5-9"
                                 transform="translate(-219.9045,28.683068)"><path
                                   style="fill:#a05a2c;stroke-width:0.264583"
                                   d="m 13.342485,216.4151 13.609336,0.26685"
                                   id="path3-6-9" /></g><g
                                 inkscape:label="Warstwa 1"
                                 id="layer1-8"
                                 transform="translate(-356.43932,18.793492)"><path
                                   style="display:inline;fill:#c8beb7;stroke-width:0.203917"
                                   d="m 108.22926,155.3145 1.3083,-53.45419 2.28943,-44.736962 10.28305,0.10157 16.56178,-0.143962 8.60169,0.0022 4.24555,16.322514 4.24555,16.322513 -0.15049,14.141667 -0.15048,14.14166 -1.33507,10.86017 -14.57976,14.07322 -3.50803,23.75604 -17.34159,0.0192 -8.51162,-0.13367 -2.8687,-0.23487 z"
                                   id="path10-9"
                                   sodipodi:nodetypes="ccccccccccccccccc" /><path
                                   style="display:inline;fill:#917c6f;stroke-width:0.203133"
                                   d="m 83.364333,142.02601 -12.982503,-11.91549 -0.0013,-1.34303 c -7.94e-4,-0.73866 -0.297087,-9.7567 -0.658421,-20.04008 C 69.360778,98.444025 69.062821,89.243108 69.059987,88.280919 l -0.0052,-1.749432 4.747619,-14.574633 4.74762,-14.574632 3.227739,-0.140594 c 10.075839,-0.438883 28.222855,-0.564363 29.721695,-0.205511 l 0.45457,0.108832 -0.12176,7.367522 c -0.16334,9.882889 -1.00337,32.172185 -2.30095,61.053229 -0.25668,5.71298 -0.56669,12.65948 -0.68892,15.43665 l -1.16567,25.50785 -2.55354,0.0108 -3.67644,0.0303 -15.343211,0.0896 z"
                                   id="path11-5"
                                   sodipodi:nodetypes="cccsccccsscsssccccc" /><path
                                   style="fill:#4d4d4d;stroke-width:0.206295"
                                   d="m 82.269782,146.36302 19.949768,0.59099 6.86708,20.61921 -0.20883,19.66883 -49.602493,0.96214 z"
                                   id="path12-7"
                                   sodipodi:nodetypes="cccccc" /><path
                                   style="fill:#808080;stroke-width:0.206295"
                                   d="m 119.10531,146.03184 21.36494,0.11584 15.05502,41.47601 -47.66841,-0.0843 -0.18209,-23.28234 z"
                                   id="path12-3-9"
                                   sodipodi:nodetypes="cccccc" /><rect
                                   style="fill:#000000;stroke-width:0.320343"
                                   id="rect12-2"
                                   width="4.6698699"
                                   height="17.211805"
                                   x="128.08786"
                                   y="77.386414" /><rect
                                   style="fill:#000000;stroke-width:0.347321"
                                   id="rect13-0"
                                   width="5.7372684"
                                   height="25.750996"
                                   x="88.594109"
                                   y="78.720665" /><path
                                   style="fill:#000000;stroke-width:0.264583"
                                   d="M 87.175349,120.95108 103.2141,130.1026"
                                   id="path14-0" /><rect
                                   style="fill:#000000;stroke-width:0.264583"
                                   id="rect15-3"
                                   width="21.081125"
                                   height="3.0687716"
                                   x="98.193985"
                                   y="124.60401" /><rect
                                   style="fill:#000000;stroke-width:0.264583"
                                   id="rect16-0"
                                   width="21.322109"
                                   height="3.0190597"
                                   x="81.891998"
                                   y="71.891357" /><rect
                                   style="fill:#000000;stroke-width:0.264583"
                                   id="rect17-8"
                                   width="22.454258"
                                   height="3.2077508"
                                   x="118.87548"
                                   y="70.193138" /><path
                                   style="fill:#b3b3b3;stroke-width:0.543294"
                                   d="m 107.932,148.89202 0.66852,-19.44467 -17.675881,-0.91239 -20.933333,-12.44417 -0.481209,15.19275 16.007605,12.19906 z"
                                   id="path18-9"
                                   sodipodi:nodetypes="ccccccc" /><path
                                   style="fill:#cccccc;stroke-width:0.543294"
                                   d="m 107.71675,149.21046 0.57623,-19.50658 23.58415,-0.93476 23.73958,-16.62431 -1.45767,17.9768 -13.9025,12.63088 z"
                                   id="path18-6-3"
                                   sodipodi:nodetypes="ccccccc" /><path
                                   style="fill:#b3b3b3;stroke-width:0.236036"
                                   d="m 109.73226,116.96782 0.82419,5.40949 -14.86747,1.07412 -12.074545,5.35155 -10.506594,-2.26537 21.441032,-8.58332 z"
                                   id="path18-8-4"
                                   sodipodi:nodetypes="ccccccc" /><path
                                   style="fill:#cccccc;stroke-width:0.236036"
                                   d="m 109.57943,116.87454 0.76244,5.42456 23.93202,6.36677 6.02598,0.0874 11.12523,-3.34791 -19.53223,-5.9928 z"
                                   id="path18-6-7-3"
                                   sodipodi:nodetypes="ccccccc" /><path
                                   style="fill:#b3b3b3;stroke-width:0.43442"
                                   d="M 146.72271,54.845508 119.9197,52.047535 79.262767,55.004092 77.112999,59.565924 130.17468,59.32639 147.8748,58.93442 Z"
                                   id="path18-8-3-7"
                                   sodipodi:nodetypes="ccccccc" /></g><rect
                                 style="fill:#372d61;fill-opacity:1;stroke-width:2.319;stroke-linecap:round;stroke-linejoin:round;stroke-miterlimit:10.1;paint-order:fill markers stroke"
                                 id="rect28"
                                 width="176"
                                 height="134.83871"
                                 x="41.233173"
                                 y="75.542183"
                                 ry="0.088709675" /><path
                                 style="fill:#e1a451;fill-opacity:1;stroke-width:2.319;stroke-linecap:round;stroke-linejoin:round;stroke-miterlimit:10.1;paint-order:fill markers stroke"
                                 d="M 40.523497,191.92928 H 215.45898 l 0.35484,18.80645 -175.311847,-0.43725 z"
                                 id="path26"
                                 sodipodi:nodetypes="ccccc" /><path
                                 style="fill:#e1a451;fill-opacity:1;stroke-width:2.319;stroke-linecap:round;stroke-linejoin:round;stroke-miterlimit:10.1;paint-order:fill markers stroke"
                                 id="path27-5"
                                 sodipodi:type="arc"
                                 sodipodi:cx="162.07832"
                                 sodipodi:cy="185.78142"
                                 sodipodi:rx="11.667261"
                                 sodipodi:ry="11.667261"
                                 sodipodi:start="0"
                                 sodipodi:end="6.2669335"
                                 sodipodi:open="true"
                                 sodipodi:arc-type="arc"
                                 d="m 173.74558,185.78142 a 11.667261,11.667261 0 0 1 -11.61985,11.66716 11.667261,11.667261 0 0 1 -11.71428,-11.57236 11.667261,11.667261 0 0 1 11.52467,-11.7612 11.667261,11.667261 0 0 1 11.80792,11.47679" /><path
                                 style="fill:#e1a451;fill-opacity:1;stroke-width:2.319;stroke-linecap:round;stroke-linejoin:round;stroke-miterlimit:10.1;paint-order:fill markers stroke"
                                 id="path27-9"
                                 sodipodi:type="arc"
                                 sodipodi:cx="89.755409"
                                 sodipodi:cy="185.55037"
                                 sodipodi:rx="11.667261"
                                 sodipodi:ry="11.667261"
                                 sodipodi:start="0"
                                 sodipodi:end="6.2669335"
                                 sodipodi:open="true"
                                 sodipodi:arc-type="arc"
                                 d="m 101.42267,185.55037 a 11.667261,11.667261 0 0 1 -11.619857,11.66716 11.667261,11.667261 0 0 1 -11.71428,-11.57235 11.667261,11.667261 0 0 1 11.524669,-11.76121 11.667261,11.667261 0 0 1 11.807928,11.47679" /><path
                                 style="fill:#e1a451;fill-opacity:1;stroke-width:2.319;stroke-linecap:round;stroke-linejoin:round;stroke-miterlimit:10.1;paint-order:fill markers stroke"
                                 id="path27-1"
                                 sodipodi:type="arc"
                                 sodipodi:cx="54.963943"
                                 sodipodi:cy="185.99547"
                                 sodipodi:rx="11.667261"
                                 sodipodi:ry="11.667261"
                                 sodipodi:start="0"
                                 sodipodi:end="6.2669335"
                                 sodipodi:open="true"
                                 sodipodi:arc-type="arc"
                                 d="m 66.631205,185.99547 a 11.667261,11.667261 0 0 1 -11.619858,11.66716 11.667261,11.667261 0 0 1 -11.714279,-11.57236 11.667261,11.667261 0 0 1 11.524668,-11.7612 11.667261,11.667261 0 0 1 11.807928,11.47679" /><g
                                 inkscape:label="Warstwa 1"
                                 id="layer1-9-9"
                                 transform="matrix(0.91222526,0,0,0.91222526,32.105258,39.317065)"><path
                                   style="display:inline;fill:#e9c6af;stroke-width:0.203917"
                                   d="m 100.60431,154.41941 1.3083,-53.45419 2.28943,-44.736963 10.28305,0.10157 16.56178,-0.143962 5.66634,0.669324 4.5124,16.322514 4.91268,16.055664 -0.15049,14.141663 -0.15048,14.14166 -8.91903,12.21732 -4.99443,12.3158 -3.50803,23.75604 -17.34159,0.0192 -8.51162,-0.13367 -2.868702,-0.23487 z"
                                   id="path10-7"
                                   sodipodi:nodetypes="ccccccccccccccccc" /><path
                                   style="display:inline;fill:#deaa87;stroke-width:0.203133"
                                   d="m 75.739378,141.13092 -7.887837,-14.74586 -2.170949,-6.53204 -4.383683,-17.89139 0.138429,-14.575802 0.662124,-7.75355 4.080486,-8.570515 4.74762,-14.574632 3.22774,-0.140594 29.721702,-0.205511 0.45457,0.108832 -0.12176,7.367522 -2.30095,61.05323 -0.68892,15.43665 -1.16567,25.50785 -2.553542,0.0108 -3.67644,0.0303 -15.34321,0.0896 z"
                                   id="path11-58"
                                   sodipodi:nodetypes="ccccccccccccccccccc" /><path
                                   style="fill:#6c5d53;stroke-width:0.206295"
                                   d="m 74.644828,145.46793 19.94977,0.59099 6.867082,20.61921 -0.75893,20.56275 -49.052392,0.0682 z"
                                   id="path12-6"
                                   sodipodi:nodetypes="cccccc" /><path
                                   style="fill:#917c6f;stroke-width:0.206295"
                                   d="m 111.48036,145.13675 21.36494,0.11584 15.05502,41.95735 -47.66841,-0.0155 -0.18209,-23.83244 z"
                                   id="path12-3-0"
                                   sodipodi:nodetypes="cccccc" /><rect
                                   style="fill:#000000;stroke-width:0.290894"
                                   id="rect12-5"
                                   width="4.6698699"
                                   height="14.192745"
                                   x="120.46291"
                                   y="76.491325" /><rect
                                   style="fill:#000000;stroke-width:0.238723"
                                   id="rect13-5"
                                   width="5.7372684"
                                   height="12.165227"
                                   x="80.969147"
                                   y="77.825577" /><path
                                   style="fill:#000000;stroke-width:0.264583"
                                   d="m 79.550398,120.05599 16.03875,9.15152"
                                   id="path14-6" /><rect
                                   style="fill:#000000;stroke-width:0.264583"
                                   id="rect15-4"
                                   width="21.081125"
                                   height="3.0687716"
                                   x="92.176834"
                                   y="120.52153" /><rect
                                   style="fill:#000000;stroke-width:0.264583"
                                   id="rect16-6"
                                   width="21.322109"
                                   height="3.0190597"
                                   x="74.267044"
                                   y="70.996269" /><rect
                                   style="fill:#000000;stroke-width:0.264583"
                                   id="rect17-2"
                                   width="22.454258"
                                   height="3.2077508"
                                   x="111.25052"
                                   y="69.29805" /><path
                                   style="fill:#a05a2c;stroke-width:0.43442"
                                   d="m 147.23275,56.310208 4.23049,-5.126214 -46.15006,-7.673545 -2.15998,14.264921 32.33482,1.814894 13.72007,5.274433 14.65404,6.475257 -8.31469,-7.514875 z"
                                   id="path18-8-3-0"
                                   sodipodi:nodetypes="ccccccccc" /><path
                                   style="fill:#784421;stroke-width:0.43442"
                                   d="m 105.52075,43.619397 -24.864901,3.199392 -0.184168,3.796994 -13.203863,2.287468 -6.874178,7.499368 9.070231,-5.142944 -14.951069,10.953532 14.936097,-5.057451 33.911871,-3.271438 z"
                                   id="path18-8-3-1"
                                   sodipodi:nodetypes="cccccccccc" /></g><path
                                 style="fill:#e1a451;fill-opacity:1;stroke-width:2.319;stroke-linecap:round;stroke-linejoin:round;stroke-miterlimit:10.1;paint-order:fill markers stroke"
                                 id="path27"
                                 sodipodi:type="arc"
                                 sodipodi:cx="191.80002"
                                 sodipodi:cy="186.21451"
                                 sodipodi:rx="11.667261"
                                 sodipodi:ry="11.667261"
                                 sodipodi:start="0"
                                 sodipodi:end="6.2669335"
                                 sodipodi:open="true"
                                 sodipodi:arc-type="arc"
                                 d="m 203.46728,186.21451 a 11.667261,11.667261 0 0 1 -11.61986,11.66716 11.667261,11.667261 0 0 1 -11.71428,-11.57236 11.667261,11.667261 0 0 1 11.52467,-11.7612 11.667261,11.667261 0 0 1 11.80793,11.47679" /></g></g></g></g></g></g></g></g><g
                 inkscape:label="Warstwa 1"
                 id="layer1-9-4"
                 transform="translate(5.6147241,27.412809)" /></g></g><g
             inkscape:label="Warstwa 1"
             id="layer1-9"
             transform="translate(5.6147241,27.412809)" /></g></g></g></g></svg>
