<?xml version="1.0" encoding="UTF-8" standalone="no"?>
<!-- Created with Inkscape (http://www.inkscape.org/) -->

<svg
   width="660"
   height="510"
   viewBox="0 0 174.62503 134.9375"
   version="1.1"
   id="svg1"
   xml:space="preserve"
   sodipodi:docname="wzór.svg"
   inkscape:version="1.3 (0e150ed6c4, 2023-07-21)"
   xmlns:inkscape="http://www.inkscape.org/namespaces/inkscape"
   xmlns:sodipodi="http://sodipodi.sourceforge.net/DTD/sodipodi-0.dtd"
   xmlns="http://www.w3.org/2000/svg"
   xmlns:svg="http://www.w3.org/2000/svg"><sodipodi:namedview
     id="namedview1"
     pagecolor="#ffffff"
     bordercolor="#000000"
     borderopacity="0.25"
     inkscape:showpageshadow="2"
     inkscape:pageopacity="0.0"
     inkscape:pagecheckerboard="0"
     inkscape:deskcolor="#d1d1d1"
     inkscape:document-units="mm"
     inkscape:zoom="0.74564394"
     inkscape:cx="494.20371"
     inkscape:cy="302.42316"
     inkscape:window-width="1018"
     inkscape:window-height="1033"
     inkscape:window-x="752"
     inkscape:window-y="42"
     inkscape:window-maximized="0"
     inkscape:current-layer="layer1-8" /><defs
     id="defs1" /><g
     inkscape:label="Warstwa 1"
     inkscape:groupmode="layer"
     id="layer1"><g
       inkscape:label="Warstwa 1"
       id="layer1-94"
       transform="translate(-9.0755263,-66.232026)"><g
         inkscape:label="Warstwa 1"
         id="layer1-4-5"
         transform="translate(-219.9045,28.683068)"><g
           inkscape:label="Warstwa 1"
           id="layer1-85"
           transform="translate(205.64297,-38.795969)"><g
             inkscape:label="Warstwa 1"
             id="layer1-4-5-5"
             transform="translate(-219.9045,28.683068)"><g
               inkscape:label="Warstwa 1"
               id="layer1-89"
               transform="translate(215.09434,-19.812097)"><g
                 inkscape:label="Warstwa 1"
                 id="layer1-4-5-3"
                 transform="translate(-219.9045,28.683068)"><g
                   inkscape:label="Warstwa 1"
                   id="layer1-3"
                   transform="translate(216.58408,-22.545672)"><g
                     inkscape:label="Warstwa 1"
                     id="layer1-4-5-0"
                     transform="translate(-219.9045,28.683068)"><g
                       inkscape:label="Warstwa 1"
                       id="layer1-5"
                       transform="translate(235.55056,-57.445467)"><g
                         inkscape:label="Warstwa 1"
                         id="layer1-82"
                         transform="translate(3.4917715,0.02991942)"><g
                           inkscape:label="Warstwa 1"
                           id="layer1-4"
                           transform="translate(4.0047418,-19.301403)" /><g
                           inkscape:label="Warstwa 1"
                           id="layer1-9-0"
                           transform="translate(5.6147241,27.412809)"><g
                             inkscape:label="Warstwa 1"
                             id="layer1-91"
                             transform="translate(-9.9894822,-11.317072)"><g
                               inkscape:label="Warstwa 1"
                               id="layer1-898"
                               transform="translate(-24.173773,-1.2140415)"><g
                                 inkscape:label="Warstwa 1"
                                 id="layer1-0"
                                 transform="translate(19.870968,20.947557)"><g
                                   inkscape:label="Warstwa 1"
                                   id="layer1-9-2"
                                   transform="translate(5.6147241,27.412809)"><g
                                   inkscape:label="Warstwa 1"
                                   id="layer1-42"
                                   transform="translate(-40.450142,-139.45711)"><g
                                   inkscape:label="Warstwa 1"
                                   id="layer1-8"
                                   transform="matrix(1.007355,0,0,0.97307062,35.835067,118.03895)"><rect
                                   style="fill:#3c293d;fill-opacity:1;stroke:none;stroke-width:2.34227;stroke-linecap:round;stroke-linejoin:round;stroke-miterlimit:10.1;stroke-opacity:1;paint-order:fill markers stroke"
                                   id="rect13"
                                   width="174.36272"
                                   height="138.57033"
                                   x="19.509388"
                                   y="49.580303"
                                   ry="0.091164678" /><path
                                   style="fill:#b78f39;fill-opacity:1;stroke:none;stroke-width:2.34227;stroke-linecap:round;stroke-linejoin:round;stroke-miterlimit:10.1;stroke-opacity:1;paint-order:fill markers stroke"
                                   d="m 24.793107,162.62451 169.431253,-0.36465 0.35225,26.25542 H 18.804892 l -0.352248,-25.89077 z"
                                   id="path15" /><path
                                   style="fill:#cccbd5;fill-opacity:1;stroke:none;stroke-width:2.34227;stroke-linecap:round;stroke-linejoin:round;stroke-miterlimit:10.1;stroke-opacity:1;paint-order:fill markers stroke"
                                   d="m 127.17371,67.626847 -64.097233,12.895779 -6.271176,6.531 -6.139934,-0.258963 -1.10681,-5.786043 7.390504,-15.146947 13.226107,-7.77223 c 0,0 15.193693,-3.609937 16.189998,-3.609937 0.996308,0 35.599034,-0.546988 36.844424,-0.03128 1.24539,0.515705 13.15011,2.018581 14.14642,2.534286 0.99631,0.515705 -0.92639,0.849081 -0.92639,0.849081 z"
                                   id="path13"
                                   sodipodi:nodetypes="cccccccssscc" /><path
                                   style="display:inline;fill:#e9e6e4;fill-opacity:1;stroke-width:0.203917"
                                   d="m 108.22926,155.3145 1.3083,-53.45419 2.28943,-44.736962 10.28305,0.10157 16.56178,-0.143962 7.10723,4.127843 5.74001,12.196871 4.24555,16.322513 -0.15049,14.141667 -0.15048,14.14166 -1.33507,10.86017 -14.57976,14.07322 -3.50803,23.75604 -17.34159,0.0192 -8.51162,-0.13367 -2.8687,-0.23487 z"
                                   id="path10-9"
                                   sodipodi:nodetypes="ccccccccccccccccc" /><path
                                   style="display:inline;fill:#cccbd5;fill-opacity:1;stroke-width:0.203133"
                                   d="m 83.364333,142.02601 -12.982503,-11.91549 -0.0013,-1.34303 c -7.94e-4,-0.73866 -0.297087,-9.7567 -0.658421,-20.04008 C 69.360778,98.444025 69.062821,89.243108 69.059987,88.280919 l -0.0052,-1.749432 4.747619,-14.574633 7.113851,-10.577916 5.344892,-4.524089 c 0,0 23.739471,-0.177584 25.238311,0.181268 l 0.45457,0.108832 -0.12176,7.367522 c -0.16334,9.882889 -1.00337,32.172185 -2.30095,61.053229 -0.25668,5.71298 -0.56669,12.65948 -0.68892,15.43665 l -1.16567,25.50785 -2.55354,0.0108 -3.67644,0.0303 -15.343211,0.0896 z"
                                   id="path11-5"
                                   sodipodi:nodetypes="cccscccccscsssccccc" /><path
                                   style="fill:#b5b3c2;stroke-width:0.206295;fill-opacity:1"
                                   d="m 82.269782,146.36302 19.949768,0.59099 6.86708,20.61921 -0.58245,20.63578 -49.228873,-0.005 z"
                                   id="path12-7"
                                   sodipodi:nodetypes="cccccc" /><path
                                   style="fill:#cccbd5;stroke-width:0.206295;fill-opacity:1"
                                   d="m 119.10531,146.03184 21.36494,0.11584 15.01099,42.19293 -47.68665,-0.15655 -0.11982,-23.92697 z"
                                   id="path12-3-9"
                                   sodipodi:nodetypes="cccccc" /><rect
                                   style="fill:#000000;stroke-width:0.320343"
                                   id="rect12-2"
                                   width="4.6698699"
                                   height="17.211805"
                                   x="128.08786"
                                   y="77.386414" /><rect
                                   style="fill:#000000;stroke-width:0.347321"
                                   id="rect13-0"
                                   width="5.7372684"
                                   height="25.750996"
                                   x="88.594109"
                                   y="78.720665" /><path
                                   style="fill:#000000;stroke-width:0.264583"
                                   d="M 87.175349,120.95108 103.2141,130.1026"
                                   id="path14-0" /><rect
                                   style="fill:#000000;stroke-width:0.105503"
                                   id="rect15-3"
                                   width="8.5000381"
                                   height="1.210158"
                                   x="11.878404"
                                   y="157.37567"
                                   transform="matrix(0.81483313,-0.57969558,0.55306125,0.83314059,0,0)" /><rect
                                   style="fill:#000000;stroke-width:0.105503"
                                   id="rect15-3-7"
                                   width="8.5000381"
                                   height="1.210158"
                                   x="21.815525"
                                   y="165.1651"
                                   transform="matrix(0.81483313,-0.57969558,0.55306125,0.83314059,0,0)" /><rect
                                   style="fill:#000000;stroke-width:0.105503"
                                   id="rect15-3-8"
                                   width="8.5000381"
                                   height="1.210158"
                                   x="31.214909"
                                   y="171.34505"
                                   transform="matrix(0.81483313,-0.57969558,0.55306125,0.83314059,0,0)" /><rect
                                   style="fill:#000000;stroke-width:0.109829"
                                   id="rect15-3-1"
                                   width="8.9286423"
                                   height="1.2484853"
                                   x="156.84572"
                                   y="26.157257"
                                   transform="matrix(0.77172872,0.63595188,-0.6628833,0.74872273,0,0)" /><rect
                                   style="fill:#000000;stroke-width:0.0899048"
                                   id="rect15-3-5"
                                   width="7.2013693"
                                   height="1.0372584"
                                   x="165.01108"
                                   y="14.003985"
                                   transform="matrix(0.75260719,0.65846976,-0.57957942,0.81491576,0,0)" /><rect
                                   style="fill:#000000;stroke-width:0.264596"
                                   id="rect16-0"
                                   width="21.354568"
                                   height="3.0147648"
                                   x="96.000137"
                                   y="52.043655"
                                   transform="matrix(0.97703589,0.21307481,-0.19940435,0.97991729,0,0)" /><rect
                                   style="fill:#000000;stroke-width:0.264599"
                                   id="rect17-8"
                                   width="22.496883"
                                   height="3.2020583"
                                   x="97.801971"
                                   y="100.24231"
                                   transform="matrix(0.97129671,-0.23787118,0.22277194,0.97487059,0,0)" /><path
                                   style="fill:#a5a4b5;fill-opacity:1;stroke:none;stroke-width:2.34227;stroke-linecap:round;stroke-linejoin:round;stroke-miterlimit:10.1;stroke-opacity:1;paint-order:fill markers stroke"
                                   d="m 77.398398,155.2999 9.713999,-8.25129 13.699233,-5.15705 15.44277,4.64135 5.97784,6.96202 4.23431,7.99343 0.74723,9.02485 -0.26112,2.45791 -3.47504,0.12061 -1.81243,-2.4304 -3.91633,0.10973 -1.24539,2.32067 h -4.48338 l -2.49077,-3.35208 -4.23431,-1.54712 -4.23431,3.86779 -5.479688,1.80497 -1.992616,-5.41491 2.241694,-6.44631 -22.915075,3.09423 -1.245386,-2.83638 2.241694,-4.64135 z"
                                   id="path14"
                                   sodipodi:nodetypes="ccccccccccccccccccccccc" /><path
                                   style="fill:#b5b3c2;fill-opacity:1;stroke:none;stroke-width:2.34227;stroke-linecap:round;stroke-linejoin:round;stroke-miterlimit:10.1;stroke-opacity:1;paint-order:fill markers stroke"
                                   d="m 127.79178,141.0171 12.24635,-2.91285 14.48469,1.69431 11.83316,11.27198 2.35973,8.98884 0.35496,9.10905 -3.21111,8.4259 -3.56212,1.04655 -1.76023,-1.04053 -0.14662,-2.60558 -3.11755,-1.53079 -2.11293,1.50436 -4.01479,-2.06586 -0.78921,-4.14942 -3.12655,-3.33651 -5.45472,1.51244 -5.683,-0.90862 0.54379,-5.76711 4.779,-4.73962 -21.85039,-7.78801 0.10428,-3.11377 4.00294,-3.12333 z"
                                   id="path14-3"
                                   sodipodi:nodetypes="ccccccccccccccccccccccc" /><path
                                   style="fill:#b78f39;fill-opacity:1;stroke:none;stroke-width:2.34227;stroke-linecap:round;stroke-linejoin:round;stroke-miterlimit:10.1;stroke-opacity:1;paint-order:fill markers stroke"
                                   d="m 41.655865,165.22723 -7.721384,-2.70745 c -1.702026,-1.37521 -0.433913,1.61084 -4.732461,-2.83638 l -1.619,-6.8331 -0.498154,-6.57524 1.245384,-6.44631 3.985231,-4.3835 5.106076,-1.28927 7.845924,1.16034 c 0,0 8.219537,1.28926 9.091305,-0.38678 0.243443,-0.46805 6.226922,-0.38678 6.226922,-0.38678 l 4.234307,1.16034 2.599145,3.46041 1.137009,4.01731 -0.124537,7.73558 -0.996309,4.77028 -4.483383,5.54383 -4.607923,1.03142 -8.219537,2.06282 z"
                                   id="path16"
                                   sodipodi:nodetypes="cccccccccscccccccccc" /><path
                                   style="fill:#120d13;fill-opacity:1;stroke:none;stroke-width:2.34227;stroke-linecap:round;stroke-linejoin:round;stroke-miterlimit:10.1;stroke-opacity:1;paint-order:fill markers stroke"
                                   d="m 41.282249,142.02049 -2.864384,0.64463 -0.871769,2.06282 1.245384,1.54711 1.619,0.51571 h 2.241692 l 1.619,-1.28926 0.74723,-1.67605 -1.369922,-1.28926 z"
                                   id="path17" /><path
                                   style="fill:#120d13;fill-opacity:1;stroke:none;stroke-width:2.34227;stroke-linecap:round;stroke-linejoin:round;stroke-miterlimit:10.1;stroke-opacity:1;paint-order:fill markers stroke"
                                   d="m 54.065367,142.04226 -2.864384,0.64463 -0.871769,2.06282 1.245384,1.54711 1.619,0.51571 h 2.241692 l 1.619,-1.28926 0.74723,-1.67605 -1.369922,-1.28926 z"
                                   id="path17-7" /><path
                                   style="fill:#120d13;fill-opacity:1;stroke:none;stroke-width:2.34227;stroke-linecap:round;stroke-linejoin:round;stroke-miterlimit:10.1;stroke-opacity:1;paint-order:fill markers stroke"
                                   d="m 35.802557,151.43211 6.476,5.54383 1.743538,0.12893 0.249077,-1.9339 4.109769,0.38678 0.249077,1.28927 5.355152,0.38677 4.234308,-2.4496 0.498153,-1.80497 0.871769,-0.25785 0.747231,0.90249 -1.245383,-2.70746 -2.366231,0.90249 -1.868077,2.06282 -4.234308,0.12893 -0.871769,-2.06282 -6.974153,-0.12893 -3.487076,-0.64463 -1.868077,-0.38678 0.871769,-1.41819 z"
                                   id="path18" /><path
                                   style="fill:#b78f39;fill-opacity:1;stroke:none;stroke-width:2.34227;stroke-linecap:round;stroke-linejoin:round;stroke-miterlimit:10.1;stroke-opacity:1;paint-order:fill markers stroke"
                                   d="m 44.271172,135.83202 2.490769,-2.06282 -3.362538,-1.41819 -0.871769,-2.4496 v -2.4496 l 3.11346,-2.19175 1.992617,-1.16034 -1.120847,3.35209 0.622691,2.4496 2.615308,1.28926 1.494463,1.4182 1.120844,1.93388 1.120847,2.44961 -5.230615,-0.90249 z"
                                   id="path19"
                                   sodipodi:nodetypes="ccccccccccccccc" /></g></g></g></g></g></g></g></g></g></g></g></g><g
                 inkscape:label="Warstwa 1"
                 id="layer1-9-4"
                 transform="translate(5.6147241,27.412809)" /></g></g><g
             inkscape:label="Warstwa 1"
             id="layer1-9"
             transform="translate(5.6147241,27.412809)" /></g></g></g></g></svg>
