<?xml version="1.0" encoding="UTF-8" standalone="no"?>
<!-- Created with Inkscape (http://www.inkscape.org/) -->

<svg
   width="660"
   height="510"
   viewBox="0 0 174.62503 134.9375"
   version="1.1"
   id="svg1"
   xml:space="preserve"
   sodipodi:docname="wzór.svg"
   inkscape:version="1.3 (0e150ed6c4, 2023-07-21)"
   xmlns:inkscape="http://www.inkscape.org/namespaces/inkscape"
   xmlns:sodipodi="http://sodipodi.sourceforge.net/DTD/sodipodi-0.dtd"
   xmlns="http://www.w3.org/2000/svg"
   xmlns:svg="http://www.w3.org/2000/svg"><sodipodi:namedview
     id="namedview1"
     pagecolor="#ffffff"
     bordercolor="#000000"
     borderopacity="0.25"
     inkscape:showpageshadow="2"
     inkscape:pageopacity="0.0"
     inkscape:pagecheckerboard="0"
     inkscape:deskcolor="#d1d1d1"
     inkscape:document-units="mm"
     inkscape:zoom="0.74564394"
     inkscape:cx="561.25984"
     inkscape:cy="156.24079"
     inkscape:window-width="1018"
     inkscape:window-height="1033"
     inkscape:window-x="764"
     inkscape:window-y="54"
     inkscape:window-maximized="0"
     inkscape:current-layer="layer1-5" /><defs
     id="defs1" /><g
     inkscape:label="Warstwa 1"
     inkscape:groupmode="layer"
     id="layer1"><g
       inkscape:label="Warstwa 1"
       id="layer1-94"
       transform="translate(-9.0755263,-66.232026)"><g
         inkscape:label="Warstwa 1"
         id="layer1-4-5"
         transform="translate(-219.9045,28.683068)"><g
           inkscape:label="Warstwa 1"
           id="layer1-85"
           transform="translate(205.64297,-38.795969)"><g
             inkscape:label="Warstwa 1"
             id="layer1-4-5-5"
             transform="translate(-219.9045,28.683068)"><g
               inkscape:label="Warstwa 1"
               id="layer1-89"
               transform="translate(215.09434,-19.812097)"><g
                 inkscape:label="Warstwa 1"
                 id="layer1-4-5-3"
                 transform="translate(-219.9045,28.683068)"><g
                   inkscape:label="Warstwa 1"
                   id="layer1-3"
                   transform="translate(216.58408,-22.545672)"><g
                     inkscape:label="Warstwa 1"
                     id="layer1-4-5-0"
                     transform="translate(-219.9045,28.683068)"><g
                       inkscape:label="Warstwa 1"
                       id="layer1-5"
                       transform="translate(235.55056,-57.445467)"><g
                         inkscape:label="Warstwa 1"
                         id="layer1-4-5-4"
                         transform="translate(-219.9045,28.683068)"><path
                           style="fill:#a05a2c;stroke-width:0.264583"
                           d="m 13.342485,216.4151 13.609336,0.26685"
                           id="path3-6-5" /></g><rect
                         style="fill:#195c64;fill-opacity:1;stroke-width:2.319;stroke-linecap:round;stroke-linejoin:round;stroke-miterlimit:10.1;paint-order:fill markers stroke"
                         id="rect21"
                         width="175.29031"
                         height="134.83871"
                         x="16.176414"
                         y="90.453796"
                         ry="0.088709675" /><path
                         style="fill:#6c711c;fill-opacity:1;stroke-width:2.33431;stroke-linecap:round;stroke-linejoin:round;stroke-miterlimit:10.1;paint-order:fill markers stroke"
                         d="M 16.000077,206.21308 H 190.75706 v 18.99757 H 15.644156 Z"
                         id="path20" /><path
                         style="fill:#6c711c;fill-opacity:1;stroke-width:4.38394;stroke-linecap:round;stroke-linejoin:round;stroke-miterlimit:10.1;paint-order:fill markers stroke"
                         d="m 47.976465,215.3288 v -20.5153 h -2.28111 c 0,0 4.704791,-7.39735 7.413611,-7.79188 2.708818,-0.3945 24.37937,-0.49315 26.090203,-0.0985 1.710831,0.39453 5.132501,7.00281 5.132501,7.00281 h -2.138544 v 21.5016 z"
                         id="path21-9" /><path
                         style="fill:#6c711c;fill-opacity:1;stroke-width:2.00368;stroke-linecap:round;stroke-linejoin:round;stroke-miterlimit:10.1;paint-order:fill markers stroke"
                         d="m 160.53291,207.44244 v -9.37652 h -1.04258 c 0,0 2.15032,-3.38096 3.38839,-3.56128 1.23807,-0.18031 11.1426,-0.2254 11.92454,-0.045 0.78193,0.18032 2.34581,3.20064 2.34581,3.20064 h -0.97743 v 9.82731 z"
                         id="path21-3" /><g
                         inkscape:label="Warstwa 1"
                         id="layer1-9-9"
                         transform="matrix(0.89192173,0,0,0.89192173,15.689444,46.06407)"><path
                           style="fill:#130c07;fill-opacity:1;stroke-width:0.94641;stroke-linecap:round;stroke-linejoin:round;stroke-miterlimit:10.1;paint-order:fill markers stroke"
                           d="M 56.861581,79.805545 47.076136,193.38698 98.228414,193.2482 101.45023,72.491964 62.130667,73.439624 Z"
                           id="path5"
                           sodipodi:nodetypes="cccccc" /><path
                           style="fill:#814920;fill-opacity:1;stroke-width:0.826996;stroke-linecap:round;stroke-linejoin:round;stroke-miterlimit:10.1;paint-order:fill markers stroke"
                           d="m 146.41095,79.420319 7.45638,113.817161 -38.97738,-0.13907 -2.45498,-121.006851 29.961,0.949627 z"
                           id="path5-5"
                           sodipodi:nodetypes="cccccc" /><path
                           style="fill:none;fill-opacity:1;stroke:#d8d836;stroke-width:2.319;stroke-linecap:round;stroke-linejoin:round;stroke-miterlimit:10.1;stroke-dasharray:none;stroke-opacity:1;paint-order:fill markers stroke"
                           id="path6-8"
                           sodipodi:type="arc"
                           sodipodi:cx="143.57471"
                           sodipodi:cy="123.21606"
                           sodipodi:rx="2.5090885"
                           sodipodi:ry="6.8999934"
                           sodipodi:start="0"
                           sodipodi:end="6.2669335"
                           sodipodi:open="true"
                           sodipodi:arc-type="arc"
                           d="m 146.0838,123.21606 a 2.5090885,6.8999934 0 0 1 -2.4989,6.89993 2.5090885,6.8999934 0 0 1 -2.5192,-6.84387 2.5090885,6.8999934 0 0 1 2.47842,-6.95554 2.5090885,6.8999934 0 0 1 2.53934,6.78734" /><path
                           style="display:inline;fill:#dca47f;fill-opacity:1;stroke-width:0.203917"
                           d="m 98.758319,167.76222 1.308301,-53.45419 2.28943,-44.736975 10.28305,0.10157 16.56178,-0.14396 5.66634,0.66933 4.5124,16.32251 4.91268,16.055665 -0.15049,14.14167 -0.15048,14.14166 -8.91903,12.21732 -4.99443,12.3158 -3.50803,23.75604 -17.34159,0.0192 -8.51162,-0.13367 -2.868701,-0.23487 z"
                           id="path10-7-2"
                           sodipodi:nodetypes="ccccccccccccccccc" /><path
                           style="fill:none;fill-opacity:1;stroke:#d8d836;stroke-width:2.319;stroke-linecap:round;stroke-linejoin:round;stroke-miterlimit:10.1;stroke-dasharray:none;stroke-opacity:1;paint-order:fill markers stroke"
                           id="path6"
                           sodipodi:type="arc"
                           sodipodi:cx="61.127033"
                           sodipodi:cy="123.75978"
                           sodipodi:rx="2.5090885"
                           sodipodi:ry="6.8999934"
                           sodipodi:start="0"
                           sodipodi:end="6.2669335"
                           sodipodi:open="true"
                           sodipodi:arc-type="arc"
                           d="m 63.636122,123.75978 a 2.5090885,6.8999934 0 0 1 -2.498894,6.89994 2.5090885,6.8999934 0 0 1 -2.5192,-6.84387 2.5090885,6.8999934 0 0 1 2.478423,-6.95555 2.5090885,6.8999934 0 0 1 2.539339,6.78735" /><path
                           style="display:inline;fill:#d49264;fill-opacity:1;stroke-width:0.203133"
                           d="m 73.893389,154.47373 -7.88784,-14.74586 -2.17095,-6.53204 -4.38368,-17.89139 0.13843,-14.5758 0.66212,-7.753555 4.08049,-8.57052 4.74762,-14.57463 3.22774,-0.1406 29.721701,-0.20551 0.45457,0.10884 -0.12176,7.36752 -2.30095,61.053235 -0.688921,15.43665 -1.16567,25.50785 -2.55354,0.0108 -3.67644,0.0303 -15.34321,0.0896 z"
                           id="path11-58-23"
                           sodipodi:nodetypes="ccccccccccccccccccc" /><path
                           style="fill:#848c12;fill-opacity:1;stroke-width:0.206295"
                           d="m 72.798839,158.81074 19.94977,0.59099 6.86708,20.61921 -0.358019,20.66342 -49.453301,-0.0325 z"
                           id="path12-6-1"
                           sodipodi:nodetypes="cccccc" /><path
                           style="fill:#d8d836;fill-opacity:1;stroke-width:0.206295"
                           d="m 109.63437,158.47956 21.36494,0.11584 15.15448,41.97331 -47.767871,0.0649 -0.18209,-23.92882 z"
                           id="path12-3-0-2"
                           sodipodi:nodetypes="cccccc" /><rect
                           style="fill:#000000;stroke-width:0.290894"
                           id="rect12-5-9"
                           width="4.6698699"
                           height="14.192745"
                           x="118.61692"
                           y="89.834129" /><rect
                           style="fill:#000000;stroke-width:0.238723"
                           id="rect13-5-4"
                           width="5.7372684"
                           height="12.165227"
                           x="79.123154"
                           y="91.168373" /><path
                           style="fill:#000000;stroke-width:0.264583"
                           d="m 77.704409,133.3988 16.03875,9.15152"
                           id="path14-6-8" /><rect
                           style="fill:#000000;stroke-width:0.264583"
                           id="rect15-4-1"
                           width="21.081125"
                           height="3.0687716"
                           x="90.330841"
                           y="133.86433" /><rect
                           style="fill:#000000;stroke-width:0.264583"
                           id="rect16-6-4"
                           width="21.322109"
                           height="3.0190597"
                           x="72.421051"
                           y="84.339073" /><rect
                           style="fill:#000000;stroke-width:0.264583"
                           id="rect17-2-8"
                           width="22.454258"
                           height="3.2077508"
                           x="109.40452"
                           y="82.640846" /><path
                           style="fill:#5e351a;fill-opacity:1;stroke-width:0.43442"
                           d="m 143.88131,73.918466 -12.58041,-10.144398 -27.83371,-6.920813 -2.15998,14.26492 32.33482,1.81489 z"
                           id="path18-8-3-0-3"
                           sodipodi:nodetypes="cccccc" /><path
                           style="fill:#392010;fill-opacity:1;stroke-width:0.43442"
                           d="m 103.67476,56.962195 -27.171353,2.844561 -3.377718,5.748603 -5.50781,3.047116 -6.413146,5.394262 40.310047,-2.769612 z"
                           id="path18-8-3-1-2"
                           sodipodi:nodetypes="ccccccc" /></g><path
                         style="fill:#6c711c;fill-opacity:1;stroke-width:2.00368;stroke-linecap:round;stroke-linejoin:round;stroke-miterlimit:10.1;paint-order:fill markers stroke"
                         d="m 22.30523,206.64226 v -9.37652 h -1.042582 c 0,0 2.150326,-3.38096 3.388393,-3.56128 1.238066,-0.18031 11.142598,-0.2254 11.924535,-0.045 0.781936,0.18032 2.345811,3.20064 2.345811,3.20064 h -0.977422 v 9.82731 z"
                         id="path21" /></g></g></g></g><g
                 inkscape:label="Warstwa 1"
                 id="layer1-9-4"
                 transform="translate(5.6147241,27.412809)" /></g></g><g
             inkscape:label="Warstwa 1"
             id="layer1-9"
             transform="translate(5.6147241,27.412809)" /></g></g></g></g></svg>
