<?xml version="1.0" encoding="UTF-8" standalone="no"?>
<!-- Created with Inkscape (http://www.inkscape.org/) -->

<svg
   width="660"
   height="510"
   viewBox="0 0 174.62503 134.9375"
   version="1.1"
   id="svg1"
   xml:space="preserve"
   sodipodi:docname="wzór.svg"
   inkscape:version="1.3 (0e150ed6c4, 2023-07-21)"
   xmlns:inkscape="http://www.inkscape.org/namespaces/inkscape"
   xmlns:sodipodi="http://sodipodi.sourceforge.net/DTD/sodipodi-0.dtd"
   xmlns="http://www.w3.org/2000/svg"
   xmlns:svg="http://www.w3.org/2000/svg"><sodipodi:namedview
     id="namedview1"
     pagecolor="#ffffff"
     bordercolor="#000000"
     borderopacity="0.25"
     inkscape:showpageshadow="2"
     inkscape:pageopacity="0.0"
     inkscape:pagecheckerboard="0"
     inkscape:deskcolor="#d1d1d1"
     inkscape:document-units="mm"
     inkscape:zoom="0.52724989"
     inkscape:cx="492.17649"
     inkscape:cy="298.71984"
     inkscape:window-width="1018"
     inkscape:window-height="1033"
     inkscape:window-x="764"
     inkscape:window-y="54"
     inkscape:window-maximized="0"
     inkscape:current-layer="layer1-4-5-0" /><defs
     id="defs1" /><g
     inkscape:label="Warstwa 1"
     inkscape:groupmode="layer"
     id="layer1"><g
       inkscape:label="Warstwa 1"
       id="layer1-94"
       transform="translate(-9.0755263,-66.232026)"><g
         inkscape:label="Warstwa 1"
         id="layer1-4-5"
         transform="translate(-219.9045,28.683068)"><g
           inkscape:label="Warstwa 1"
           id="layer1-85"
           transform="translate(205.64297,-38.795969)"><g
             inkscape:label="Warstwa 1"
             id="layer1-4-5-5"
             transform="translate(-219.9045,28.683068)"><g
               inkscape:label="Warstwa 1"
               id="layer1-89"
               transform="translate(215.09434,-19.812097)"><g
                 inkscape:label="Warstwa 1"
                 id="layer1-4-5-3"
                 transform="translate(-219.9045,28.683068)"><g
                   inkscape:label="Warstwa 1"
                   id="layer1-3"
                   transform="translate(216.58408,-22.545672)"><g
                     inkscape:label="Warstwa 1"
                     id="layer1-4-5-0"
                     transform="translate(-219.9045,28.683068)"><rect
                       style="fill:#30124a;fill-opacity:1;stroke-width:2.319;stroke-linecap:round;stroke-linejoin:round;stroke-miterlimit:10.1;paint-order:fill markers stroke"
                       id="rect20"
                       width="175.29031"
                       height="133.41936"
                       x="251.37215"
                       y="32.653492"
                       ry="0.088709675" /><path
                       style="display:inline;fill:#f6b283;fill-opacity:1;stroke-width:0.190096"
                       d="m 333.67769,136.55345 1.21962,-49.831177 2.13425,-41.70478 9.5861,0.09468 15.43925,-0.134204 5.28228,0.623958 7.93801,13.723623 0.84826,16.460029 -2.62792,13.183166 -2.87667,13.183165 -6.57318,8.65286 -6.89478,14.21745 2.45128,22.14591 -16.1662,0.0179 -7.93472,-0.12462 -2.67427,-0.21894 z"
                       id="path10-77"
                       sodipodi:nodetypes="ccccccccccccccccc" /><path
                       style="fill:#124a1d;fill-opacity:1;stroke-width:2.319;stroke-linecap:round;stroke-linejoin:round;stroke-miterlimit:10.1;paint-order:fill markers stroke"
                       d="M 290.75924,143.36317 V 97.234137 l 19.16129,-4.258064 7.45161,-19.870967 -6.74194,-14.19355 -13.48387,-7.806451 -16.32258,-0.709678 -17.38709,0.709678 -8.16129,8.870968 -0.70968,18.451613 5.67742,7.806452 6.03226,10.29032 7.45161,0.354841 v 46.483871 z"
                       id="path20" /><path
                       style="display:inline;fill:#e2a175;fill-opacity:1;stroke-width:0.189365"
                       d="m 316.46836,124.91191 -5.11435,-14.99023 -6.50154,-6.08932 -6.07667,-15.683685 -0.11971,-14.085408 0.11971,-7.22803 2.80888,-7.989627 4.42583,-13.586789 3.00897,-0.131064 27.70722,-0.191583 0.42376,0.101456 -0.11351,6.868166 -2.14499,56.915154 -0.64223,14.39039 -1.08666,23.77898 -2.38046,0.0101 -3.42727,0.0282 -14.30328,0.0835 z"
                       id="path11-7"
                       sodipodi:nodetypes="ccccccccccccccccccc" /><path
                       style="fill:#124a1d;fill-opacity:1;stroke-width:2.319;stroke-linecap:round;stroke-linejoin:round;stroke-miterlimit:10.1;paint-order:fill markers stroke"
                       d="m 251.72698,141.94381 h 174.2258 v 25.90323 H 251.0173 Z"
                       id="path18" /><path
                       style="fill:#660505;fill-opacity:1;stroke-width:0.192313"
                       d="m 309.47769,128.20868 18.59761,0.55093 6.40165,19.22168 -0.32013,19.84116 -46.11509,-0.10669 z"
                       id="path12-37"
                       sodipodi:nodetypes="cccccc" /><path
                       style="fill:#7a2727;fill-opacity:1;stroke-width:0.192313"
                       d="m 343.81658,127.89994 19.91686,0.10799 14.16008,39.54302 -44.56299,0.29776 -0.16976,-22.95885 z"
                       id="path12-3-08"
                       sodipodi:nodetypes="cccccc" /><rect
                       style="fill:#000000;stroke-width:0.271178"
                       id="rect12-7"
                       width="4.3533554"
                       height="13.230789"
                       x="352.19031"
                       y="63.907162" /><rect
                       style="fill:#000000;stroke-width:0.222543"
                       id="rect13-3"
                       width="5.3484077"
                       height="11.340693"
                       x="315.37332"
                       y="65.150993" /><path
                       style="fill:#000000;stroke-width:0.24665"
                       d="m 314.05077,104.51911 14.95167,8.53124"
                       id="path14-4" /><rect
                       style="fill:#000000;stroke-width:0.24665"
                       id="rect15-8"
                       width="19.652288"
                       height="2.8607764"
                       x="325.5726"
                       y="100.10223" /><rect
                       style="fill:#000000;stroke-width:0.24665"
                       id="rect16-02"
                       width="19.87694"
                       height="2.8144338"
                       x="309.12546"
                       y="58.784557" /><rect
                       style="fill:#000000;stroke-width:0.24665"
                       id="rect17-7"
                       width="20.932354"
                       height="2.9903359"
                       x="343.60229"
                       y="57.201443" /><path
                       style="fill:#e6e6e6;stroke-width:0.461345"
                       d="m 368.88546,40.593086 -25.41094,-3.328415 -38.54535,3.517063 -2.03812,5.426668 50.30583,-0.284944 16.78083,-0.466281 z"
                       id="path18-8-3-5"
                       sodipodi:nodetypes="ccccccc" /><path
                       style="fill:#a05a2c;stroke-width:0.264583"
                       d="m 13.342485,216.4151 13.609336,0.26685"
                       id="path3-6" /><path
                       style="fill:#b3b3b3;stroke-width:0.465723"
                       d="m 333.39405,127.88509 1.67647,-23.44039 -16.35425,-0.57531 -19.63961,-15.199072 3.23832,28.097132 11.84255,10.2186 z"
                       id="path18-99"
                       sodipodi:nodetypes="ccccccc" /><path
                       style="fill:#cccccc;stroke-width:0.475873"
                       d="m 333.43378,127.93746 1.43858,-23.53741 18.62656,-0.79292 20.65382,-17.744673 -5.3025,31.586313 -10.9777,10.13902 z"
                       id="path18-6-6"
                       sodipodi:nodetypes="ccccccc" /><path
                       style="fill:#b3b3b3;stroke-width:0.185477"
                       d="m 334.80302,91.851154 0.63967,4.303779 -11.5389,0.854568 -9.37126,4.257689 -6.97272,-1.05604 15.45912,-7.575159 z"
                       id="path18-8-2"
                       sodipodi:nodetypes="ccccccc" /><path
                       style="fill:#cccccc;stroke-width:0.220038"
                       d="m 334.75177,91.852151 0.0512,4.397253 22.74972,6.506926 5.61754,0.0815 5.70688,-3.120996 -13.54407,-5.58662 z"
                       id="path18-6-7-2"
                       sodipodi:nodetypes="ccccccc" /><path
                       style="fill:#124a1d;fill-opacity:1;stroke-width:2.319;stroke-linecap:round;stroke-linejoin:round;stroke-miterlimit:10.1;paint-order:fill markers stroke"
                       d="m 408.56569,153.29865 0.35483,-48.25806 -23.41935,-6.032261 -6.38709,-10.645161 5.67741,-17.741934 15.25807,-14.903226 22.35484,-1.419355 3.90322,2.129032 -0.35484,46.483875 -1.77419,2.48387 -1.06452,47.54838 z"
                       id="path19" /></g></g></g><g
                 inkscape:label="Warstwa 1"
                 id="layer1-9-4"
                 transform="translate(5.6147241,27.412809)" /></g></g><g
             inkscape:label="Warstwa 1"
             id="layer1-9"
             transform="translate(5.6147241,27.412809)" /></g></g></g></g></svg>
