<?xml version="1.0" encoding="UTF-8" standalone="no"?>
<!-- Created with Inkscape (http://www.inkscape.org/) -->

<svg
   width="660"
   height="510"
   viewBox="0 0 174.62503 134.9375"
   version="1.1"
   id="svg1"
   xml:space="preserve"
   sodipodi:docname="wzór.svg"
   inkscape:version="1.3 (0e150ed6c4, 2023-07-21)"
   xmlns:inkscape="http://www.inkscape.org/namespaces/inkscape"
   xmlns:sodipodi="http://sodipodi.sourceforge.net/DTD/sodipodi-0.dtd"
   xmlns="http://www.w3.org/2000/svg"
   xmlns:svg="http://www.w3.org/2000/svg"><sodipodi:namedview
     id="namedview1"
     pagecolor="#ffffff"
     bordercolor="#000000"
     borderopacity="0.25"
     inkscape:showpageshadow="2"
     inkscape:pageopacity="0.0"
     inkscape:pagecheckerboard="0"
     inkscape:deskcolor="#d1d1d1"
     inkscape:document-units="mm"
     inkscape:zoom="0.37282197"
     inkscape:cx="889.16434"
     inkscape:cy="1079.6038"
     inkscape:window-width="1018"
     inkscape:window-height="1033"
     inkscape:window-x="764"
     inkscape:window-y="54"
     inkscape:window-maximized="0"
     inkscape:current-layer="layer1-4-5-3" /><defs
     id="defs1" /><g
     inkscape:label="Warstwa 1"
     inkscape:groupmode="layer"
     id="layer1"><g
       inkscape:label="Warstwa 1"
       id="layer1-94"
       transform="translate(-9.0755263,-66.232026)"><g
         inkscape:label="Warstwa 1"
         id="layer1-4-5"
         transform="translate(-219.9045,28.683068)"><g
           inkscape:label="Warstwa 1"
           id="layer1-85"
           transform="translate(205.64297,-38.795969)"><g
             inkscape:label="Warstwa 1"
             id="layer1-4-5-5"
             transform="translate(-219.9045,28.683068)"><g
               inkscape:label="Warstwa 1"
               id="layer1-89"
               transform="translate(215.09434,-19.812097)"><g
                 inkscape:label="Warstwa 1"
                 id="layer1-4-5-3"
                 transform="translate(-219.9045,28.683068)"><rect
                   style="fill:#45395d;fill-opacity:1;stroke-width:2.319;stroke-linecap:round;stroke-linejoin:round;stroke-miterlimit:10.1;paint-order:fill markers stroke"
                   id="rect18"
                   width="174.58064"
                   height="133.41936"
                   x="248.40656"
                   y="39.145725"
                   ry="0.088709675" /><path
                   style="display:inline;fill:#f7bc93;fill-opacity:1;stroke-width:0.199167"
                   d="m 331.47552,144.51475 1.30287,-51.204843 2.27996,-42.854428 10.24047,0.0973 16.49318,-0.137904 5.64288,0.641158 3.75195,14.101933 1.85175,17.859357 0.97501,12.600994 -3.07304,13.546583 -15.01772,14.90014 -1.61843,10.04272 4.86745,21.31429 -17.26977,0.0184 -8.47637,-0.12804 -2.85682,-0.22498 z"
                   id="path10-77-2-5"
                   sodipodi:nodetypes="ccccccccccccccccc" /><path
                   style="fill:#5e1d0b;fill-opacity:1;stroke-width:2.319;stroke-linecap:round;stroke-linejoin:round;stroke-miterlimit:10.1;paint-order:fill markers stroke"
                   d="m 248.05172,100.17798 h 41.51613 l 6.73849,11.37909 0.003,4.23382 h -5.32258 l -3.00291,-4.37261 -5.47196,-0.0128 -0.0412,6.5144 -0.35483,29.09677 h 4.96774 v 3.54839 h 4.96774 v 3.19355 h 4.6129 l -0.091,2.62223 -48.4789,-0.47172 z"
                   id="path15"
                   sodipodi:nodetypes="ccccccccccccccccc" /><path
                   style="display:inline;fill:#e2a175;fill-opacity:1;stroke-width:0.204322"
                   d="m 312.19814,132.34623 0.0354,-8.99425 -13.60372,-9.95122 -6.29798,-19.171319 2.70234,-11.767247 0.6072,-7.966943 2.2084,-10.174959 2.60565,-14.559819 3.37865,-0.135891 31.11142,-0.198636 0.47581,0.105192 -0.12745,7.121037 -2.40853,59.010675 -0.72114,14.9202 -1.22017,24.65447 -2.67294,0.0105 -3.84834,0.0293 -16.06062,0.0866 z"
                   id="path11-7-8-8"
                   sodipodi:nodetypes="ccccccccccccccccccc" /><rect
                   style="fill:#5e1d0b;fill-opacity:1;stroke-width:2.319;stroke-linecap:round;stroke-linejoin:round;stroke-miterlimit:10.1;paint-order:fill markers stroke"
                   id="rect5"
                   width="174.75807"
                   height="18.274193"
                   x="248.22914"
                   y="155.53282"
                   ry="0.088709675" /><path
                   style="fill:#7d311d;fill-opacity:1;stroke-width:0.207532"
                   d="m 304.1635,134.9235 21.42905,0.55681 7.37627,19.42661 -0.35737,18.84167 -43.45233,-0.0726 z"
                   id="path12-37-9-0"
                   sodipodi:nodetypes="cccccc" /><path
                   style="fill:#b4462b;fill-opacity:1;stroke-width:0.207532"
                   d="m 343.73038,134.61148 22.94915,0.10914 10.15368,39.07706 -45.18535,-0.0794 -0.19559,-21.9357 z"
                   id="path12-3-08-0-1"
                   sodipodi:nodetypes="cccccc" /><rect
                   style="fill:#000000;stroke-width:0.274069"
                   id="rect12-7-7-0"
                   width="4.3997674"
                   height="13.371845"
                   x="350.64844"
                   y="69.936447" /><rect
                   style="fill:#000000;stroke-width:0.224915"
                   id="rect13-3-1-7"
                   width="5.4054284"
                   height="11.461597"
                   x="313.43896"
                   y="71.19355" /><path
                   style="fill:#000000;stroke-width:0.24928"
                   d="m 312.1023,110.98137 15.11107,8.6222"
                   id="path14-4-7-1" /><rect
                   style="fill:#000000;stroke-width:0.24928"
                   id="rect15-8-9-3"
                   width="19.861805"
                   height="2.8912756"
                   x="323.74701"
                   y="106.5174" /><rect
                   style="fill:#000000;stroke-width:0.24928"
                   id="rect16-02-8-2"
                   width="20.088852"
                   height="2.844439"
                   x="311.42328"
                   y="-41.853275"
                   transform="rotate(18.954859)" /><rect
                   style="fill:#000000;stroke-width:0.24928"
                   id="rect17-7-9-5"
                   width="21.155518"
                   height="3.0222163"
                   x="298.64279"
                   y="179.74576"
                   transform="rotate(-19.983057)" /><path
                   style="fill:#4d0909;fill-opacity:1;stroke-width:0.466263"
                   d="m 366.27965,46.373816 -25.68185,-3.3639 -38.95629,3.55456 -2.05984,5.484522 50.84215,-0.287983 16.95974,-0.471251 z"
                   id="path18-8-3-5-8-0"
                   sodipodi:nodetypes="ccccccc" /><path
                   style="fill:#724f4f;fill-opacity:1;stroke:none;stroke-width:2.18487;stroke-linecap:round;stroke-linejoin:round;stroke-miterlimit:10.1;stroke-dasharray:none;stroke-opacity:1;paint-order:fill markers stroke"
                   d="m 389.6115,122.2059 2.12757,12.29261 -5.67351,12.76541 4.96432,4.01874 7.56469,-11.34703 V 128.5886 Z"
                   id="path7" /><path
                   style="fill:#642e2e;fill-opacity:1;stroke:none;stroke-width:2.18487;stroke-linecap:round;stroke-linejoin:round;stroke-miterlimit:10.1;stroke-dasharray:none;stroke-opacity:1;paint-order:fill markers stroke"
                   d="m 387.36574,147.61851 -4.13694,-3.07316 -1.53658,2.24578 10.63784,7.91928 1.89117,-2.71857 z"
                   id="path8" /><path
                   style="fill:#642e2e;fill-opacity:1;stroke:none;stroke-width:2.18487;stroke-linecap:round;stroke-linejoin:round;stroke-miterlimit:10.1;stroke-dasharray:none;stroke-opacity:1;paint-order:fill markers stroke"
                   d="m 382.04682,154.9468 4.13693,-6.02811 2.36397,1.65478 -4.25514,5.67351 z"
                   id="path9" /><path
                   style="fill:#5b3f3f;fill-opacity:1;stroke:none;stroke-width:2.18487;stroke-linecap:round;stroke-linejoin:round;stroke-miterlimit:10.1;stroke-dasharray:none;stroke-opacity:1;paint-order:fill markers stroke"
                   d="m 387.83852,147.85491 6.61911,-11.11064 1.30018,1.06379 -6.5009,10.63784 z"
                   id="path13" /></g><g
                 inkscape:label="Warstwa 1"
                 id="layer1-9-4"
                 transform="translate(5.6147241,27.412809)" /></g></g><g
             inkscape:label="Warstwa 1"
             id="layer1-9"
             transform="translate(5.6147241,27.412809)" /></g></g></g></g></svg>
