<?xml version="1.0" encoding="UTF-8" standalone="no"?>
<!-- Created with Inkscape (http://www.inkscape.org/) -->

<svg
   width="660"
   height="510"
   viewBox="0 0 174.62503 134.9375"
   version="1.1"
   id="svg1"
   xml:space="preserve"
   sodipodi:docname="wzór.svg"
   inkscape:version="1.3 (0e150ed6c4, 2023-07-21)"
   xmlns:inkscape="http://www.inkscape.org/namespaces/inkscape"
   xmlns:sodipodi="http://sodipodi.sourceforge.net/DTD/sodipodi-0.dtd"
   xmlns="http://www.w3.org/2000/svg"
   xmlns:svg="http://www.w3.org/2000/svg"><sodipodi:namedview
     id="namedview1"
     pagecolor="#ffffff"
     bordercolor="#000000"
     borderopacity="0.25"
     inkscape:showpageshadow="2"
     inkscape:pageopacity="0.0"
     inkscape:pagecheckerboard="0"
     inkscape:deskcolor="#d1d1d1"
     inkscape:document-units="mm"
     inkscape:zoom="0.86022908"
     inkscape:cx="313.28864"
     inkscape:cy="310.96368"
     inkscape:window-width="1662"
     inkscape:window-height="1033"
     inkscape:window-x="5"
     inkscape:window-y="110"
     inkscape:window-maximized="0"
     inkscape:current-layer="layer1"
     showgrid="false" /><defs
     id="defs1" /><g
     inkscape:label="Warstwa 1"
     id="layer1"
     transform="translate(-50.295536,-195.05793)"><rect
       style="fill:#432240;fill-opacity:1;stroke-width:2.319;stroke-linecap:round;stroke-linejoin:round;stroke-miterlimit:10.1;paint-order:fill markers stroke"
       id="rect36"
       width="174.64209"
       height="135.27693"
       x="50.295536"
       y="195.27542"
       ry="0.088709675" /><path
       style="fill:#3f1611;fill-opacity:1;stroke-width:2.319;stroke-linecap:round;stroke-linejoin:round;stroke-miterlimit:10.1;paint-order:fill markers stroke"
       d="m 61.169888,268.13357 155.503222,2.17487 -10.87435,-4.78471 -139.191697,-2.39236 z"
       id="path35" /><path
       style="fill:#3f1611;fill-opacity:1;stroke-width:2.319;stroke-linecap:round;stroke-linejoin:round;stroke-miterlimit:10.1;paint-order:fill markers stroke"
       d="m 50.513023,300.10417 174.207107,-0.21749 0.43498,30.44818 -175.512035,-0.43497 z"
       id="path33" /><path
       style="fill:#3b3743;fill-opacity:1;stroke-width:2.32956;stroke-linecap:round;stroke-linejoin:round;stroke-miterlimit:10.1;paint-order:fill markers stroke"
       d="m 98.468913,299.83231 -8.916967,5.70625 -3.697279,23.70292 -0.434975,0.65841 29.034528,0.0504 z m 8.155767,22.67302 z"
       id="path30"
       sodipodi:nodetypes="cccccc" /><path
       style="fill:#3b3743;fill-opacity:1;stroke-width:2.72373;stroke-linecap:round;stroke-linejoin:round;stroke-miterlimit:10.1;paint-order:fill markers stroke"
       d="m 179.46796,300.3843 12.18985,5.70625 5.05433,23.70292 0.59463,0.65841 -39.69136,0.0504 z m -11.14925,22.67302 z"
       id="path30-4"
       sodipodi:nodetypes="cccccc" /><path
       style="display:inline;fill:#b7886b;fill-opacity:1;stroke-width:0.127305"
       d="m 141.91229,309.50788 0.81677,-33.37133 1.42929,-27.92918 6.41968,0.0634 10.33948,-0.0899 3.53749,0.41786 5.31598,9.19055 0.56807,11.02308 -1.75989,8.8286 -1.92647,8.82861 -1.533,8.66368 -7.48633,6.65228 1.6416,14.83084 -10.82631,0.012 -5.31379,-0.0834 -1.79092,-0.14663 z"
       id="path10-77"
       sodipodi:nodetypes="ccccccccccccccccc" /><path
       style="fill:#4b4755;fill-opacity:1;stroke-width:2.2605;stroke-linecap:round;stroke-linejoin:round;stroke-miterlimit:10.1;paint-order:fill markers stroke"
       d="m 163.17232,297.29153 17.89331,-7.83678 2.61851,4.24952 2.30682,8.27831 0.37405,10.43065 -13.96548,17.66035 -31.17298,0.22077 -0.24938,-16.33584 3.49137,-9.71321 z"
       id="path20-2" /><path
       style="display:inline;fill:#906346;fill-opacity:1;stroke-width:0.126815"
       d="m 130.38742,301.71169 -6.71901,-6.00097 -2.12258,-8.222 -3.0069,-10.39692 -0.0802,-9.43283 0.0802,-4.84052 1.88107,-5.35056 2.96393,-9.0989 2.01507,-0.0878 18.55518,-0.12831 0.28379,0.0679 -0.076,4.59952 -1.43648,38.11539 -0.43009,9.63707 -0.72773,15.92449 -1.59417,0.007 -2.29519,0.0189 -9.57873,0.0559 z"
       id="path11-7"
       sodipodi:nodetypes="ccccccccccccccccccc" /><path
       style="fill:#4b4755;fill-opacity:1;stroke-width:2.319;stroke-linecap:round;stroke-linejoin:round;stroke-miterlimit:10.1;paint-order:fill markers stroke"
       d="m 120.34077,294.10814 -17.27061,-8.54503 -2.5274,4.63357 -2.226527,9.02645 -0.361056,11.37332 13.479493,19.25642 30.08816,0.24071 0.2407,-17.81219 -3.36987,-10.59103 z"
       id="path20" /><path
       style="fill:#888888;fill-opacity:1;stroke-width:2.392;stroke-linecap:round;stroke-linejoin:round;stroke-miterlimit:10.1;paint-order:fill markers stroke"
       d="m 129.41872,310.62852 c 0,0 1.57654,10.89321 1.9519,11.64736 0.37537,0.75414 3.52845,7.96042 3.52845,7.96042 h 16.51613 c 0,0 2.92786,-8.128 3.00293,-9.04974 0.0751,-0.92174 0.37537,-7.54145 0.37537,-7.54145 l -11.71144,4.27348 -9.83461,-3.18416 z"
       id="path29"
       sodipodi:nodetypes="csccscccc" /><rect
       style="fill:#000000;stroke-width:0.181604"
       id="rect12-7"
       width="2.9153888"
       height="8.8604975"
       x="154.30997"
       y="260.85754" /><rect
       style="fill:#000000;stroke-width:0.149034"
       id="rect13-3"
       width="3.5817633"
       height="7.5947223"
       x="129.6541"
       y="261.69052" /><path
       style="fill:#000000;stroke-width:0.165179"
       d="m 128.76839,288.05487 10.01295,5.71328"
       id="path14-4" /><rect
       style="fill:#000000;stroke-width:0.165179"
       id="rect15-8"
       width="13.160896"
       height="1.9158269"
       x="136.48445"
       y="285.09692" /><path
       style="fill:#756f85;fill-opacity:1;stroke-width:2.26517;stroke-linecap:round;stroke-linejoin:round;stroke-miterlimit:10.1;paint-order:fill markers stroke"
       d="m 155.30054,306.2647 6.96327,-7.0774 17.40818,-8.30232 2.1553,3.4026 2.65267,8.71065 0.76408,9.93555 -12.74427,17.08987 9.8249,-16.68155 0.66317,-8.98285 -4.14481,-11.43271 -10.94228,4.76363 -8.12382,5.85245 -3.31583,4.35533 -2.81848,-0.54441 -6.79748,1.63324 -5.96852,1.63325 6.79749,-3.5387 z"
       id="path21-9"
       sodipodi:nodetypes="cccccccccccccccccc" /><rect
       style="fill:#000000;stroke-width:0.165179"
       id="rect16-02"
       width="13.311342"
       height="1.8847919"
       x="125.47"
       y="257.42697" /><rect
       style="fill:#000000;stroke-width:0.165179"
       id="rect17-7"
       width="14.01814"
       height="2.0025914"
       x="148.55869"
       y="256.36682" /><path
       style="fill:#2b2931;stroke-width:1.44775;stroke-linecap:round;stroke-linejoin:round;stroke-miterlimit:10.1;paint-order:fill markers stroke"
       d="m 120.41992,279.94981 7.58872,5.78546 4.28274,12.09687 0.75136,0.30055 -3.9822,-11.94661 -1.57786,-3.08056 -5.18437,-3.53139 -2.25408,-4.80869 z"
       id="path2" /><path
       style="fill:#2b2931;stroke-width:1.66729;stroke-linecap:round;stroke-linejoin:round;stroke-miterlimit:10.1;paint-order:fill markers stroke"
       d="m 167.91565,279.88119 -9.69425,6.00656 -5.47102,12.55918 -0.95982,0.31202 5.08707,-12.40316 2.01565,-3.19829 6.62282,-3.66635 2.87947,-4.99246 z"
       id="path2-7" /><path
       style="fill:#2b2931;stroke-width:1.36431;stroke-linecap:round;stroke-linejoin:round;stroke-miterlimit:10.1;paint-order:fill markers stroke"
       d="m 117.34503,257.01126 19.17587,5.85631 7.45119,0.64053 7.23202,-0.91505 18.1897,-5.03276 7.45119,-3.38567 13.03958,-15.6473 5.58841,-13.26818 -1.20534,-2.83665 -6.79373,9.05896 -13.91621,10.24853 -2.41067,-1.00654 -4.60639,-17.38722 -3.62351,-3.10984 -34.61447,0.183 -4.05433,3.47718 -2.95856,14.09173 -2.52026,2.28761 -12.18288,-10.93254 -5.73369,-8.02324 -0.929781,2.19993 5.268791,19.02285 z"
       id="path5"
       sodipodi:nodetypes="ccccccccccccccccccccccc" /><path
       style="fill:#555161;fill-opacity:1;stroke-width:2.39198;stroke-linecap:round;stroke-linejoin:round;stroke-miterlimit:10.1;paint-order:fill markers stroke"
       d="m 194.40984,224.39895 -6.22652,8.31107 -12.99452,10.36038 -7.44476,10.58808 -18.54424,9.10804 2.30111,-0.22771 12.58843,-5.46482 7.30942,-4.44017 12.99449,-14.45898 6.6326,-6.03406 z"
       id="path6-5" /><path
       style="fill:#1b191e;fill-opacity:1;stroke-width:2.319;stroke-linecap:round;stroke-linejoin:round;stroke-miterlimit:10.1;paint-order:fill markers stroke"
       d="m 194.47798,223.70186 -3.24952,8.66538 -7.34151,6.01764 -12.39632,13.7202 -8.54503,5.17516 -11.1928,5.05481 1.32388,-0.24071 9.74856,-4.09199 9.74856,-5.41586 11.1928,-13.11844 8.06363,-6.98045 z"
       id="path8" /><path
       style="fill:#4e3626;fill-opacity:1;stroke-width:2.319;stroke-linecap:round;stroke-linejoin:round;stroke-miterlimit:10.1;paint-order:fill markers stroke"
       d="m 129.78704,303.25773 0.54372,3.37105 c 0,0 3.37105,2.93607 5.0022,4.02351 1.63116,1.08743 6.85085,2.17487 6.85085,2.17487 l 5.98089,-0.76121 5.0022,-2.5011 3.15356,-5.54592 z"
       id="path24" /><path
       style="fill:#2b2931;stroke-width:1.44775;stroke-linecap:round;stroke-linejoin:round;stroke-miterlimit:10.1;paint-order:fill markers stroke"
       d="m 119.66574,259.78907 -1.38135,2.97523 0.21251,14.23859 2.23142,19.02021 7.86311,6.90678 9.1382,3.93155 4.14407,7.75685 3.61277,-6.90678 12.21969,-4.14407 7.75685,-6.90678 4.99413,-27.83964 -0.63755,-8.92569 -0.74381,0.63756 0.53129,6.80052 -1.06258,6.16297 -2.76271,12.32595 -1.06258,8.18187 c 0,0 -1.48762,2.01891 -2.01891,2.23142 -0.53128,0.21252 -5.10039,2.01891 -5.10039,2.01891 l -6.16297,0.21252 -3.08148,-2.65646 -1.91265,-5.3129 -3.93155,-1.48762 -4.03781,1.38135 -2.01891,4.67536 -3.71904,2.5502 -5.63168,-0.10626 -3.18774,-2.44394 -1.06258,-2.86896 -2.33768,-13.70731 -1.16884,-12.75098 z"
       id="path1" /><path
       style="fill:#35251a;fill-opacity:1;stroke-width:1.88809;stroke-linecap:round;stroke-linejoin:round;stroke-miterlimit:10.1;paint-order:fill markers stroke"
       d="m 153.91114,308.41217 -0.75526,0.86686 -4.78582,2.36681 -5.35436,1.06443 -0.21698,0.35535 5.34612,-1.07171 5.22258,-2.47021 z"
       id="path25-4"
       sodipodi:nodetypes="cccccccc" /><path
       style="fill:#888888;fill-opacity:1;stroke-width:2.319;stroke-linecap:round;stroke-linejoin:round;stroke-miterlimit:10.1;paint-order:fill markers stroke"
       d="m 130.41833,306.47628 1.92233,1.84544 2.99884,2.46059 5.38315,2.03346 1.22967,1.96499 0.98976,-1.87152 5.36506,-0.92236 5.21489,-2.56932 0.73322,-1.17273 1.38408,0.15379 -0.61515,2.46059 -0.30757,2.92194 c 0,0 -2.3068,2.61437 -2.92195,2.76816 -0.61515,0.15379 -8.91962,1.53786 -8.91962,1.53786 l -5.84389,-1.38407 -4.30602,-1.84544 -2.15301,-2.76816 -1.07651,-0.76893 -0.15379,-4.76739 z"
       id="path26"
       sodipodi:nodetypes="ccccccccccccsccccccc" /><path
       style="fill:#3b3743;fill-opacity:1;stroke-width:2.32193;stroke-linecap:round;stroke-linejoin:round;stroke-miterlimit:10.1;paint-order:fill markers stroke"
       d="m 155.50489,308.53179 -0.77064,4.49965 -0.25688,7.84556 -2.92843,9.057 3.44219,-8.88393 z"
       id="path32" /><path
       style="fill:#3f1611;fill-opacity:1;stroke-width:2.82903;stroke-linecap:round;stroke-linejoin:round;stroke-miterlimit:10.1;paint-order:fill markers stroke"
       d="m 66.703019,300.10417 v -32.62306 h 3.884077 l -1.294694,33.05803 h 4.855096 l 1.294692,-32.84054 18.110857,0.83264 -0.663446,32.11665 -14.858028,1.63115 -12.946919,0.21748 z"
       id="path34"
       sodipodi:nodetypes="ccccccccccc" /><path
       style="fill:#3f1611;fill-opacity:1;stroke-width:2.60504;stroke-linecap:round;stroke-linejoin:round;stroke-miterlimit:10.1;paint-order:fill markers stroke"
       d="m 185.51629,301.11187 0,-31.31814 17.865,-0.65246 -1.0978,33.05803 h 4.11673 l 1.09779,-32.84054 2.74448,0.21749 -0.82334,32.18808 0.27444,2.17487 -10.97792,0.21748 z"
       id="path34-7"
       sodipodi:nodetypes="ccccccccccc" /></g></svg>
