<?xml version="1.0" encoding="UTF-8" standalone="no"?>
<!-- Created with Inkscape (http://www.inkscape.org/) -->

<svg
   width="660"
   height="510"
   viewBox="0 0 174.62503 134.9375"
   version="1.1"
   id="svg1"
   xml:space="preserve"
   sodipodi:docname="wzór.svg"
   inkscape:version="1.3 (0e150ed6c4, 2023-07-21)"
   xmlns:inkscape="http://www.inkscape.org/namespaces/inkscape"
   xmlns:sodipodi="http://sodipodi.sourceforge.net/DTD/sodipodi-0.dtd"
   xmlns="http://www.w3.org/2000/svg"
   xmlns:svg="http://www.w3.org/2000/svg"><sodipodi:namedview
     id="namedview1"
     pagecolor="#ffffff"
     bordercolor="#000000"
     borderopacity="0.25"
     inkscape:showpageshadow="2"
     inkscape:pageopacity="0.0"
     inkscape:pagecheckerboard="0"
     inkscape:deskcolor="#d1d1d1"
     inkscape:document-units="mm"
     inkscape:zoom="0.74564394"
     inkscape:cx="539.80188"
     inkscape:cy="362.77369"
     inkscape:window-width="1018"
     inkscape:window-height="1033"
     inkscape:window-x="764"
     inkscape:window-y="54"
     inkscape:window-maximized="0"
     inkscape:current-layer="layer1-4-5-5" /><defs
     id="defs1" /><g
     inkscape:label="Warstwa 1"
     inkscape:groupmode="layer"
     id="layer1"><g
       inkscape:label="Warstwa 1"
       id="layer1-94"
       transform="translate(-9.0755263,-66.232026)"><g
         inkscape:label="Warstwa 1"
         id="layer1-4-5"
         transform="translate(-219.9045,28.683068)"><g
           inkscape:label="Warstwa 1"
           id="layer1-85"
           transform="translate(205.64297,-38.795969)"><g
             inkscape:label="Warstwa 1"
             id="layer1-4-5-5"
             transform="translate(-219.9045,28.683068)"><path
               style="fill:#a05a2c;stroke-width:0.264583"
               d="m 13.342485,216.4151 13.609336,0.26685"
               id="path3-6" /><rect
               style="fill:#59415a;fill-opacity:1;stroke-width:2.319;stroke-linecap:round;stroke-linejoin:round;stroke-miterlimit:10.1;paint-order:fill markers stroke"
               id="rect5"
               width="175.1129"
               height="135.37097"
               x="243.06415"
               y="47.661858"
               ry="0.088709675" /><path
               style="fill:#9c2b1a;fill-opacity:1;stroke-width:0.351434"
               d="m 361.9812,53.0014 -19.92573,-3.286583 -30.4833,1.310951 -1.76987,3.92147 39.65413,1.453587 13.23888,0.212012 z"
               id="path18-8-3-5-8-0-3"
               sodipodi:nodetypes="ccccccc" /><path
               style="fill:#3b3b3b;fill-opacity:1;stroke-width:2.319;stroke-linecap:round;stroke-linejoin:round;stroke-miterlimit:10.1;paint-order:fill markers stroke"
               d="m 398.66091,169.0167 v -52.16129 h 7.80645 L 393.32776,94.09694 H 309.5964 l -15.99214,15.99214 h 12.44375 v 60.70181 h 92.96774 z"
               id="path5" /><path
               style="display:inline;fill:#f7bc93;fill-opacity:1;stroke-width:0.210874"
               d="m 330.0743,152.31324 1.40019,-53.412324 2.45024,-44.701917 11.00534,0.10149 14.99056,1.584231 6.40617,1.705647 8.42962,12.636182 4.05018,16.951707 1.08478,15.858674 -3.56145,18.79131 -19.9823,9.15369 -1.73932,10.47566 5.231,22.23317 -18.55967,0.0192 -9.10948,-0.13356 -3.0702,-0.23468 z"
               id="path10-77-2-1"
               sodipodi:nodetypes="ccccccccccccccccc" /><path
               style="display:inline;fill:#e2a175;fill-opacity:1;stroke-width:0.210064"
               d="m 310.31708,139.83508 0.0362,-9.29828 -17.04388,-7.45619 -3.30429,-22.65078 2.9389,-14.752051 2.53014,-9.12994 2.88291,-8.218189 c 0,0 10.76203,-13.380172 10.92826,-13.666848 l 24.28944,-0.550966 0.4865,0.108747 -0.13032,7.36175 -2.46256,61.005417 -0.73732,15.42455 -1.24755,25.48787 -2.7329,0.0108 -3.93467,0.0303 -16.42092,0.0895 z"
               id="path11-7-8-1"
               sodipodi:nodetypes="cccccccccccccccccc" /><path
               style="fill:#3b3b3b;fill-opacity:1;stroke-width:2.38815;stroke-linecap:round;stroke-linejoin:round;stroke-miterlimit:10.1;paint-order:fill markers stroke"
               d="m 243.07999,168.85083 175.32639,0.26543 -0.25153,14.33294 -175.3264,-0.26541 z"
               id="path2" /><path
               style="fill:#246c27;fill-opacity:1;stroke-width:0.213364"
               d="m 302.10219,142.49947 21.90979,0.57563 7.54175,20.08329 -1.27943,19.40509 -43.5131,-0.002 z"
               id="path12-37-9-6"
               sodipodi:nodetypes="cccccc" /><path
               style="fill:#850b00;fill-opacity:1;stroke-width:0.213364"
               d="m 342.55672,142.1769 23.46399,0.11283 10.38147,40.39799 -46.19904,-0.0821 -0.19998,-22.6772 z"
               id="path12-3-08-0-3"
               sodipodi:nodetypes="cccccc" /><rect
               style="fill:#000000;stroke-width:0.281771"
               id="rect12-7-7-7"
               width="4.4984717"
               height="13.823855"
               x="349.63"
               y="75.315659" /><rect
               style="fill:#000000;stroke-width:0.231236"
               id="rect13-3-1-5"
               width="5.5266938"
               height="11.849035"
               x="311.58575"
               y="76.615242" /><path
               style="fill:#000000;stroke-width:0.256285"
               d="m 310.21909,117.74802 15.45008,8.91366"
               id="path14-4-7-4" /><rect
               style="fill:#000000;stroke-width:0.256285"
               id="rect15-8-9-0"
               width="20.307386"
               height="2.9890099"
               x="322.12506"
               y="113.13314" /><rect
               style="fill:#000000;stroke-width:0.256286"
               id="rect16-02-8-8"
               width="20.543882"
               height="2.9399798"
               x="311.92059"
               y="25.351402"
               transform="matrix(0.9902585,0.13924119,-0.13625264,0.99067412,0,0)" /><rect
               style="fill:#000000;stroke-width:0.256286"
               id="rect17-7-9-1"
               width="21.633406"
               height="3.1239126"
               x="330.35666"
               y="109.24557"
               transform="matrix(0.9930349,-0.11782058,0.11527803,0.99333327,0,0)" /><path
               style="fill:#363636;fill-opacity:1;stroke-width:0.192722"
               d="m 331.6631,104.51223 0.661,4.49671 -10.72719,0.72006 0.4529,-4.74236 z"
               id="path18-8-2-5-1"
               sodipodi:nodetypes="ccccc" /><path
               style="fill:#515151;fill-opacity:1;stroke-width:0.228633"
               d="m 331.61014,104.51327 0.0529,4.59437 11.88635,2.13278 0.26998,-5.55664 z"
               id="path18-6-7-2-9-5"
               sodipodi:nodetypes="ccccc" /><path
               style="fill:#515151;fill-opacity:1;stroke:none;stroke-width:2.24627;stroke-linecap:round;stroke-linejoin:round;stroke-miterlimit:10.1;stroke-dasharray:none;stroke-opacity:1;paint-order:fill markers stroke"
               d="m 352.72929,131.27498 -9.4263,0.48876 -5.55909,3.42143 -2.417,4.64337 0.96681,5.13212 2.1753,0.24439 -1.20851,-4.15458 1.6919,-4.15459 5.0757,-1.46632 3.62549,0.24439 -2.6587,1.46632 -1.20849,2.68827 1.20849,1.46632 2.6587,-3.9102 2.9004,-0.48878 1.9336,2.44388 -0.7251,-3.9102 0.9668,-2.19948 1.45019,-0.73317 z"
               id="path15" /><path
               style="fill:#333333;fill-opacity:1;stroke:none;stroke-width:2.24627;stroke-linecap:round;stroke-linejoin:round;stroke-miterlimit:10.1;stroke-dasharray:none;stroke-opacity:1;paint-order:fill markers stroke"
               d="m 348.37869,131.64156 -3.26294,2.32167 -1.81276,2.32169 v 2.93264 l 1.20851,-2.68825 2.29614,-1.46634 v 2.56608 l 1.4502,2.68825 0.84596,-6.10968 5.19654,0.97755 z"
               id="path16" /><path
               style="fill:#333333;fill-opacity:1;stroke:none;stroke-width:2.24627;stroke-linecap:round;stroke-linejoin:round;stroke-miterlimit:10.1;stroke-dasharray:none;stroke-opacity:1;paint-order:fill markers stroke"
               d="m 334.53411,132.59498 -2.05089,4.62262 0.17091,3.97458 0.1709,6.5667 1.06817,-5.35704 1.32454,-1.90089 3.24724,-0.17281 -2.2218,-1.90088 3.58906,-3.11055 -2.77724,-0.0864 -2.34998,1.85769 1.70907,-5.57307 z"
               id="path17"
               sodipodi:nodetypes="ccccccccccccc" /></g><g
             inkscape:label="Warstwa 1"
             id="layer1-9"
             transform="translate(5.6147241,27.412809)" /></g></g></g></g></svg>
