<?xml version="1.0" encoding="UTF-8" standalone="no"?>
<!-- Created with Inkscape (http://www.inkscape.org/) -->

<svg
   width="660"
   height="510"
   viewBox="0 0 174.62503 134.9375"
   version="1.1"
   id="svg1"
   xml:space="preserve"
   sodipodi:docname="wzór.svg"
   inkscape:version="1.3 (0e150ed6c4, 2023-07-21)"
   xmlns:inkscape="http://www.inkscape.org/namespaces/inkscape"
   xmlns:sodipodi="http://sodipodi.sourceforge.net/DTD/sodipodi-0.dtd"
   xmlns="http://www.w3.org/2000/svg"
   xmlns:svg="http://www.w3.org/2000/svg"><sodipodi:namedview
     id="namedview1"
     pagecolor="#ffffff"
     bordercolor="#000000"
     borderopacity="0.25"
     inkscape:showpageshadow="2"
     inkscape:pageopacity="0.0"
     inkscape:pagecheckerboard="0"
     inkscape:deskcolor="#d1d1d1"
     inkscape:document-units="mm"
     inkscape:zoom="0.60827381"
     inkscape:cx="213.71954"
     inkscape:cy="281.94539"
     inkscape:window-width="887"
     inkscape:window-height="1033"
     inkscape:window-x="780"
     inkscape:window-y="61"
     inkscape:window-maximized="0"
     inkscape:current-layer="layer1-4-5-5"
     showgrid="false" /><defs
     id="defs1" /><g
     inkscape:label="Warstwa 1"
     id="layer1"
     transform="translate(-50.295536,-195.05793)"><g
       inkscape:label="Warstwa 1"
       id="layer1-85"
       transform="translate(26.182719,118.81031)"><g
         inkscape:label="Warstwa 1"
         id="layer1-4-5-5"
         transform="translate(-219.9045,28.683068)"><g
           inkscape:label="Warstwa 1"
           id="layer1-89"
           transform="translate(215.09434,-19.812097)"><g
             inkscape:label="Warstwa 1"
             id="layer1-4-5-3"
             transform="translate(-219.9045,28.683068)"><g
               inkscape:label="Warstwa 1"
               id="layer1-3"
               transform="translate(216.58408,-22.545672)"><g
                 inkscape:label="Warstwa 1"
                 id="layer1-4-5-0"
                 transform="translate(-219.9045,28.683068)"><g
                   inkscape:label="Warstwa 1"
                   id="layer1-5"
                   transform="translate(235.55056,-57.445467)"><g
                     inkscape:label="Warstwa 1"
                     id="layer1-82"
                     transform="translate(3.4917715,0.02991942)"><rect
                       style="fill:#684a4a;fill-opacity:1;stroke:none;stroke-width:0.518999;stroke-linecap:round;stroke-linejoin:round;stroke-miterlimit:10.1;stroke-dasharray:none;stroke-opacity:1;paint-order:fill markers stroke"
                       id="rect77"
                       width="174.90657"
                       height="134.82381"
                       x="12.937119"
                       y="90.372696" /><rect
                       style="fill:#222222;fill-opacity:1;stroke:none;stroke-width:0.519711;stroke-linecap:round;stroke-linejoin:round;stroke-miterlimit:10.1;stroke-dasharray:none;stroke-opacity:1;paint-order:fill markers stroke"
                       id="rect74"
                       width="174.80226"
                       height="39.680653"
                       x="12.329803"
                       y="185.37042" /><g
                       inkscape:label="Warstwa 1"
                       id="layer1-4"
                       transform="translate(4.0047418,-19.301403)" /><g
                       inkscape:label="Warstwa 1"
                       id="layer1-9-0"
                       transform="matrix(1,0,0,0.99502054,5.1061048,28.427504)"><g
                         inkscape:label="Warstwa 1"
                         id="layer1-91"
                         transform="translate(-9.9894822,-11.317072)"><g
                           inkscape:label="Warstwa 1"
                           id="layer1-898"
                           transform="translate(-24.173773,-1.2140415)"><g
                             inkscape:label="Warstwa 1"
                             id="layer1-0"
                             transform="translate(19.870968,20.947557)"><g
                               inkscape:label="Warstwa 1"
                               id="layer1-9-2"
                               transform="translate(5.6147241,27.412809)"><g
                                 inkscape:label="Warstwa 1"
                                 id="layer1-42"
                                 transform="translate(-42.848301,-141.37563)"><g
                                   inkscape:label="Warstwa 1"
                                   id="layer1-4-5-4"
                                   transform="translate(-219.9045,28.683068)" /><g
                                   inkscape:label="Warstwa 1"
                                   id="layer1-9-9"
                                   transform="matrix(0.81552753,0,0,0.81552753,33.556687,77.543364)"><g
                                   inkscape:label="Warstwa 1"
                                   id="layer1-02"
                                   transform="matrix(1.2262002,0,0,1.2262002,442.02502,59.586465)"><g
                                   inkscape:label="Warstwa 1"
                                   id="layer1-8"
                                   transform="matrix(0.59754329,0.1626891,-0.41730029,0.23383297,-257.97036,117.34)"><path
                                   style="display:inline;fill:#edb792;fill-opacity:1;stroke-width:0.203917"
                                   d="m 108.29919,155.26585 1.3083,-53.45419 2.28943,-44.736964 10.28305,0.10157 16.56178,-0.143962 8.60169,0.0022 4.24555,16.322514 4.24555,16.322513 -0.15049,14.141669 -0.15048,14.14166 -1.33507,10.86017 -14.57976,14.07322 -2.65146,16.77657 -9.57135,6.98912 -8.62681,0.01 -8.51162,-0.13367 -2.8687,-0.23487 z"
                                   id="path10-9"
                                   sodipodi:nodetypes="cccccccccccccccccc" /><path
                                   style="display:inline;fill:#e69a66;fill-opacity:1;stroke-width:0.203133"
                                   d="m 83.364333,142.02601 -12.982503,-11.91549 -0.0013,-1.34303 c -7.94e-4,-0.73866 -0.297087,-9.7567 -0.658421,-20.04008 C 69.360778,98.444025 69.062821,89.243108 69.059987,88.280919 l -0.0052,-1.749432 4.747619,-14.574633 4.74762,-14.574632 3.227739,-0.140594 c 10.075839,-0.438883 28.222855,-0.564363 29.721695,-0.205511 l 0.45457,0.108832 -0.12176,7.367522 c -0.16334,9.882889 -1.00337,32.172185 -2.30095,61.053229 -0.25668,5.71298 -0.56669,12.65948 -0.68892,15.43665 l -1.16567,25.50785 -2.55354,0.0108 -3.67644,0.0303 -15.343211,0.0896 z"
                                   id="path11-5"
                                   sodipodi:nodetypes="cccsccccsscsssccccc" /><path
                                   style="fill:#4d4d4d;stroke-width:0.206295"
                                   d="m 82.269782,146.36302 19.949768,0.59099 6.86708,20.61921 -0.38623,12.1145 -42.855669,30.39455 -11.300338,-15.50111 z"
                                   id="path12-7"
                                   sodipodi:nodetypes="ccccccc" /><path
                                   style="fill:#808080;stroke-width:0.206295"
                                   d="m 119.10531,146.03184 21.36494,0.11584 3.17729,9.41403 -35.56296,24.56567 -0.40981,-15.87036 z"
                                   id="path12-3-9"
                                   sodipodi:nodetypes="cccccc" /><path
                                   style="fill:#000000;stroke-width:0.264583"
                                   d="M 87.175349,120.95108 103.2141,130.1026"
                                   id="path14-0" /><rect
                                   style="fill:#000000;stroke-width:0.265873"
                                   id="rect16-0"
                                   width="19.080235"
                                   height="3.40678"
                                   x="74.121086"
                                   y="94.110001"
                                   transform="matrix(0.9658107,-0.25924832,0.12265681,0.99244915,0,0)" /><rect
                                   style="fill:#000000;stroke-width:0.264718"
                                   id="rect17-8"
                                   width="25.860157"
                                   height="2.7881188"
                                   x="127.49608"
                                   y="41.277748"
                                   transform="matrix(0.97733663,0.21169107,-0.16734735,0.985898,0,0)" /><path
                                   style="fill:#b3b3b3;stroke-width:0.543294"
                                   d="m 107.932,148.89202 0.66852,-19.44467 -17.675881,-0.91239 -20.933333,-12.44417 -0.481209,15.19275 16.007605,12.19906 z"
                                   id="path18-9"
                                   sodipodi:nodetypes="ccccccc" /><path
                                   style="fill:#cccccc;stroke-width:0.543294"
                                   d="m 107.71675,149.21046 0.57623,-19.50658 23.58415,-0.93476 23.73958,-16.62431 -1.45767,17.9768 -13.9025,12.63088 z"
                                   id="path18-6-3"
                                   sodipodi:nodetypes="ccccccc" /><path
                                   style="fill:#b3b3b3;stroke-width:0.236036"
                                   d="m 109.73226,116.96782 0.82419,5.40949 -14.86747,1.07412 -12.074545,5.35155 -10.506594,-2.26537 21.441032,-8.58332 z"
                                   id="path18-8-4"
                                   sodipodi:nodetypes="ccccccc" /><path
                                   style="fill:#cccccc;stroke-width:0.236036"
                                   d="m 109.57943,116.87454 0.76244,5.42456 23.93202,6.36677 6.02598,0.0874 11.12523,-3.34791 -19.53223,-5.9928 z"
                                   id="path18-6-7-3"
                                   sodipodi:nodetypes="ccccccc" /><path
                                   style="fill:#b3b3b3;stroke-width:0.43442"
                                   d="M 146.72271,54.845508 119.9197,52.047535 79.262767,55.004092 77.112999,59.565924 130.17468,59.32639 147.8748,58.93442 Z"
                                   id="path18-8-3-7"
                                   sodipodi:nodetypes="ccccccc" /><path
                                   style="fill:#000000;fill-opacity:1;stroke:none;stroke-width:0.755998;stroke-linecap:round;stroke-linejoin:round;stroke-miterlimit:10.1;stroke-dasharray:none;stroke-opacity:1;paint-order:fill markers stroke"
                                   d="m 82.030554,92.982681 3.890113,0.214171 14.465933,-12.221024 -5.393648,0.06756 z"
                                   id="path69"
                                   sodipodi:nodetypes="ccccc" /><path
                                   style="fill:#000000;fill-opacity:1;stroke:none;stroke-width:0.755998;stroke-linecap:round;stroke-linejoin:round;stroke-miterlimit:10.1;stroke-dasharray:none;stroke-opacity:1;paint-order:fill markers stroke"
                                   d="m 87.127741,80.939702 -3.944977,-0.441515 11.831682,12.478611 3.76331,0.820091 z"
                                   id="path70"
                                   sodipodi:nodetypes="ccccc" /><path
                                   style="fill:#000000;fill-opacity:1;stroke:none;stroke-width:0.755998;stroke-linecap:round;stroke-linejoin:round;stroke-miterlimit:10.1;stroke-dasharray:none;stroke-opacity:1;paint-order:fill markers stroke"
                                   d="m 123.38547,93.18107 3.75123,-0.041 13.42445,-13.64608 -5.1864,0.434684 z"
                                   id="path69-4"
                                   sodipodi:nodetypes="ccccc" /><path
                                   style="fill:#000000;fill-opacity:1;stroke:none;stroke-width:0.755998;stroke-linecap:round;stroke-linejoin:round;stroke-miterlimit:10.1;stroke-dasharray:none;stroke-opacity:1;paint-order:fill markers stroke"
                                   d="m 127.80361,80.352947 -3.8132,-0.190954 11.88636,12.135168 3.65368,0.595661 z"
                                   id="path70-2"
                                   sodipodi:nodetypes="ccccc" /></g><g
                                   inkscape:label="Warstwa 1"
                                   id="layer1-8-9-5"
                                   transform="matrix(0.60495655,0,0,0.60609052,-298.53,25.462048)"><path
                                   style="display:inline;fill:#c8beb7;stroke-width:0.203917"
                                   d="m 108.22926,155.3145 1.3083,-53.45419 2.28943,-44.736962 10.28305,0.10157 16.56178,-0.143962 8.60169,0.0022 4.24555,16.322514 4.24555,16.322513 -0.15049,14.141667 -0.15048,14.14166 -1.33507,10.86017 -14.57976,14.07322 -3.50803,23.75604 -17.34159,0.0192 -8.51162,-0.13367 -2.8687,-0.23487 z"
                                   id="path10-9-2-4"
                                   sodipodi:nodetypes="ccccccccccccccccc" /><path
                                   style="display:inline;fill:#917c6f;stroke-width:0.203133"
                                   d="m 83.364333,142.02601 -12.982503,-11.91549 -0.0013,-1.34303 c -7.94e-4,-0.73866 -0.297087,-9.7567 -0.658421,-20.04008 C 69.360778,98.444025 69.062821,89.243108 69.059987,88.280919 l -0.0052,-1.749432 4.747619,-14.574633 4.74762,-14.574632 3.227739,-0.140594 c 10.075839,-0.438883 28.222855,-0.564363 29.721695,-0.205511 l 0.45457,0.108832 -0.12176,7.367522 c -0.16334,9.882889 -1.00337,32.172185 -2.30095,61.053229 -0.25668,5.71298 -0.56669,12.65948 -0.68892,15.43665 l -1.16567,25.50785 -2.55354,0.0108 -3.67644,0.0303 -15.343211,0.0896 z"
                                   id="path11-5-1-9"
                                   sodipodi:nodetypes="cccsccccsscsssccccc" /><path
                                   style="fill:#4d4d4d;stroke-width:0.206295"
                                   d="m 82.269782,146.36302 19.949768,0.59099 6.86708,20.61921 -0.66323,20.80271 -49.310379,0.0226 z"
                                   id="path12-7-6-4"
                                   sodipodi:nodetypes="cccccc" /><path
                                   style="fill:#808080;stroke-width:0.206295"
                                   d="m 119.10531,146.03184 21.36494,0.11584 14.79935,42.25759 -47.4452,-0.0236 -0.14963,-24.12465 z"
                                   id="path12-3-9-9-2"
                                   sodipodi:nodetypes="cccccc" /><rect
                                   style="fill:#000000;stroke-width:0.320343"
                                   id="rect12-2-8-5"
                                   width="4.6698699"
                                   height="17.211805"
                                   x="128.08786"
                                   y="77.386414" /><rect
                                   style="fill:#000000;stroke-width:0.347321"
                                   id="rect13-0-8-4"
                                   width="5.7372684"
                                   height="25.750996"
                                   x="88.594109"
                                   y="78.720665" /><path
                                   style="fill:#000000;stroke-width:0.264583"
                                   d="M 87.175349,120.95108 103.2141,130.1026"
                                   id="path14-0-8-7" /><rect
                                   style="fill:#000000;stroke-width:0.264583"
                                   id="rect15-3-5-6"
                                   width="21.081125"
                                   height="3.0687716"
                                   x="98.193985"
                                   y="124.60401" /><rect
                                   style="fill:#000000;stroke-width:0.264583"
                                   id="rect16-0-8-1"
                                   width="21.322109"
                                   height="3.0190597"
                                   x="81.891998"
                                   y="71.891357" /><rect
                                   style="fill:#000000;stroke-width:0.264583"
                                   id="rect17-8-3-9"
                                   width="22.454258"
                                   height="3.2077508"
                                   x="118.87548"
                                   y="70.193138" /><path
                                   style="fill:#b3b3b3;stroke-width:0.543294"
                                   d="m 107.932,148.89202 0.66852,-19.44467 -17.675881,-0.91239 -20.933333,-12.44417 -0.481209,15.19275 16.007605,12.19906 z"
                                   id="path18-9-4-4"
                                   sodipodi:nodetypes="ccccccc" /><path
                                   style="fill:#cccccc;stroke-width:0.543294"
                                   d="m 107.71675,149.21046 0.57623,-19.50658 23.58415,-0.93476 23.73958,-16.62431 -1.45767,17.9768 -13.9025,12.63088 z"
                                   id="path18-6-3-4-3"
                                   sodipodi:nodetypes="ccccccc" /><path
                                   style="fill:#b3b3b3;stroke-width:0.236036"
                                   d="m 109.73226,116.96782 0.82419,5.40949 -14.86747,1.07412 -12.074545,5.35155 -10.506594,-2.26537 21.441032,-8.58332 z"
                                   id="path18-8-4-5-4"
                                   sodipodi:nodetypes="ccccccc" /><path
                                   style="fill:#cccccc;stroke-width:0.236036"
                                   d="m 109.57943,116.87454 0.76244,5.42456 23.93202,6.36677 6.02598,0.0874 11.12523,-3.34791 -19.53223,-5.9928 z"
                                   id="path18-6-7-3-2-2"
                                   sodipodi:nodetypes="ccccccc" /><path
                                   style="fill:#b3b3b3;stroke-width:0.43442"
                                   d="M 146.72271,54.845508 119.9197,52.047535 79.262767,55.004092 77.112999,59.565924 130.17468,59.32639 147.8748,58.93442 Z"
                                   id="path18-8-3-7-1-0"
                                   sodipodi:nodetypes="ccccccc" /><path
                                   style="fill:#4d4d4d;fill-opacity:0.739496;stroke:none;stroke-width:0.857108;stroke-linecap:round;stroke-linejoin:round;stroke-miterlimit:10.1;stroke-dasharray:none;stroke-opacity:1;paint-order:fill markers stroke"
                                   d="m 59.55039,187.68583 25.804195,45.40026 h 4.373592 l 18.094943,-44.86363 z"
                                   id="path72" /><path
                                   style="fill:#4d4d4d;fill-opacity:0.567227;stroke:none;stroke-width:0.857108;stroke-linecap:round;stroke-linejoin:round;stroke-miterlimit:10.1;stroke-dasharray:none;stroke-opacity:1;paint-order:fill markers stroke"
                                   d="m 155.11338,188.23151 -47.45347,0.10913 -17.773846,44.33189 z"
                                   id="path73" /></g><path
                                   style="fill:#000000;fill-opacity:1;stroke:none;stroke-width:0.518999;stroke-linecap:round;stroke-linejoin:round;stroke-miterlimit:10.1;stroke-dasharray:none;stroke-opacity:1;paint-order:fill markers stroke"
                                   d="m -253.77335,164.81509 3.96875,3.175 5.15937,1.91823 9.45885,-0.0661 2.11667,-1.05833 -6.48229,-2.71198 -6.15156,-1.5875 -6.28386,-0.92604 z"
                                   id="path71" /></g></g></g></g></g></g></g></g></g></g></g></g></g><g
             inkscape:label="Warstwa 1"
             id="layer1-9-4"
             transform="translate(5.6147241,27.412809)" /></g><g
           style="clip-rule:evenodd;fill-rule:evenodd;stroke-linecap:round;stroke-linejoin:round;stroke-miterlimit:1.5;stroke-width:1.0002506;stroke-dasharray:none;fill:#222222;fill-opacity:1"
           id="g36"
           transform="matrix(0.03499123,0,0,0.03499123,241.28926,38.073523)"><path
             d="m 597,2838 35,-50 10,-154 c 0,0 9,-49 30,-78 11.412,-15.76 72.424,-66.8 75,-113 15,-269 24,-719 24,-719 0,0 12.993,-38.18 62,-40 54,-2 86,0 86,0 v -256 c 0,0 -78.432,-53.96 -17,-133 61.432,-79.04 85.754,-60.38 102,-101 10,-25 27.49,-59.49 45,-77 25,-25 96,-29 106,-121 3.49,-32.086 -0.9,-71.582 0,-92 0.62,-14.166 6.49,-9.506 7,-15 1.17,-12.667 0,-61 0,-61 l 16,-44 V 638 c 0,0 -37,-17 -63,-61 -1.14,-1.925 -58,0 -58,0 0,0 -10,30 -28,24 -28.54,-9.513 -58.014,-59.34 -54,-77 5,-22 32,-62 54,-65 16.84,-2.297 20,19 20,19 0,0 60.71,0.958 61,0 12,-40 59,-64 59,-64 v -61 c -18.58,-11.478 -29.08,-22.335 -11,-38 0,0 41,-34 63,-34 22,0 64,24 73,41 11.99,22.653 -25,25 -25.05,31 -0.15,20.027 0,53 0,53 0,0 54.05,31 72.05,68 0.44,0.899 51,0 51,0 0,0 7,-23 31,-22 16.71,0.696 55.35,47.988 56,72 1,37 -33.97,69 -51,69 -22,0 -28,-21 -28,-21 0,0 -62.84,-0.988 -63,0 -7,44 -57,66 -57,66 v 146 l 22,44 c 0,0 4.51,67.126 5,68 1.56,2.804 4.37,7.371 6,16 3.6,19.071 2,52 8,84 6.32,33.72 11.34,65.55 54,91 57,34 65.37,19.75 93,92 13,34 48.07,65.75 72,82 23.93,16.25 41.63,32.59 49,63 8,33 7.23,40.32 -5,67 -11,24 -29.04,25.86 -28,54 3,81 5,216 5,216 0,0 44.01,-1.17 71,0 23,1 35.96,9.96 49,23 7.09,7.09 25.73,28.65 27,57 8,179 25,715 25,715 0,0 22.87,27.64 62,83 41,58 44.11,80.86 58,192 2,16 29.09,1 57,101 l -7,416 -222,15 v 45 l -835,14 v -26 l -249,12 z"
             style="stroke:#000000;stroke-width:1.0002506;stroke-dasharray:none;fill:#222222;fill-opacity:1"
             id="path1" /></g></g><g
         inkscape:label="Warstwa 1"
         id="layer1-9"
         transform="translate(5.6147241,27.412809)" /></g></g></svg>
