<?xml version="1.0" encoding="UTF-8" standalone="no"?>
<!-- Created with Inkscape (http://www.inkscape.org/) -->

<svg
   width="660"
   height="510"
   viewBox="0 0 174.62503 134.9375"
   version="1.1"
   id="svg1"
   xml:space="preserve"
   sodipodi:docname="wzór.svg"
   inkscape:version="1.3 (0e150ed6c4, 2023-07-21)"
   xmlns:inkscape="http://www.inkscape.org/namespaces/inkscape"
   xmlns:sodipodi="http://sodipodi.sourceforge.net/DTD/sodipodi-0.dtd"
   xmlns="http://www.w3.org/2000/svg"
   xmlns:svg="http://www.w3.org/2000/svg"><sodipodi:namedview
     id="namedview1"
     pagecolor="#ffffff"
     bordercolor="#000000"
     borderopacity="0.25"
     inkscape:showpageshadow="2"
     inkscape:pageopacity="0.0"
     inkscape:pagecheckerboard="0"
     inkscape:deskcolor="#d1d1d1"
     inkscape:document-units="mm"
     inkscape:zoom="0.74564394"
     inkscape:cx="334.61011"
     inkscape:cy="254.14275"
     inkscape:window-width="1920"
     inkscape:window-height="1051"
     inkscape:window-x="-9"
     inkscape:window-y="-9"
     inkscape:window-maximized="1"
     inkscape:current-layer="layer1-4-5" /><defs
     id="defs1" /><g
     inkscape:label="Warstwa 1"
     inkscape:groupmode="layer"
     id="layer1"><g
       inkscape:label="Warstwa 1"
       id="layer1-94"
       transform="translate(-9.0755263,-66.232026)"><g
         inkscape:label="Warstwa 1"
         id="layer1-4-5"
         transform="translate(-219.9045,28.683068)"><path
           style="fill:#a05a2c;stroke-width:0.264583"
           d="m 13.342485,216.4151 13.609336,0.26685"
           id="path3-6" /><rect
           style="fill:#3b3b3b;fill-opacity:1;stroke-width:2.319;stroke-linecap:round;stroke-linejoin:round;stroke-miterlimit:10.1;paint-order:fill markers stroke"
           id="rect2"
           width="174.88348"
           height="33.119968"
           x="228.72913"
           y="139.66887" /><rect
           style="fill:#909090;stroke-width:2.319;stroke-linecap:round;stroke-linejoin:round;stroke-miterlimit:10.1;paint-order:fill markers stroke;fill-opacity:1"
           id="rect1"
           width="174.88348"
           height="102.62172"
           x="228.72913"
           y="37.548958" /><path
           style="display:inline;fill:#f7bc93;fill-opacity:1;stroke-width:0.194574"
           d="m 321.57887,141.28486 1.24835,-51.004951 2.18453,-42.687143 9.81189,0.09692 15.80293,-0.137366 5.40671,0.638656 8.12499,14.046885 0.86824,16.847748 -2.68983,13.493698 -2.94443,13.493693 -14.3892,14.84198 -1.55071,10.00351 4.66374,21.23109 -16.54701,0.0183 -8.12162,-0.12755 -2.73726,-0.22411 z"
           id="path10-77-2"
           sodipodi:nodetypes="ccccccccccccccccc" /><path
           style="fill:#3b3b3b;fill-opacity:1;stroke-width:2.319;stroke-linecap:round;stroke-linejoin:round;stroke-miterlimit:10.1;paint-order:fill markers stroke"
           d="m 252.06364,140.42159 v -23.58543 h -6.52363 l 10.16028,-17.598122 h 58.83966 v 41.936282 c 0,0 -62.97812,-0.50182 -62.47631,-0.75273 z"
           id="path2" /><path
           style="display:inline;fill:#e2a175;fill-opacity:1;stroke-width:0.193826"
           d="m 303.96418,129.36911 0.0322,-8.8792 -12.40058,-9.82393 -5.74098,-18.92607 -0.12254,-14.417192 0.12254,-7.398288 2.87503,-8.177824 4.53009,-13.906828 3.07985,-0.134152 28.35987,-0.196094 0.43374,0.103845 -0.11618,7.029947 -2.19553,58.255806 -0.65735,14.72935 -1.11226,24.3391 -2.43654,0.0103 -3.50799,0.0289 -14.64019,0.0855 z"
           id="path11-7-8"
           sodipodi:nodetypes="ccccccccccccccccccc" /><path
           style="fill:#312222;fill-opacity:1;stroke-width:0.196843"
           d="m 296.80883,132.74353 19.03569,0.56391 6.55243,19.67445 -0.70108,19.52035 -46.82791,0.16532 z"
           id="path12-37-9"
           sodipodi:nodetypes="cccccc" /><path
           style="fill:#493333;fill-opacity:1;stroke-width:0.196843"
           d="m 331.95658,132.42752 20.38602,0.11053 14.3652,39.95197 -45.73518,0.0451 0.0772,-22.71738 z"
           id="path12-3-08-0"
           sodipodi:nodetypes="cccccc" /><rect
           style="fill:#000000;stroke-width:0.277565"
           id="rect12-7-7"
           width="4.4558992"
           height="13.542442"
           x="340.52756"
           y="66.927391" /><rect
           style="fill:#000000;stroke-width:0.227785"
           id="rect13-3-1"
           width="5.4743905"
           height="11.607824"
           x="302.84338"
           y="68.200516" /><path
           style="fill:#000000;stroke-width:0.25246"
           d="m 301.48963,108.49595 15.30387,8.7322"
           id="path14-4-7" /><rect
           style="fill:#000000;stroke-width:0.25246"
           id="rect15-8-9"
           width="20.115202"
           height="2.9281623"
           x="313.28293"
           y="103.97503" /><rect
           style="fill:#000000;stroke-width:0.25246"
           id="rect16-02-8"
           width="20.345144"
           height="2.8807282"
           x="296.44836"
           y="61.684116" /><rect
           style="fill:#000000;stroke-width:0.25246"
           id="rect17-7-9"
           width="21.425419"
           height="3.0607736"
           x="331.73727"
           y="60.063709" /><path
           style="fill:#686868;fill-opacity:1;stroke-width:0.472212"
           d="m 357.61596,43.064141 -26.00949,-3.406817 -39.45329,3.599909 -2.08613,5.554494 51.49079,-0.291657 17.17611,-0.477263 z"
           id="path18-8-3-5-8"
           sodipodi:nodetypes="ccccccc" /><path
           style="fill:#686868;fill-opacity:1;stroke-width:0.189846"
           d="m 322.73071,95.529601 0.65474,4.405158 -11.81071,0.874701 -9.592,4.35797 -7.13695,-1.08091 15.82325,-7.753593 z"
           id="path18-8-2-5"
           sodipodi:nodetypes="ccccccc" /><path
           style="fill:#797979;fill-opacity:1;stroke-width:0.225221"
           d="m 322.67825,95.530622 0.0524,4.500838 23.28559,6.66019 5.74987,0.0834 5.8413,-3.19451 -13.8631,-5.718204 z"
           id="path18-6-7-2-9"
           sodipodi:nodetypes="ccccccc" /></g></g></g></svg>
